<mxfile host="Electron" scale="1.2" border="0" agent="Mozilla/5.0 (Windows NT 10.0; Win64; x64) AppleWebKit/537.36 (KHTML, like Gecko) draw.io/28.0.6 Chrome/138.0.7204.100 Electron/37.2.3 Safari/537.36" version="28.0.6" pages="3">
  <diagram name="design" id="ahwWs56YI2XBYRBzwlqw">
    <mxGraphModel dx="3710" dy="3390" grid="1" gridSize="10" guides="1" tooltips="1" connect="1" arrows="1" fold="1" page="0" pageScale="1" pageWidth="850" pageHeight="1100" math="0" shadow="0">
      <root>
        <mxCell id="0" />
        <mxCell id="1" parent="0" />
        <mxCell id="qZF7NaJGXNpq08xq_DYa-1" value="&lt;span style=&quot;color: rgb(250, 250, 250); font-family: &amp;quot;Lucida Console&amp;quot;; font-size: 14px; font-weight: 700; text-wrap: nowrap;&quot;&gt;$STATEMACHINE : SMSodaStreamPure&lt;/span&gt;" style="rounded=1;whiteSpace=wrap;html=1;fillColor=#1ba1e2;fontColor=#ffffff;strokeColor=#006EAF;connectable=0;allowArrows=0;" parent="1" vertex="1">
          <mxGeometry x="-1370" y="-2297.5" width="470" height="35" as="geometry" />
        </mxCell>
        <mxCell id="qZF7NaJGXNpq08xq_DYa-2" value="&lt;b&gt;$NOTES&lt;/b&gt;&lt;br&gt;File: SMSodaStreamPure.drawio&lt;div&gt;Version: 2.0&lt;/div&gt;&lt;div&gt;Updated: 8/8//2025&lt;/div&gt;" style="shape=rectangle;rounded=1;arcSize=15;absoluteArcSize=1;align=left;verticalAlign=top;whiteSpace=wrap;html=1;spacingLeft=4;strokeWidth=1;strokeColor=default;fillColor=#fff2cc;fontColor=#000000;gradientColor=#ffd966;" parent="1" vertex="1">
          <mxGeometry x="-1736" y="-2297.5" width="300" height="80" as="geometry" />
        </mxCell>
        <mxCell id="qZF7NaJGXNpq08xq_DYa-3" value="Sate_Tilted" style="shape=swimlane;rotatable=0;align=center;verticalAlign=top;fontFamily=Lucida Console;startSize=30;fontSize=14;fontStyle=1;fillColor=#ffff88;swimlaneFillColor=default;rounded=1;arcSize=15;absoluteArcSize=1;strokeColor=#36393d;" parent="1" vertex="1">
          <mxGeometry x="-554" y="-800" width="310" height="120" as="geometry" />
        </mxCell>
        <mxCell id="qZF7NaJGXNpq08xq_DYa-4" value="enter / StopWaterPump();&#xa;enter / StopUVLed();&#xa;enter / StopCarbonation();&#xa;enter / StartMalfunctionLedsSequence();&#xa;enter / FadeOutAmbiantLight();&#xa;" style="fontFamily=Lucida Console;align=left;verticalAlign=top;fillColor=none;gradientColor=none;strokeColor=none;rounded=0;spacingLeft=4;resizable=0;movable=0;deletable=0;rotatable=0;autosize=1;" parent="qZF7NaJGXNpq08xq_DYa-3" vertex="1" connectable="0">
          <mxGeometry y="30" width="310" height="90" as="geometry" />
        </mxCell>
        <mxCell id="qZF7NaJGXNpq08xq_DYa-5" value="State_AutomaticMode" style="shape=swimlane;rotatable=0;align=center;verticalAlign=top;fontFamily=Lucida Console;startSize=30;fontSize=14;fontStyle=1;fontColor=#ffffff;fillColor=#60a917;swimlaneFillColor=default;rounded=1;arcSize=15;absoluteArcSize=1;strokeColor=#2D7600;strokeWidth=4;" parent="1" vertex="1">
          <mxGeometry x="-1736" y="-2197" width="1781" height="1320" as="geometry" />
        </mxCell>
        <mxCell id="qZF7NaJGXNpq08xq_DYa-6" value=" " style="fontFamily=Lucida Console;align=left;verticalAlign=top;fillColor=none;gradientColor=none;strokeColor=none;rounded=0;spacingLeft=4;resizable=0;movable=0;deletable=0;rotatable=0;autosize=1;" parent="qZF7NaJGXNpq08xq_DYa-5" vertex="1" connectable="0">
          <mxGeometry y="30" width="30" height="20" as="geometry" />
        </mxCell>
        <mxCell id="qZF7NaJGXNpq08xq_DYa-7" style="rounded=0;orthogonalLoop=1;jettySize=auto;html=1;exitX=0.5;exitY=1;exitDx=0;exitDy=0;entryX=0.5;entryY=0;entryDx=0;entryDy=0;entryPerimeter=0;" parent="qZF7NaJGXNpq08xq_DYa-5" source="qZF7NaJGXNpq08xq_DYa-8" target="qZF7NaJGXNpq08xq_DYa-9" edge="1">
          <mxGeometry relative="1" as="geometry" />
        </mxCell>
        <mxCell id="qZF7NaJGXNpq08xq_DYa-8" value="$initial_state" style="shape=ellipse;aspect=fixed;fillColor=#000000;resizable=0;rotatable=0;noLabel=1;" parent="qZF7NaJGXNpq08xq_DYa-5" vertex="1">
          <mxGeometry x="747" y="60" width="25" height="25" as="geometry" />
        </mxCell>
        <mxCell id="qZF7NaJGXNpq08xq_DYa-9" value="State_PowerOn" style="shape=swimlane;rotatable=0;align=center;verticalAlign=top;fontFamily=Lucida Console;startSize=30;fontSize=14;fontStyle=1;fontColor=#ffffff;fillColor=#76608a;swimlaneFillColor=default;rounded=1;arcSize=15;absoluteArcSize=1;points=[[0,0,0,0,0],[0,0.06,0,0,0],[0,0.13,0,0,0],[0,0.19,0,0,0],[0,0.25,0,0,0],[0,0.31,0,0,0],[0,0.38,0,0,0],[0,0.44,0,0,0],[0,0.5,0,0,0],[0,0.56,0,0,0],[0,0.63,0,0,0],[0,0.69,0,0,0],[0,0.75,0,0,0],[0,0.81,0,0,0],[0,0.88,0,0,0],[0,0.94,0,0,0],[0,1,0,0,0],[0.06,0,0,0,0],[0.06,1,0,0,0],[0.13,0,0,0,0],[0.13,1,0,0,0],[0.19,0,0,0,0],[0.19,1,0,0,0],[0.25,0,0,0,0],[0.25,1,0,0,0],[0.31,0,0,0,0],[0.31,1,0,0,0],[0.38,0,0,0,0],[0.38,1,0,0,0],[0.44,0,0,0,0],[0.44,1,0,0,0],[0.5,0,0,0,0],[0.5,1,0,0,0],[0.56,0,0,0,0],[0.56,1,0,0,0],[0.63,0,0,0,0],[0.63,1,0,0,0],[0.69,0,0,0,0],[0.69,1,0,0,0],[0.75,0,0,0,0],[0.75,1,0,0,0],[0.81,0,0,0,0],[0.81,1,0,0,0],[0.88,0,0,0,0],[0.88,1,0,0,0],[0.94,0,0,0,0],[0.94,1,0,0,0],[1,0,0,0,0],[1,0.06,0,0,0],[1,0.13,0,0,0],[1,0.19,0,0,0],[1,0.25,0,0,0],[1,0.31,0,0,0],[1,0.38,0,0,0],[1,0.44,0,0,0],[1,0.5,0,0,0],[1,0.56,0,0,0],[1,0.63,0,0,0],[1,0.69,0,0,0],[1,0.75,0,0,0],[1,0.81,0,0,0],[1,0.88,0,0,0],[1,0.94,0,0,0],[1,1,0,0,0]];strokeColor=#432D57;strokeWidth=4;" parent="qZF7NaJGXNpq08xq_DYa-5" vertex="1">
          <mxGeometry x="467.5" y="130" width="583.5" height="550" as="geometry">
            <mxRectangle x="270" y="132" width="150" height="30" as="alternateBounds" />
          </mxGeometry>
        </mxCell>
        <mxCell id="qZF7NaJGXNpq08xq_DYa-10" value="" style="fontFamily=Lucida Console;align=left;verticalAlign=top;fillColor=none;gradientColor=none;strokeColor=none;rounded=0;spacingLeft=4;resizable=0;movable=0;deletable=0;rotatable=0;autosize=1;" parent="qZF7NaJGXNpq08xq_DYa-9" vertex="1" connectable="0">
          <mxGeometry y="30" width="50" height="40" as="geometry" />
        </mxCell>
        <mxCell id="qZF7NaJGXNpq08xq_DYa-11" value="State_StandBy" style="shape=swimlane;rotatable=0;align=center;verticalAlign=top;fontFamily=Lucida Console;startSize=30;fontSize=14;fontStyle=1;fontColor=#ffffff;fillColor=#76608a;swimlaneFillColor=default;rounded=1;arcSize=15;absoluteArcSize=1;strokeColor=#432D57;" parent="qZF7NaJGXNpq08xq_DYa-9" vertex="1">
          <mxGeometry x="26" y="440" width="250" height="75" as="geometry" />
        </mxCell>
        <mxCell id="qZF7NaJGXNpq08xq_DYa-12" value="enter / FadeOutLeds(LEDS_all);&#xa;" style="fontFamily=Lucida Console;align=left;verticalAlign=top;fillColor=none;gradientColor=none;strokeColor=none;rounded=0;spacingLeft=4;resizable=0;movable=0;deletable=0;rotatable=0;autosize=1;" parent="qZF7NaJGXNpq08xq_DYa-11" vertex="1" connectable="0">
          <mxGeometry y="30" width="240" height="30" as="geometry" />
        </mxCell>
        <mxCell id="qZF7NaJGXNpq08xq_DYa-13" value="$initial_state" style="shape=ellipse;aspect=fixed;fillColor=#000000;resizable=0;rotatable=0;noLabel=1;" parent="qZF7NaJGXNpq08xq_DYa-9" vertex="1">
          <mxGeometry x="280" y="40" width="25" height="25" as="geometry" />
        </mxCell>
        <mxCell id="qZF7NaJGXNpq08xq_DYa-14" value="" style="endArrow=classic;html=1;rounded=1;exitX=1;exitY=0.5;exitDx=0;exitDy=0;entryX=0.5;entryY=0;entryDx=0;entryDy=0;strokeWidth=2;curved=0;" parent="qZF7NaJGXNpq08xq_DYa-9" source="qZF7NaJGXNpq08xq_DYa-18" target="qZF7NaJGXNpq08xq_DYa-19" edge="1">
          <mxGeometry width="50" height="50" relative="1" as="geometry">
            <mxPoint x="412.5" y="153" as="sourcePoint" />
            <mxPoint x="408.70000000000005" y="293" as="targetPoint" />
            <Array as="points">
              <mxPoint x="437" y="236" />
            </Array>
          </mxGeometry>
        </mxCell>
        <mxCell id="qZF7NaJGXNpq08xq_DYa-15" value="else" style="edgeLabel;html=1;align=center;verticalAlign=middle;resizable=0;points=[];" parent="qZF7NaJGXNpq08xq_DYa-14" vertex="1" connectable="0">
          <mxGeometry x="-0.2477" y="3" relative="1" as="geometry">
            <mxPoint x="-28" y="-6" as="offset" />
          </mxGeometry>
        </mxCell>
        <mxCell id="qZF7NaJGXNpq08xq_DYa-18" value="$choice" style="fontFamily=Lucida Console;align=center;verticalAlign=middle;shape=rhombus;rotatable=0;labelPosition=center;verticalLabelPosition=top;strokeWidth=1;fillColor=#FFFFFF;gradientColor=#d4d4d4cc;noLabel=1;" parent="qZF7NaJGXNpq08xq_DYa-9" vertex="1">
          <mxGeometry x="272.5" y="216" width="40" height="40" as="geometry" />
        </mxCell>
        <mxCell id="qZF7NaJGXNpq08xq_DYa-19" value="State_Ready" style="shape=swimlane;rotatable=0;align=center;verticalAlign=top;fontFamily=Lucida Console;startSize=30;fontSize=14;fontStyle=1;fontColor=#ffffff;fillColor=#76608a;swimlaneFillColor=default;rounded=1;arcSize=15;absoluteArcSize=1;points=[[0,0,0,0,0],[0,0.25,0,0,0],[0,0.5,0,0,0],[0,0.75,0,0,0],[0,1,0,0,0],[0.13,1,0,0,0],[0.25,0,0,0,0],[0.25,1,0,0,0],[0.5,0,0,0,0],[0.5,1,0,0,0],[0.63,0,0,0,0],[0.75,0,0,0,0],[0.75,1,0,0,0],[0.88,0,0,0,0],[1,0,0,0,0],[1,0.25,0,0,0],[1,0.5,0,0,0],[1,0.75,0,0,0],[1,1,0,0,0]];strokeColor=#432D57;" parent="qZF7NaJGXNpq08xq_DYa-9" vertex="1">
          <mxGeometry x="313.5" y="280" width="250" height="90" as="geometry" />
        </mxCell>
        <mxCell id="qZF7NaJGXNpq08xq_DYa-20" value="enter / FadeInLeds(LEDS_all);&#xa;enter / StartReadyTimer();&#xa;enter / ButtonsFunction(true);" style="fontFamily=Lucida Console;align=left;verticalAlign=top;fillColor=none;gradientColor=none;strokeColor=none;rounded=0;spacingLeft=4;resizable=0;movable=0;deletable=0;rotatable=0;autosize=1;" parent="qZF7NaJGXNpq08xq_DYa-19" vertex="1" connectable="0">
          <mxGeometry y="30" width="240" height="60" as="geometry" />
        </mxCell>
        <mxCell id="qZF7NaJGXNpq08xq_DYa-21" value="State_ReadyRinseRequired" style="shape=swimlane;rotatable=0;align=center;verticalAlign=top;fontFamily=Lucida Console;startSize=30;fontSize=14;fontStyle=1;fontColor=#ffffff;fillColor=#76608a;swimlaneFillColor=default;rounded=1;arcSize=15;absoluteArcSize=1;strokeColor=#432D57;" parent="qZF7NaJGXNpq08xq_DYa-9" vertex="1">
          <mxGeometry x="19" y="280" width="290" height="90" as="geometry" />
        </mxCell>
        <mxCell id="qZF7NaJGXNpq08xq_DYa-22" value="enter / FadeInLeds(LEDS_OrangeWater);&#xa;enter / StartReadyTimer();&#xa;enter / ButtonsFunction(true);" style="fontFamily=Lucida Console;align=left;verticalAlign=top;fillColor=none;gradientColor=none;strokeColor=none;rounded=0;spacingLeft=4;resizable=0;movable=0;deletable=0;rotatable=0;autosize=1;" parent="qZF7NaJGXNpq08xq_DYa-21" vertex="1" connectable="0">
          <mxGeometry y="30" width="290" height="60" as="geometry" />
        </mxCell>
        <mxCell id="qZF7NaJGXNpq08xq_DYa-23" value="" style="endArrow=classic;html=1;rounded=1;exitX=0.25;exitY=1;exitDx=0;exitDy=0;entryX=0.264;entryY=0.029;entryDx=0;entryDy=0;entryPerimeter=0;strokeWidth=2;curved=0;" parent="qZF7NaJGXNpq08xq_DYa-9" source="qZF7NaJGXNpq08xq_DYa-21" target="qZF7NaJGXNpq08xq_DYa-11" edge="1">
          <mxGeometry width="50" height="50" relative="1" as="geometry">
            <mxPoint x="-220" y="389" as="sourcePoint" />
            <mxPoint x="-170" y="339" as="targetPoint" />
            <Array as="points" />
          </mxGeometry>
        </mxCell>
        <mxCell id="qZF7NaJGXNpq08xq_DYa-24" value="Event_ReadyTimout" style="edgeLabel;html=1;align=center;verticalAlign=middle;resizable=0;points=[];" parent="qZF7NaJGXNpq08xq_DYa-23" vertex="1" connectable="0">
          <mxGeometry x="-0.7707" y="-1" relative="1" as="geometry">
            <mxPoint x="55" y="15" as="offset" />
          </mxGeometry>
        </mxCell>
        <mxCell id="qZF7NaJGXNpq08xq_DYa-25" value="" style="endArrow=classic;html=1;rounded=1;entryX=0.75;entryY=0;entryDx=0;entryDy=0;strokeWidth=2;curved=0;exitX=0.13;exitY=1;exitDx=0;exitDy=0;exitPerimeter=0;" parent="qZF7NaJGXNpq08xq_DYa-9" source="qZF7NaJGXNpq08xq_DYa-19" target="qZF7NaJGXNpq08xq_DYa-11" edge="1">
          <mxGeometry width="50" height="50" relative="1" as="geometry">
            <mxPoint x="330" y="410" as="sourcePoint" />
            <mxPoint x="570" y="389" as="targetPoint" />
            <Array as="points">
              <mxPoint x="347" y="399" />
              <mxPoint x="214" y="400" />
            </Array>
          </mxGeometry>
        </mxCell>
        <mxCell id="qZF7NaJGXNpq08xq_DYa-26" value="Event_ReadyTimout" style="edgeLabel;html=1;align=center;verticalAlign=middle;resizable=0;points=[];" parent="qZF7NaJGXNpq08xq_DYa-25" vertex="1" connectable="0">
          <mxGeometry x="-0.3025" y="-3" relative="1" as="geometry">
            <mxPoint x="-29" y="-7" as="offset" />
          </mxGeometry>
        </mxCell>
        <mxCell id="qZF7NaJGXNpq08xq_DYa-27" value="State_PowerOnInit" style="shape=swimlane;rotatable=0;align=center;verticalAlign=top;fontFamily=Lucida Console;startSize=30;fontSize=14;fontStyle=1;fontColor=#ffffff;fillColor=#76608a;swimlaneFillColor=default;rounded=1;arcSize=15;absoluteArcSize=1;strokeColor=#432D57;" parent="qZF7NaJGXNpq08xq_DYa-9" vertex="1">
          <mxGeometry x="177.5" y="90" width="230" height="90" as="geometry" />
        </mxCell>
        <mxCell id="qZF7NaJGXNpq08xq_DYa-28" value="enter / LedsOff(LEDS_all);&#xa;enter / AmbiantLightOff();&#xa;" style="fontFamily=Lucida Console;align=left;verticalAlign=top;fillColor=none;gradientColor=none;strokeColor=none;rounded=0;spacingLeft=4;resizable=0;movable=0;deletable=0;rotatable=0;autosize=1;" parent="qZF7NaJGXNpq08xq_DYa-27" vertex="1" connectable="0">
          <mxGeometry y="30" width="210" height="40" as="geometry" />
        </mxCell>
        <mxCell id="qZF7NaJGXNpq08xq_DYa-29" value="" style="endArrow=classic;html=1;rounded=0;exitX=0.5;exitY=1;exitDx=0;exitDy=0;entryX=0.5;entryY=0;entryDx=0;entryDy=0;strokeWidth=2;" parent="qZF7NaJGXNpq08xq_DYa-9" source="qZF7NaJGXNpq08xq_DYa-13" target="qZF7NaJGXNpq08xq_DYa-27" edge="1">
          <mxGeometry width="50" height="50" relative="1" as="geometry">
            <mxPoint x="610" y="610" as="sourcePoint" />
            <mxPoint x="660" y="560" as="targetPoint" />
          </mxGeometry>
        </mxCell>
        <mxCell id="qZF7NaJGXNpq08xq_DYa-30" value="" style="endArrow=classic;html=1;rounded=0;exitX=0.5;exitY=1;exitDx=0;exitDy=0;entryX=0.5;entryY=0;entryDx=0;entryDy=0;strokeWidth=2;" parent="qZF7NaJGXNpq08xq_DYa-9" source="qZF7NaJGXNpq08xq_DYa-27" target="qZF7NaJGXNpq08xq_DYa-18" edge="1">
          <mxGeometry width="50" height="50" relative="1" as="geometry">
            <mxPoint x="750" y="-30" as="sourcePoint" />
            <mxPoint x="800" y="-80" as="targetPoint" />
          </mxGeometry>
        </mxCell>
        <mxCell id="2IGWBoECEHxJKRUWdZCC-8" value="" style="endArrow=classic;html=1;rounded=1;exitX=0;exitY=0.5;exitDx=0;exitDy=0;entryX=0.25;entryY=0;entryDx=0;entryDy=0;strokeWidth=2;curved=0;" parent="qZF7NaJGXNpq08xq_DYa-9" source="qZF7NaJGXNpq08xq_DYa-18" target="qZF7NaJGXNpq08xq_DYa-21" edge="1">
          <mxGeometry width="50" height="50" relative="1" as="geometry">
            <mxPoint x="-122" y="218" as="sourcePoint" />
            <mxPoint x="-122" y="300" as="targetPoint" />
            <Array as="points">
              <mxPoint x="92" y="236" />
            </Array>
          </mxGeometry>
        </mxCell>
        <mxCell id="2IGWBoECEHxJKRUWdZCC-10" value="[IsFirstPowerON() || FilterLifeTimeExpired()]" style="edgeLabel;html=1;align=center;verticalAlign=middle;resizable=0;points=[];" parent="2IGWBoECEHxJKRUWdZCC-8" vertex="1" connectable="0">
          <mxGeometry x="-0.4683" y="2" relative="1" as="geometry">
            <mxPoint x="-54" y="-13" as="offset" />
          </mxGeometry>
        </mxCell>
        <mxCell id="qZF7NaJGXNpq08xq_DYa-31" value="" style="endArrow=classic;html=1;rounded=0;exitX=1;exitY=0.56;exitDx=0;exitDy=0;exitPerimeter=0;entryX=0;entryY=0.5;entryDx=0;entryDy=0;strokeWidth=2;" parent="qZF7NaJGXNpq08xq_DYa-5" source="qZF7NaJGXNpq08xq_DYa-9" target="qZF7NaJGXNpq08xq_DYa-33" edge="1">
          <mxGeometry width="50" height="50" relative="1" as="geometry">
            <mxPoint x="1077.5" y="438" as="sourcePoint" />
            <mxPoint x="1247.5" y="443" as="targetPoint" />
          </mxGeometry>
        </mxCell>
        <mxCell id="qZF7NaJGXNpq08xq_DYa-32" value="Event_LongPressWaterFilter" style="edgeLabel;html=1;align=center;verticalAlign=middle;resizable=0;points=[];" parent="qZF7NaJGXNpq08xq_DYa-31" vertex="1" connectable="0">
          <mxGeometry x="0.0698" y="2" relative="1" as="geometry">
            <mxPoint x="-8" y="-9" as="offset" />
          </mxGeometry>
        </mxCell>
        <mxCell id="qZF7NaJGXNpq08xq_DYa-33" value="State_Rinsing" style="shape=swimlane;rotatable=0;align=center;verticalAlign=top;fontFamily=Lucida Console;startSize=30;fontSize=14;fontStyle=1;fontColor=#ffffff;fillColor=#1ba1e2;swimlaneFillColor=default;rounded=1;arcSize=15;absoluteArcSize=1;strokeColor=#006EAF;" parent="qZF7NaJGXNpq08xq_DYa-5" vertex="1">
          <mxGeometry x="1278.5" y="312" width="320" height="250" as="geometry" />
        </mxCell>
        <mxCell id="qZF7NaJGXNpq08xq_DYa-34" value="enter / ButtonsFunction(false);&#xa;enter / FadeOutLeds(LEDS_AllCarbonation);&#xa;enter / StartRinsingLedSequence();&#xa;enter / pumpStopsOnSensor = true;&#xa;enter / SolenoidPumpUVPower(1);&#xa;enter / StartWaterPump();&#xa;enter / ResetFilterLifetimeTimer();&#xa;enter / StartWaterPumpingTimer();&#xa;enter / StartUVLEd();&#xa;exit / SolenoidPumpUVPower(0);&#xa;exit / StopWaterPump();&#xa;exit / StopRinsingLedSequence();&#xa;exit / WaterLedOrangeToBlue();&#xa;exit / StopUVLed();" style="fontFamily=Lucida Console;align=left;verticalAlign=top;fillColor=none;gradientColor=none;strokeColor=none;rounded=0;spacingLeft=4;resizable=0;movable=0;deletable=0;rotatable=0;autosize=1;" parent="qZF7NaJGXNpq08xq_DYa-33" vertex="1" connectable="0">
          <mxGeometry y="30" width="320" height="220" as="geometry" />
        </mxCell>
        <mxCell id="qZF7NaJGXNpq08xq_DYa-35" value="" style="endArrow=classic;html=1;rounded=1;exitX=0.25;exitY=0;exitDx=0;exitDy=0;entryX=0.88;entryY=0;entryDx=0;entryDy=0;strokeWidth=2;curved=0;entryPerimeter=0;" parent="qZF7NaJGXNpq08xq_DYa-5" source="qZF7NaJGXNpq08xq_DYa-33" target="qZF7NaJGXNpq08xq_DYa-19" edge="1">
          <mxGeometry width="50" height="50" relative="1" as="geometry">
            <mxPoint x="1247.5" y="617" as="sourcePoint" />
            <mxPoint x="1297.5" y="567" as="targetPoint" />
            <Array as="points">
              <mxPoint x="1358" y="287" />
              <mxPoint x="1003" y="287" />
            </Array>
          </mxGeometry>
        </mxCell>
        <mxCell id="qZF7NaJGXNpq08xq_DYa-36" value="Event_AnyKeyPress" style="edgeLabel;html=1;align=center;verticalAlign=middle;resizable=0;points=[];" parent="qZF7NaJGXNpq08xq_DYa-35" vertex="1" connectable="0">
          <mxGeometry x="0.0038" relative="1" as="geometry">
            <mxPoint x="118" y="11" as="offset" />
          </mxGeometry>
        </mxCell>
        <mxCell id="qZF7NaJGXNpq08xq_DYa-37" value="" style="endArrow=classic;html=1;rounded=1;exitX=0.5;exitY=0;exitDx=0;exitDy=0;strokeWidth=2;curved=0;entryX=0.75;entryY=0;entryDx=0;entryDy=0;entryPerimeter=0;" parent="qZF7NaJGXNpq08xq_DYa-5" source="qZF7NaJGXNpq08xq_DYa-33" target="qZF7NaJGXNpq08xq_DYa-19" edge="1">
          <mxGeometry width="50" height="50" relative="1" as="geometry">
            <mxPoint x="1407.5" y="677" as="sourcePoint" />
            <mxPoint x="1107.5" y="597" as="targetPoint" />
            <Array as="points">
              <mxPoint x="1439" y="247" />
              <mxPoint x="969" y="247" />
            </Array>
          </mxGeometry>
        </mxCell>
        <mxCell id="qZF7NaJGXNpq08xq_DYa-38" value="Event_BottleFullSensor" style="edgeLabel;html=1;align=center;verticalAlign=middle;resizable=0;points=[];" parent="qZF7NaJGXNpq08xq_DYa-37" vertex="1" connectable="0">
          <mxGeometry x="-0.5078" y="-1" relative="1" as="geometry">
            <mxPoint x="15" y="12" as="offset" />
          </mxGeometry>
        </mxCell>
        <mxCell id="qZF7NaJGXNpq08xq_DYa-41" value="State_ExitFilteringOnly" style="shape=swimlane;rotatable=0;align=center;verticalAlign=top;fontFamily=Lucida Console;startSize=30;fontSize=14;fontStyle=1;fontColor=#ffffff;fillColor=#1ba1e2;swimlaneFillColor=default;rounded=1;arcSize=15;absoluteArcSize=1;strokeColor=#006EAF;" parent="qZF7NaJGXNpq08xq_DYa-5" vertex="1">
          <mxGeometry x="1267.5" y="717" width="340" height="107" as="geometry" />
        </mxCell>
        <mxCell id="qZF7NaJGXNpq08xq_DYa-42" value="enter / SolenoidPumpUVPower(0);&#xa;enter / StopWaterPump();&#xa;enter / StopUVLed();&#xa;enter / FadeOutAmbiantLight();" style="fontFamily=Lucida Console;align=left;verticalAlign=top;fillColor=none;gradientColor=none;strokeColor=none;rounded=0;spacingLeft=4;resizable=0;movable=0;deletable=0;rotatable=0;autosize=1;" parent="qZF7NaJGXNpq08xq_DYa-41" vertex="1" connectable="0">
          <mxGeometry y="30" width="250" height="70" as="geometry" />
        </mxCell>
        <mxCell id="qZF7NaJGXNpq08xq_DYa-43" value="State_FilteringCarbonationAwait" style="shape=swimlane;rotatable=0;align=center;verticalAlign=top;fontFamily=Lucida Console;startSize=30;fontSize=14;fontStyle=1;fontColor=#ffffff;fillColor=#1ba1e2;swimlaneFillColor=default;rounded=1;arcSize=15;absoluteArcSize=1;strokeColor=#006EAF;" parent="qZF7NaJGXNpq08xq_DYa-5" vertex="1">
          <mxGeometry x="623.5" y="925" width="425" height="90" as="geometry" />
        </mxCell>
        <mxCell id="qZF7NaJGXNpq08xq_DYa-44" value="enter / ButtonsFunction(false);&#xa;exit / StopWaterPump();&#xa;exit / StopUVLed();" style="fontFamily=Lucida Console;align=left;verticalAlign=top;fillColor=none;gradientColor=none;strokeColor=none;rounded=0;spacingLeft=4;resizable=0;movable=0;deletable=0;rotatable=0;autosize=1;" parent="qZF7NaJGXNpq08xq_DYa-43" vertex="1" connectable="0">
          <mxGeometry y="30" width="250" height="60" as="geometry" />
        </mxCell>
        <mxCell id="qZF7NaJGXNpq08xq_DYa-45" value="" style="endArrow=classic;html=1;rounded=0;exitX=0.63;exitY=1;exitDx=0;exitDy=0;entryX=0.5;entryY=0;entryDx=0;entryDy=0;strokeWidth=2;exitPerimeter=0;" parent="qZF7NaJGXNpq08xq_DYa-5" source="qZF7NaJGXNpq08xq_DYa-9" target="qZF7NaJGXNpq08xq_DYa-47" edge="1">
          <mxGeometry width="50" height="50" relative="1" as="geometry">
            <mxPoint x="1507.5" y="1173" as="sourcePoint" />
            <mxPoint x="1508" y="1198" as="targetPoint" />
          </mxGeometry>
        </mxCell>
        <mxCell id="qZF7NaJGXNpq08xq_DYa-46" value="Event_ShortPressWaterFilter" style="edgeLabel;html=1;align=center;verticalAlign=middle;resizable=0;points=[];" parent="qZF7NaJGXNpq08xq_DYa-45" vertex="1" connectable="0">
          <mxGeometry x="-0.3199" y="-3" relative="1" as="geometry">
            <mxPoint x="80" y="8" as="offset" />
          </mxGeometry>
        </mxCell>
        <mxCell id="qZF7NaJGXNpq08xq_DYa-47" value="State_Filtering" style="shape=swimlane;rotatable=0;align=center;verticalAlign=top;fontFamily=Lucida Console;startSize=30;fontSize=14;fontStyle=1;fontColor=#ffffff;fillColor=#1ba1e2;swimlaneFillColor=default;rounded=1;arcSize=15;absoluteArcSize=1;strokeColor=#006EAF;" parent="qZF7NaJGXNpq08xq_DYa-5" vertex="1">
          <mxGeometry x="623.5" y="730" width="425" height="160" as="geometry" />
        </mxCell>
        <mxCell id="qZF7NaJGXNpq08xq_DYa-48" value="enter / StartWaterFilterLedSequence();&#xa;enter / FadeInLeds(LEDS_all);&#xa;enter / FadeInAmbiantLight();&#xa;enter / SolenoidPumpUVPower(1);&#xa;enter / StartUVLEd();&#xa;enter / pumpStopsOnSensor = true;&#xa;enter / StartWaterPump();&#xa;enter / StartWaterPumpingTimer();" style="fontFamily=Lucida Console;align=left;verticalAlign=top;fillColor=none;gradientColor=none;strokeColor=none;rounded=0;spacingLeft=4;resizable=0;movable=0;deletable=0;rotatable=0;autosize=1;" parent="qZF7NaJGXNpq08xq_DYa-47" vertex="1" connectable="0">
          <mxGeometry y="30" width="300" height="130" as="geometry" />
        </mxCell>
        <mxCell id="qZF7NaJGXNpq08xq_DYa-49" value="" style="endArrow=classic;html=1;rounded=1;strokeWidth=2;curved=0;exitX=0.5;exitY=1;exitDx=0;exitDy=0;entryX=0.5;entryY=0;entryDx=0;entryDy=0;" parent="qZF7NaJGXNpq08xq_DYa-5" source="qZF7NaJGXNpq08xq_DYa-47" target="qZF7NaJGXNpq08xq_DYa-43" edge="1">
          <mxGeometry width="50" height="50" relative="1" as="geometry">
            <mxPoint x="2305" y="1448" as="sourcePoint" />
            <mxPoint x="1685" y="1448" as="targetPoint" />
          </mxGeometry>
        </mxCell>
        <mxCell id="qZF7NaJGXNpq08xq_DYa-50" value="Event_CarbonationLevelPressed" style="edgeLabel;html=1;align=center;verticalAlign=middle;resizable=0;points=[];" parent="qZF7NaJGXNpq08xq_DYa-49" vertex="1" connectable="0">
          <mxGeometry x="-0.3026" y="1" relative="1" as="geometry">
            <mxPoint x="92" y="9" as="offset" />
          </mxGeometry>
        </mxCell>
        <mxCell id="qZF7NaJGXNpq08xq_DYa-51" value="" style="endArrow=classic;html=1;rounded=1;strokeWidth=2;curved=0;exitX=1;exitY=0.5;exitDx=0;exitDy=0;entryX=0;entryY=0.75;entryDx=0;entryDy=0;" parent="qZF7NaJGXNpq08xq_DYa-5" source="qZF7NaJGXNpq08xq_DYa-47" target="qZF7NaJGXNpq08xq_DYa-41" edge="1">
          <mxGeometry width="50" height="50" relative="1" as="geometry">
            <mxPoint x="1327.5" y="718" as="sourcePoint" />
            <mxPoint x="1377.5" y="668" as="targetPoint" />
            <Array as="points">
              <mxPoint x="1246" y="810" />
              <mxPoint x="1246" y="797" />
            </Array>
          </mxGeometry>
        </mxCell>
        <mxCell id="qZF7NaJGXNpq08xq_DYa-52" value="Event_WaterPumpingTimeout" style="edgeLabel;html=1;align=center;verticalAlign=middle;resizable=0;points=[];" parent="qZF7NaJGXNpq08xq_DYa-51" vertex="1" connectable="0">
          <mxGeometry x="-0.0151" relative="1" as="geometry">
            <mxPoint x="-30" y="8" as="offset" />
          </mxGeometry>
        </mxCell>
        <mxCell id="qZF7NaJGXNpq08xq_DYa-53" value="" style="endArrow=classic;html=1;rounded=1;exitX=1;exitY=0.75;exitDx=0;exitDy=0;strokeWidth=2;curved=0;entryX=0.25;entryY=1;entryDx=0;entryDy=0;" parent="qZF7NaJGXNpq08xq_DYa-5" source="qZF7NaJGXNpq08xq_DYa-47" target="qZF7NaJGXNpq08xq_DYa-41" edge="1">
          <mxGeometry width="50" height="50" relative="1" as="geometry">
            <mxPoint x="1167.5" y="958" as="sourcePoint" />
            <mxPoint x="1397.5" y="998" as="targetPoint" />
            <Array as="points">
              <mxPoint x="1353" y="850" />
            </Array>
          </mxGeometry>
        </mxCell>
        <mxCell id="qZF7NaJGXNpq08xq_DYa-54" value="Event_ShortPressWaterFilter" style="edgeLabel;html=1;align=center;verticalAlign=middle;resizable=0;points=[];" parent="qZF7NaJGXNpq08xq_DYa-53" vertex="1" connectable="0">
          <mxGeometry x="-0.1028" y="-3" relative="1" as="geometry">
            <mxPoint x="-46" y="6" as="offset" />
          </mxGeometry>
        </mxCell>
        <mxCell id="qZF7NaJGXNpq08xq_DYa-55" value="" style="endArrow=classic;html=1;rounded=1;exitX=1;exitY=0.381;exitDx=0;exitDy=0;entryX=0.5;entryY=1;entryDx=0;entryDy=0;strokeWidth=2;curved=0;exitPerimeter=0;" parent="qZF7NaJGXNpq08xq_DYa-5" source="qZF7NaJGXNpq08xq_DYa-43" target="qZF7NaJGXNpq08xq_DYa-41" edge="1">
          <mxGeometry width="50" height="50" relative="1" as="geometry">
            <mxPoint x="1267.5" y="1058" as="sourcePoint" />
            <mxPoint x="1317.5" y="1008" as="targetPoint" />
            <Array as="points">
              <mxPoint x="1438" y="957" />
            </Array>
          </mxGeometry>
        </mxCell>
        <mxCell id="qZF7NaJGXNpq08xq_DYa-56" value="Event_AnyKeyPress" style="edgeLabel;html=1;align=center;verticalAlign=middle;resizable=0;points=[];" parent="qZF7NaJGXNpq08xq_DYa-55" vertex="1" connectable="0">
          <mxGeometry x="-0.1902" y="-1" relative="1" as="geometry">
            <mxPoint x="-108" y="-11" as="offset" />
          </mxGeometry>
        </mxCell>
        <mxCell id="qZF7NaJGXNpq08xq_DYa-57" value="" style="endArrow=classic;html=1;rounded=1;strokeWidth=2;curved=0;exitX=0.5;exitY=0;exitDx=0;exitDy=0;entryX=0.25;entryY=1;entryDx=0;entryDy=0;entryPerimeter=0;" parent="qZF7NaJGXNpq08xq_DYa-5" source="qZF7NaJGXNpq08xq_DYa-41" target="qZF7NaJGXNpq08xq_DYa-19" edge="1">
          <mxGeometry width="50" height="50" relative="1" as="geometry">
            <mxPoint x="1167.5" y="728" as="sourcePoint" />
            <mxPoint x="967.5" y="498" as="targetPoint" />
            <Array as="points">
              <mxPoint x="1435.5" y="648" />
              <mxPoint x="843.5" y="648" />
            </Array>
          </mxGeometry>
        </mxCell>
        <mxCell id="qZF7NaJGXNpq08xq_DYa-58" value="" style="endArrow=classic;html=1;rounded=1;exitX=0.5;exitY=1;exitDx=0;exitDy=0;strokeWidth=2;curved=0;entryX=1;entryY=0.75;entryDx=0;entryDy=0;" parent="qZF7NaJGXNpq08xq_DYa-5" source="qZF7NaJGXNpq08xq_DYa-43" target="Ziy2RvUZ8rSOBJYL170Z-1" edge="1">
          <mxGeometry width="50" height="50" relative="1" as="geometry">
            <mxPoint x="1397.5" y="1218" as="sourcePoint" />
            <mxPoint x="466" y="977" as="targetPoint" />
            <Array as="points">
              <mxPoint x="836" y="1054" />
              <mxPoint x="466" y="1054" />
              <mxPoint x="466" y="1015" />
            </Array>
          </mxGeometry>
        </mxCell>
        <mxCell id="qZF7NaJGXNpq08xq_DYa-59" value="Event_BottleFullSensor" style="edgeLabel;html=1;align=center;verticalAlign=middle;resizable=0;points=[];" parent="qZF7NaJGXNpq08xq_DYa-58" vertex="1" connectable="0">
          <mxGeometry x="-0.2669" relative="1" as="geometry">
            <mxPoint x="37" y="20" as="offset" />
          </mxGeometry>
        </mxCell>
        <mxCell id="qZF7NaJGXNpq08xq_DYa-60" value="" style="endArrow=classic;html=1;rounded=1;strokeWidth=2;curved=0;exitX=0;exitY=0.25;exitDx=0;exitDy=0;exitPerimeter=0;entryX=0.5;entryY=0;entryDx=0;entryDy=0;" parent="qZF7NaJGXNpq08xq_DYa-5" source="qZF7NaJGXNpq08xq_DYa-9" target="Ziy2RvUZ8rSOBJYL170Z-1" edge="1">
          <mxGeometry width="50" height="50" relative="1" as="geometry">
            <mxPoint x="547.5" y="838" as="sourcePoint" />
            <mxPoint x="230.75" y="355" as="targetPoint" />
            <Array as="points">
              <mxPoint x="231" y="267" />
            </Array>
          </mxGeometry>
        </mxCell>
        <mxCell id="qZF7NaJGXNpq08xq_DYa-61" value="Event_CarbonationLevelPressed" style="edgeLabel;html=1;align=center;verticalAlign=middle;resizable=0;points=[];" parent="qZF7NaJGXNpq08xq_DYa-60" vertex="1" connectable="0">
          <mxGeometry x="-0.0771" y="-4" relative="1" as="geometry">
            <mxPoint x="46" y="-14" as="offset" />
          </mxGeometry>
        </mxCell>
        <mxCell id="qZF7NaJGXNpq08xq_DYa-64" value="" style="endArrow=classic;html=1;rounded=1;exitX=0.5;exitY=1;exitDx=0;exitDy=0;entryX=0.75;entryY=1;entryDx=0;entryDy=0;entryPerimeter=0;strokeWidth=2;curved=0;" parent="qZF7NaJGXNpq08xq_DYa-5" source="Ziy2RvUZ8rSOBJYL170Z-1" target="qZF7NaJGXNpq08xq_DYa-19" edge="1">
          <mxGeometry width="50" height="50" relative="1" as="geometry">
            <mxPoint x="1048.5" y="1247.2499999999995" as="sourcePoint" />
            <mxPoint x="1397.5" y="1278" as="targetPoint" />
            <Array as="points">
              <mxPoint x="230" y="1270" />
              <mxPoint x="1690" y="1270" />
              <mxPoint x="1685.5" y="578" />
              <mxPoint x="968.5" y="578" />
            </Array>
          </mxGeometry>
        </mxCell>
        <mxCell id="qZF7NaJGXNpq08xq_DYa-65" value="Event_AnyKeyPress" style="edgeLabel;html=1;align=center;verticalAlign=middle;resizable=0;points=[];" parent="qZF7NaJGXNpq08xq_DYa-64" vertex="1" connectable="0">
          <mxGeometry x="-0.8228" y="-1" relative="1" as="geometry">
            <mxPoint x="-87" y="10" as="offset" />
          </mxGeometry>
        </mxCell>
        <mxCell id="2IGWBoECEHxJKRUWdZCC-2" value="" style="endArrow=classic;html=1;rounded=1;exitX=0.75;exitY=0;exitDx=0;exitDy=0;strokeWidth=2;curved=0;entryX=0.63;entryY=0;entryDx=0;entryDy=0;entryPerimeter=0;" parent="qZF7NaJGXNpq08xq_DYa-5" source="qZF7NaJGXNpq08xq_DYa-33" target="qZF7NaJGXNpq08xq_DYa-19" edge="1">
          <mxGeometry width="50" height="50" relative="1" as="geometry">
            <mxPoint x="1401.5" y="369" as="sourcePoint" />
            <mxPoint x="936.5" y="379" as="targetPoint" />
            <Array as="points">
              <mxPoint x="1518" y="207" />
              <mxPoint x="939" y="207" />
            </Array>
          </mxGeometry>
        </mxCell>
        <mxCell id="2IGWBoECEHxJKRUWdZCC-3" value="Event_WaterPumpingTimeout" style="edgeLabel;html=1;align=center;verticalAlign=middle;resizable=0;points=[];" parent="2IGWBoECEHxJKRUWdZCC-2" vertex="1" connectable="0">
          <mxGeometry x="-0.5078" y="-1" relative="1" as="geometry">
            <mxPoint x="8" y="11" as="offset" />
          </mxGeometry>
        </mxCell>
        <mxCell id="2IGWBoECEHxJKRUWdZCC-4" value="" style="endArrow=classic;html=1;rounded=1;strokeWidth=2;curved=0;exitX=1;exitY=0.25;exitDx=0;exitDy=0;entryX=0;entryY=0.5;entryDx=0;entryDy=0;" parent="qZF7NaJGXNpq08xq_DYa-5" source="qZF7NaJGXNpq08xq_DYa-47" target="qZF7NaJGXNpq08xq_DYa-41" edge="1">
          <mxGeometry width="50" height="50" relative="1" as="geometry">
            <mxPoint x="1175.5" y="868" as="sourcePoint" />
            <mxPoint x="1393.5" y="869" as="targetPoint" />
            <Array as="points" />
          </mxGeometry>
        </mxCell>
        <mxCell id="2IGWBoECEHxJKRUWdZCC-5" value="Event_BottleFullSensor" style="edgeLabel;html=1;align=center;verticalAlign=middle;resizable=0;points=[];" parent="2IGWBoECEHxJKRUWdZCC-4" vertex="1" connectable="0">
          <mxGeometry x="-0.0151" relative="1" as="geometry">
            <mxPoint x="-30" y="-11" as="offset" />
          </mxGeometry>
        </mxCell>
        <mxCell id="2IGWBoECEHxJKRUWdZCC-6" value="" style="endArrow=classic;html=1;rounded=1;strokeWidth=2;curved=0;exitX=1;exitY=0.75;exitDx=0;exitDy=0;entryX=0.75;entryY=1;entryDx=0;entryDy=0;" parent="qZF7NaJGXNpq08xq_DYa-5" source="qZF7NaJGXNpq08xq_DYa-43" target="qZF7NaJGXNpq08xq_DYa-41" edge="1">
          <mxGeometry width="50" height="50" relative="1" as="geometry">
            <mxPoint x="1144.5" y="1078" as="sourcePoint" />
            <mxPoint x="1544.5" y="928" as="targetPoint" />
            <Array as="points">
              <mxPoint x="1526" y="993" />
            </Array>
          </mxGeometry>
        </mxCell>
        <mxCell id="2IGWBoECEHxJKRUWdZCC-7" value="Event_WaterPumpingTimeout" style="edgeLabel;html=1;align=center;verticalAlign=middle;resizable=0;points=[];" parent="2IGWBoECEHxJKRUWdZCC-6" vertex="1" connectable="0">
          <mxGeometry x="-0.0151" relative="1" as="geometry">
            <mxPoint x="-200" y="11" as="offset" />
          </mxGeometry>
        </mxCell>
        <mxCell id="Ziy2RvUZ8rSOBJYL170Z-1" value="State_Carbonating" style="shape=swimlane;rotatable=0;align=center;verticalAlign=top;fontFamily=Lucida Console;startSize=30;fontSize=14;fontStyle=1;fontColor=#FAFAFA;fillColor=#545454;swimlaneFillColor=default;rounded=1;arcSize=15;absoluteArcSize=1;comic=0;STATESMITH_NOTES_VERTEX" parent="qZF7NaJGXNpq08xq_DYa-5" vertex="1">
          <mxGeometry x="24" y="330" width="413" height="910" as="geometry">
            <mxRectangle x="-1173" y="-240" width="180" height="30" as="alternateBounds" />
          </mxGeometry>
        </mxCell>
        <mxCell id="Ziy2RvUZ8rSOBJYL170Z-2" value="" style="fontFamily=Lucida Console;align=left;verticalAlign=top;fillColor=none;gradientColor=none;strokeColor=none;rounded=0;spacingLeft=4;resizable=0;movable=0;deletable=0;rotatable=0;autosize=1;comic=0;" parent="Ziy2RvUZ8rSOBJYL170Z-1" vertex="1" connectable="0">
          <mxGeometry y="30" width="50" height="40" as="geometry" />
        </mxCell>
        <mxCell id="Ziy2RvUZ8rSOBJYL170Z-3" value="Sate_Start_Carbonating" style="shape=swimlane;rotatable=0;align=center;verticalAlign=top;fontFamily=Lucida Console;startSize=30;fontSize=14;fontStyle=1;fontColor=#FAFAFA;fillColor=#545454;swimlaneFillColor=default;rounded=1;arcSize=15;absoluteArcSize=1;" parent="Ziy2RvUZ8rSOBJYL170Z-1" vertex="1">
          <mxGeometry x="65" y="100" width="300" height="160" as="geometry" />
        </mxCell>
        <mxCell id="Ziy2RvUZ8rSOBJYL170Z-4" value="enter / InitCarbonationOnly();&#xa;enter / ButtonsFunction(false);&#xa;enter / FadeInLeds(LEDS_all);&#xa;enter / FadeInAmbiantLight();&#xa;enter / StartCarbonationLedSequance();&#xa;enter / StartCarbonation();&#xa;enter / carbCycle = 0;&#xa;&#xa;" style="fontFamily=Lucida Console;align=left;verticalAlign=top;fillColor=none;gradientColor=none;strokeColor=none;rounded=0;spacingLeft=4;resizable=0;movable=0;deletable=0;rotatable=0;autosize=1;" parent="Ziy2RvUZ8rSOBJYL170Z-3" vertex="1" connectable="0">
          <mxGeometry y="30" width="300" height="130" as="geometry" />
        </mxCell>
        <mxCell id="Ziy2RvUZ8rSOBJYL170Z-6" value="$initial_state" style="shape=ellipse;aspect=fixed;fillColor=#000000;resizable=0;rotatable=0;noLabel=1;" parent="Ziy2RvUZ8rSOBJYL170Z-1" vertex="1">
          <mxGeometry x="203" y="37.5" width="25" height="25" as="geometry" />
        </mxCell>
        <mxCell id="Ziy2RvUZ8rSOBJYL170Z-7" value="Sate_Exit_Carbonating" style="shape=swimlane;rotatable=0;align=center;verticalAlign=top;fontFamily=Lucida Console;startSize=30;fontSize=14;fontStyle=1;fontColor=#FAFAFA;fillColor=#545454;swimlaneFillColor=default;rounded=1;arcSize=15;absoluteArcSize=1;" parent="Ziy2RvUZ8rSOBJYL170Z-1" vertex="1">
          <mxGeometry x="91.5" y="777" width="244" height="90" as="geometry" />
        </mxCell>
        <mxCell id="Ziy2RvUZ8rSOBJYL170Z-8" value="exit / StopCarbonation();&#xa;exit / FadeOutAmbiantLight();&#xa;exit / FadeInLeds();" style="fontFamily=Lucida Console;align=left;verticalAlign=top;fillColor=none;gradientColor=none;strokeColor=none;rounded=0;spacingLeft=4;resizable=0;movable=0;deletable=0;rotatable=0;autosize=1;" parent="Ziy2RvUZ8rSOBJYL170Z-7" vertex="1" connectable="0">
          <mxGeometry y="30" width="240" height="60" as="geometry" />
        </mxCell>
        <mxCell id="Ziy2RvUZ8rSOBJYL170Z-9" value="Sate_Carbonating_on" style="shape=swimlane;rotatable=0;align=center;verticalAlign=top;fontFamily=Lucida Console;startSize=30;fontSize=14;fontStyle=1;fontColor=#FAFAFA;fillColor=#545454;swimlaneFillColor=default;rounded=1;arcSize=15;absoluteArcSize=1;" parent="Ziy2RvUZ8rSOBJYL170Z-1" vertex="1">
          <mxGeometry x="95.5" y="309" width="240" height="90" as="geometry" />
        </mxCell>
        <mxCell id="Ziy2RvUZ8rSOBJYL170Z-10" value="enter / StartCarbStageTimer();&#xa;enter / SolenoidPump(1);&#xa;&#xa;" style="fontFamily=Lucida Console;align=left;verticalAlign=top;fillColor=none;gradientColor=none;strokeColor=none;rounded=0;spacingLeft=4;resizable=0;movable=0;deletable=0;rotatable=0;autosize=1;" parent="Ziy2RvUZ8rSOBJYL170Z-9" vertex="1" connectable="0">
          <mxGeometry y="30" width="240" height="60" as="geometry" />
        </mxCell>
        <mxCell id="Ziy2RvUZ8rSOBJYL170Z-11" value="" style="endArrow=classic;html=1;rounded=1;exitX=1;exitY=0.5;exitDx=0;exitDy=0;entryX=1;entryY=0.5;entryDx=0;entryDy=0;strokeWidth=2;curved=0;" parent="Ziy2RvUZ8rSOBJYL170Z-1" source="Ziy2RvUZ8rSOBJYL170Z-13" target="Ziy2RvUZ8rSOBJYL170Z-9" edge="1">
          <mxGeometry width="50" height="50" relative="1" as="geometry">
            <mxPoint x="575.5" y="534" as="sourcePoint" />
            <mxPoint x="602" y="661" as="targetPoint" />
            <Array as="points">
              <mxPoint x="380" y="684" />
              <mxPoint x="380" y="354" />
            </Array>
          </mxGeometry>
        </mxCell>
        <mxCell id="Ziy2RvUZ8rSOBJYL170Z-12" value="else" style="edgeLabel;html=1;align=center;verticalAlign=middle;resizable=0;points=[];" parent="Ziy2RvUZ8rSOBJYL170Z-11" vertex="1" connectable="0">
          <mxGeometry x="-0.2477" y="3" relative="1" as="geometry">
            <mxPoint x="-55" y="71" as="offset" />
          </mxGeometry>
        </mxCell>
        <mxCell id="Ziy2RvUZ8rSOBJYL170Z-13" value="$choice" style="fontFamily=Lucida Console;align=center;verticalAlign=middle;shape=rhombus;rotatable=0;labelPosition=center;verticalLabelPosition=top;strokeWidth=1;fillColor=#FFFFFF;gradientColor=#d4d4d4cc;noLabel=1;" parent="Ziy2RvUZ8rSOBJYL170Z-1" vertex="1">
          <mxGeometry x="255.5" y="664" width="40" height="40" as="geometry" />
        </mxCell>
        <mxCell id="Ziy2RvUZ8rSOBJYL170Z-14" value="" style="endArrow=classic;html=1;rounded=0;exitX=0.75;exitY=1;exitDx=0;exitDy=0;strokeWidth=2;entryX=0.75;entryY=0;entryDx=0;entryDy=0;" parent="Ziy2RvUZ8rSOBJYL170Z-1" source="Ziy2RvUZ8rSOBJYL170Z-9" target="Ziy2RvUZ8rSOBJYL170Z-19" edge="1">
          <mxGeometry width="50" height="50" relative="1" as="geometry">
            <mxPoint x="303.5" y="587" as="sourcePoint" />
            <mxPoint x="237.5" y="507" as="targetPoint" />
          </mxGeometry>
        </mxCell>
        <mxCell id="Ziy2RvUZ8rSOBJYL170Z-18" value="[CarbonationOnCycleExpired(&lt;span style=&quot;font-family: &amp;quot;Lucida Console&amp;quot;; font-size: 12px; text-align: left; white-space-collapse: preserve; background-color: rgb(236, 236, 236);&quot;&gt;carbCycle&lt;/span&gt;)]" style="edgeLabel;html=1;align=center;verticalAlign=middle;resizable=0;points=[];" parent="Ziy2RvUZ8rSOBJYL170Z-14" vertex="1" connectable="0">
          <mxGeometry x="0.1101" y="-2" relative="1" as="geometry">
            <mxPoint x="-121" y="-1" as="offset" />
          </mxGeometry>
        </mxCell>
        <mxCell id="Ziy2RvUZ8rSOBJYL170Z-17" value="" style="endArrow=classic;html=1;rounded=0;exitX=0.5;exitY=1;exitDx=0;exitDy=0;entryX=0.5;entryY=0;entryDx=0;entryDy=0;strokeWidth=2;" parent="Ziy2RvUZ8rSOBJYL170Z-1" source="Ziy2RvUZ8rSOBJYL170Z-3" target="Ziy2RvUZ8rSOBJYL170Z-9" edge="1">
          <mxGeometry width="50" height="50" relative="1" as="geometry">
            <mxPoint x="385.5" y="387" as="sourcePoint" />
            <mxPoint x="385.5" y="423" as="targetPoint" />
          </mxGeometry>
        </mxCell>
        <mxCell id="Ziy2RvUZ8rSOBJYL170Z-19" value="Sate_Carbonating_off" style="shape=swimlane;rotatable=0;align=center;verticalAlign=top;fontFamily=Lucida Console;startSize=30;fontSize=14;fontStyle=1;fontColor=#FAFAFA;fillColor=#545454;swimlaneFillColor=default;rounded=1;arcSize=15;absoluteArcSize=1;" parent="Ziy2RvUZ8rSOBJYL170Z-1" vertex="1">
          <mxGeometry x="93.5" y="496" width="242" height="90" as="geometry" />
        </mxCell>
        <mxCell id="Ziy2RvUZ8rSOBJYL170Z-20" value="enter / StartCarbStageTimer();&#xa;enter/ SolenoidPump(0);&#xa;exit / carbCycle++;" style="fontFamily=Lucida Console;align=left;verticalAlign=top;fillColor=none;gradientColor=none;strokeColor=none;rounded=0;spacingLeft=4;resizable=0;movable=0;deletable=0;rotatable=0;autosize=1;" parent="Ziy2RvUZ8rSOBJYL170Z-19" vertex="1" connectable="0">
          <mxGeometry y="30" width="240" height="60" as="geometry" />
        </mxCell>
        <mxCell id="Ziy2RvUZ8rSOBJYL170Z-21" value="" style="endArrow=classic;html=1;rounded=0;exitX=0.5;exitY=1;exitDx=0;exitDy=0;strokeWidth=2;entryX=0.75;entryY=0;entryDx=0;entryDy=0;" parent="Ziy2RvUZ8rSOBJYL170Z-1" source="Ziy2RvUZ8rSOBJYL170Z-13" target="Ziy2RvUZ8rSOBJYL170Z-7" edge="1">
          <mxGeometry width="50" height="50" relative="1" as="geometry">
            <mxPoint x="245.5" y="377" as="sourcePoint" />
            <mxPoint x="635.5" y="497" as="targetPoint" />
          </mxGeometry>
        </mxCell>
        <mxCell id="Ziy2RvUZ8rSOBJYL170Z-22" value="[IsCarbonationLastCycle(&lt;span style=&quot;font-family: &amp;quot;Lucida Console&amp;quot;; font-size: 12px; text-align: left; white-space-collapse: preserve; background-color: rgb(236, 236, 236);&quot;&gt;carbCycle&lt;/span&gt;)]" style="edgeLabel;html=1;align=center;verticalAlign=middle;resizable=0;points=[];" parent="Ziy2RvUZ8rSOBJYL170Z-21" vertex="1" connectable="0">
          <mxGeometry x="-0.1888" y="-1" relative="1" as="geometry">
            <mxPoint x="-112" y="3" as="offset" />
          </mxGeometry>
        </mxCell>
        <mxCell id="Rf4dp08FKO80o1ohKAaU-1" value="" style="endArrow=classic;html=1;rounded=0;strokeWidth=2;entryX=0.5;entryY=0;entryDx=0;entryDy=0;exitX=0.75;exitY=1;exitDx=0;exitDy=0;" parent="Ziy2RvUZ8rSOBJYL170Z-1" source="Ziy2RvUZ8rSOBJYL170Z-19" target="Ziy2RvUZ8rSOBJYL170Z-13" edge="1">
          <mxGeometry width="50" height="50" relative="1" as="geometry">
            <mxPoint x="485.5" y="517" as="sourcePoint" />
            <mxPoint x="425.5" y="522" as="targetPoint" />
            <Array as="points" />
          </mxGeometry>
        </mxCell>
        <mxCell id="Rf4dp08FKO80o1ohKAaU-2" value="[CarbonationOffCycleExpired(&lt;span style=&quot;font-family: &amp;quot;Lucida Console&amp;quot;; font-size: 12px; text-align: left; white-space-collapse: preserve; background-color: rgb(236, 236, 236);&quot;&gt;carbCycle&lt;/span&gt;)]" style="edgeLabel;html=1;align=center;verticalAlign=middle;resizable=0;points=[];" parent="Rf4dp08FKO80o1ohKAaU-1" vertex="1" connectable="0">
          <mxGeometry x="0.1101" y="-2" relative="1" as="geometry">
            <mxPoint x="-121" y="5" as="offset" />
          </mxGeometry>
        </mxCell>
        <mxCell id="Rf4dp08FKO80o1ohKAaU-8" value="" style="endArrow=classic;html=1;rounded=0;strokeWidth=2;exitX=0.5;exitY=1;exitDx=0;exitDy=0;entryX=0.5;entryY=0;entryDx=0;entryDy=0;" parent="Ziy2RvUZ8rSOBJYL170Z-1" source="Ziy2RvUZ8rSOBJYL170Z-6" target="Ziy2RvUZ8rSOBJYL170Z-3" edge="1">
          <mxGeometry width="50" height="50" relative="1" as="geometry">
            <mxPoint x="147" y="-138" as="sourcePoint" />
            <mxPoint x="142" y="227" as="targetPoint" />
          </mxGeometry>
        </mxCell>
        <mxCell id="qZF7NaJGXNpq08xq_DYa-62" value="" style="endArrow=classic;html=1;rounded=1;exitX=1;exitY=0.5;exitDx=0;exitDy=0;entryX=0.5;entryY=1;entryDx=0;entryDy=0;entryPerimeter=0;strokeWidth=2;curved=0;" parent="qZF7NaJGXNpq08xq_DYa-5" source="Ziy2RvUZ8rSOBJYL170Z-7" target="qZF7NaJGXNpq08xq_DYa-19" edge="1">
          <mxGeometry width="50" height="50" relative="1" as="geometry">
            <mxPoint x="1048.5" y="1207.5" as="sourcePoint" />
            <mxPoint x="1417.5" y="1158" as="targetPoint" />
            <Array as="points">
              <mxPoint x="1640" y="1160" />
              <mxPoint x="1635.5" y="608" />
              <mxPoint x="907.5" y="608" />
            </Array>
          </mxGeometry>
        </mxCell>
        <mxCell id="Rf4dp08FKO80o1ohKAaU-11" value="" style="endArrow=classic;html=1;rounded=1;exitX=1;exitY=1;exitDx=0;exitDy=0;strokeWidth=2;curved=0;entryX=0.25;entryY=1;entryDx=0;entryDy=0;" parent="qZF7NaJGXNpq08xq_DYa-5" source="qZF7NaJGXNpq08xq_DYa-47" target="qZF7NaJGXNpq08xq_DYa-41" edge="1">
          <mxGeometry width="50" height="50" relative="1" as="geometry">
            <mxPoint x="1246" y="933" as="sourcePoint" />
            <mxPoint x="1550" y="907" as="targetPoint" />
            <Array as="points">
              <mxPoint x="1353" y="890" />
            </Array>
          </mxGeometry>
        </mxCell>
        <mxCell id="Rf4dp08FKO80o1ohKAaU-12" value="Event_LongPressWaterFilter" style="edgeLabel;html=1;align=center;verticalAlign=middle;resizable=0;points=[];" parent="Rf4dp08FKO80o1ohKAaU-11" vertex="1" connectable="0">
          <mxGeometry x="-0.1028" y="-3" relative="1" as="geometry">
            <mxPoint x="-65" y="9" as="offset" />
          </mxGeometry>
        </mxCell>
        <mxCell id="qZF7NaJGXNpq08xq_DYa-69" value="" style="endArrow=classic;html=1;rounded=1;exitX=0.75;exitY=1;exitDx=0;exitDy=0;entryX=0.5;entryY=0;entryDx=0;entryDy=0;strokeWidth=2;curved=0;strokeColor=#FF0000;" parent="1" source="qZF7NaJGXNpq08xq_DYa-5" target="qZF7NaJGXNpq08xq_DYa-3" edge="1">
          <mxGeometry width="50" height="50" relative="1" as="geometry">
            <mxPoint x="280" y="-1749" as="sourcePoint" />
            <mxPoint x="320" y="-1871" as="targetPoint" />
          </mxGeometry>
        </mxCell>
        <mxCell id="qZF7NaJGXNpq08xq_DYa-70" value="Event_TiltDetected" style="edgeLabel;html=1;align=center;verticalAlign=middle;resizable=0;points=[];" parent="qZF7NaJGXNpq08xq_DYa-69" vertex="1" connectable="0">
          <mxGeometry x="0.0585" y="-4" relative="1" as="geometry">
            <mxPoint x="54" y="-1" as="offset" />
          </mxGeometry>
        </mxCell>
        <mxCell id="qZF7NaJGXNpq08xq_DYa-71" value="" style="endArrow=classic;html=1;rounded=1;entryX=0.5;entryY=0;entryDx=0;entryDy=0;strokeWidth=2;curved=0;strokeColor=#FF0000;exitX=0.5;exitY=1;exitDx=0;exitDy=0;" parent="1" source="qZF7NaJGXNpq08xq_DYa-5" target="qZF7NaJGXNpq08xq_DYa-79" edge="1">
          <mxGeometry width="50" height="50" relative="1" as="geometry">
            <mxPoint x="-750" y="-670" as="sourcePoint" />
            <mxPoint x="170" y="-1619" as="targetPoint" />
          </mxGeometry>
        </mxCell>
        <mxCell id="qZF7NaJGXNpq08xq_DYa-72" value="Event_HWWatchdog" style="edgeLabel;html=1;align=center;verticalAlign=middle;resizable=0;points=[];" parent="qZF7NaJGXNpq08xq_DYa-71" vertex="1" connectable="0">
          <mxGeometry x="-0.4892" y="1" relative="1" as="geometry">
            <mxPoint x="58" y="-26" as="offset" />
          </mxGeometry>
        </mxCell>
        <mxCell id="qZF7NaJGXNpq08xq_DYa-73" value="Sate_SafetyFail" style="shape=swimlane;rotatable=0;align=center;verticalAlign=top;fontFamily=Lucida Console;startSize=30;fontSize=14;fontStyle=1;fillColor=#a20025;swimlaneFillColor=default;rounded=1;arcSize=15;absoluteArcSize=1;strokeColor=#6F0000;fontColor=#ffffff;" parent="1" vertex="1">
          <mxGeometry x="-1447" y="-470" width="310" height="120" as="geometry" />
        </mxCell>
        <mxCell id="qZF7NaJGXNpq08xq_DYa-74" value="enter / StopWaterPump();&#xa;enter / StopUVLed();&#xa;enter / StopCarbonation();&#xa;enter / StartMalfunctionLedsSequence();&#xa;enter / FadeOutAmbiantLight();&#xa;" style="fontFamily=Lucida Console;align=left;verticalAlign=top;fillColor=none;gradientColor=none;strokeColor=none;rounded=0;spacingLeft=4;resizable=0;movable=0;deletable=0;rotatable=0;autosize=1;" parent="qZF7NaJGXNpq08xq_DYa-73" vertex="1" connectable="0">
          <mxGeometry y="30" width="310" height="90" as="geometry" />
        </mxCell>
        <mxCell id="qZF7NaJGXNpq08xq_DYa-75" value="" style="endArrow=classic;html=1;rounded=1;entryX=0.5;entryY=0;entryDx=0;entryDy=0;strokeWidth=2;curved=0;strokeColor=#FF0000;exitX=0.25;exitY=1;exitDx=0;exitDy=0;" parent="1" source="qZF7NaJGXNpq08xq_DYa-5" target="qZF7NaJGXNpq08xq_DYa-73" edge="1">
          <mxGeometry width="50" height="50" relative="1" as="geometry">
            <mxPoint x="-1380" y="-730" as="sourcePoint" />
            <mxPoint x="247" y="-1444" as="targetPoint" />
          </mxGeometry>
        </mxCell>
        <mxCell id="qZF7NaJGXNpq08xq_DYa-76" value="Event_SafetyFail" style="edgeLabel;html=1;align=center;verticalAlign=middle;resizable=0;points=[];" parent="qZF7NaJGXNpq08xq_DYa-75" vertex="1" connectable="0">
          <mxGeometry x="-0.4892" y="1" relative="1" as="geometry">
            <mxPoint x="52" y="-70" as="offset" />
          </mxGeometry>
        </mxCell>
        <mxCell id="qZF7NaJGXNpq08xq_DYa-77" style="rounded=0;orthogonalLoop=1;jettySize=auto;html=1;entryX=0.5;entryY=0;entryDx=0;entryDy=0;exitX=0.5;exitY=1;exitDx=0;exitDy=0;" parent="1" source="qZF7NaJGXNpq08xq_DYa-78" target="qZF7NaJGXNpq08xq_DYa-5" edge="1">
          <mxGeometry relative="1" as="geometry">
            <mxPoint x="-535.5" y="-2217" as="targetPoint" />
            <mxPoint x="130.5" y="-2579" as="sourcePoint" />
          </mxGeometry>
        </mxCell>
        <mxCell id="qZF7NaJGXNpq08xq_DYa-78" value="$initial_state" style="shape=ellipse;aspect=fixed;fillColor=#000000;resizable=0;rotatable=0;noLabel=1;" parent="1" vertex="1">
          <mxGeometry x="-857.5" y="-2250" width="25" height="25" as="geometry" />
        </mxCell>
        <mxCell id="qZF7NaJGXNpq08xq_DYa-79" value="Sate_HWWatchdog" style="shape=swimlane;rotatable=0;align=center;verticalAlign=top;fontFamily=Lucida Console;startSize=30;fontSize=14;fontStyle=1;fillColor=#a20025;swimlaneFillColor=default;rounded=1;arcSize=15;absoluteArcSize=1;strokeColor=#6F0000;fontColor=#ffffff;" parent="1" vertex="1">
          <mxGeometry x="-1000" y="-640" width="310" height="120" as="geometry" />
        </mxCell>
        <mxCell id="qZF7NaJGXNpq08xq_DYa-80" value="enter / StopWaterPump();&#xa;enter / StopUVLed();&#xa;enter / StopCarbonation();&#xa;enter / StartMalfunctionLedsSequence();&#xa;enter / FadeOutAmbiantLight();&#xa;" style="fontFamily=Lucida Console;align=left;verticalAlign=top;fillColor=none;gradientColor=none;strokeColor=none;rounded=0;spacingLeft=4;resizable=0;movable=0;deletable=0;rotatable=0;autosize=1;" parent="qZF7NaJGXNpq08xq_DYa-79" vertex="1" connectable="0">
          <mxGeometry y="30" width="310" height="90" as="geometry" />
        </mxCell>
        <mxCell id="qZF7NaJGXNpq08xq_DYa-81" value="" style="endArrow=classic;html=1;rounded=1;entryX=0.75;entryY=0;entryDx=0;entryDy=0;strokeWidth=2;curved=0;strokeColor=#FF0000;exitX=0;exitY=0.5;exitDx=0;exitDy=0;" parent="1" source="qZF7NaJGXNpq08xq_DYa-3" target="qZF7NaJGXNpq08xq_DYa-79" edge="1">
          <mxGeometry width="50" height="50" relative="1" as="geometry">
            <mxPoint x="-798" y="-850" as="sourcePoint" />
            <mxPoint x="-798" y="-750" as="targetPoint" />
            <Array as="points">
              <mxPoint x="-767" y="-740" />
            </Array>
          </mxGeometry>
        </mxCell>
        <mxCell id="qZF7NaJGXNpq08xq_DYa-82" value="Event_HWWatchdog" style="edgeLabel;html=1;align=center;verticalAlign=middle;resizable=0;points=[];" parent="qZF7NaJGXNpq08xq_DYa-81" vertex="1" connectable="0">
          <mxGeometry x="-0.4892" y="1" relative="1" as="geometry">
            <mxPoint x="-4" y="-12" as="offset" />
          </mxGeometry>
        </mxCell>
        <mxCell id="qZF7NaJGXNpq08xq_DYa-83" value="" style="endArrow=classic;html=1;rounded=1;entryX=1;entryY=0.5;entryDx=0;entryDy=0;strokeWidth=2;curved=0;strokeColor=#FF0000;exitX=0.5;exitY=1;exitDx=0;exitDy=0;" parent="1" source="qZF7NaJGXNpq08xq_DYa-3" target="qZF7NaJGXNpq08xq_DYa-73" edge="1">
          <mxGeometry width="50" height="50" relative="1" as="geometry">
            <mxPoint x="-1223" y="-850" as="sourcePoint" />
            <mxPoint x="-1223" y="-750" as="targetPoint" />
            <Array as="points">
              <mxPoint x="-400" y="-410" />
            </Array>
          </mxGeometry>
        </mxCell>
        <mxCell id="qZF7NaJGXNpq08xq_DYa-84" value="Event_SafetyFail" style="edgeLabel;html=1;align=center;verticalAlign=middle;resizable=0;points=[];" parent="qZF7NaJGXNpq08xq_DYa-83" vertex="1" connectable="0">
          <mxGeometry x="-0.4892" y="1" relative="1" as="geometry">
            <mxPoint x="49" y="-206" as="offset" />
          </mxGeometry>
        </mxCell>
        <mxCell id="qZF7NaJGXNpq08xq_DYa-85" value="" style="endArrow=classic;html=1;rounded=1;exitX=0.5;exitY=0;exitDx=0;exitDy=0;curved=0;strokeWidth=2;entryX=0.688;entryY=0.242;entryDx=0;entryDy=0;entryPerimeter=0;" parent="1" source="xrPZHYSDsRcvSJWtpVY2-65" target="qZF7NaJGXNpq08xq_DYa-18" edge="1">
          <mxGeometry width="50" height="50" relative="1" as="geometry">
            <mxPoint x="-200" y="-750" as="sourcePoint" />
            <mxPoint x="-1080" y="-1860" as="targetPoint" />
            <Array as="points">
              <mxPoint y="-2010" />
              <mxPoint x="-820" y="-2010" />
              <mxPoint x="-820" y="-1860" />
              <mxPoint x="-940" y="-1860" />
            </Array>
          </mxGeometry>
        </mxCell>
        <mxCell id="xrPZHYSDsRcvSJWtpVY2-68" value="else" style="edgeLabel;html=1;align=center;verticalAlign=middle;resizable=0;points=[];" parent="qZF7NaJGXNpq08xq_DYa-85" vertex="1" connectable="0">
          <mxGeometry x="-0.9587" y="-1" relative="1" as="geometry">
            <mxPoint x="19" y="17" as="offset" />
          </mxGeometry>
        </mxCell>
        <mxCell id="LLs0oU2OwJy1c8PUdmSR-1" value="&lt;b&gt;$NOTES&lt;/b&gt;&lt;br&gt;All buttons are disabled in error states." style="shape=rectangle;rounded=1;arcSize=15;absoluteArcSize=1;align=left;verticalAlign=top;whiteSpace=wrap;html=1;spacingLeft=4;strokeWidth=1;strokeColor=default;fillColor=#fff2cc;fontColor=#000000;gradientColor=#ffd966;" parent="1" vertex="1">
          <mxGeometry x="-1140" y="-750" width="220" height="40" as="geometry" />
        </mxCell>
        <mxCell id="-a6E0XnCvzOEeAQh_3vd-1" value="Stat_GUIControlMode" style="shape=swimlane;rotatable=0;align=center;verticalAlign=top;fontFamily=Lucida Console;startSize=30;fontSize=14;fontStyle=1;fontColor=#FAFAFA;fillColor=#545454;swimlaneFillColor=default;rounded=1;arcSize=15;absoluteArcSize=1;points=[[0,0,0,0,0],[0,0.25,0,0,0],[0,0.5,0,0,0],[0,0.75,0,0,0],[0,1,0,0,0],[0.2,1,0,0,0],[0.25,0,0,0,0],[0.25,1,0,0,0],[0.4,1,0,0,0],[0.5,0,0,0,0],[0.5,1,0,0,0],[0.6,1,0,0,0],[0.75,0,0,0,0],[0.75,1,0,0,0],[0.8,1,0,0,0],[1,0,0,0,0],[1,0.25,0,0,0],[1,0.5,0,0,0],[1,0.75,0,0,0],[1,1,0,0,0]];" parent="1" vertex="1">
          <mxGeometry x="311" y="-2209" width="1260" height="1350" as="geometry">
            <mxRectangle x="311" y="-2209" width="200" height="30" as="alternateBounds" />
          </mxGeometry>
        </mxCell>
        <mxCell id="-a6E0XnCvzOEeAQh_3vd-2" value=" " style="fontFamily=Lucida Console;align=left;verticalAlign=top;fillColor=none;gradientColor=none;strokeColor=none;rounded=0;spacingLeft=4;resizable=0;movable=0;deletable=0;rotatable=0;autosize=1;" parent="-a6E0XnCvzOEeAQh_3vd-1" vertex="1" connectable="0">
          <mxGeometry y="30" width="30" height="20" as="geometry" />
        </mxCell>
        <mxCell id="-a6E0XnCvzOEeAQh_3vd-3" value="$initial_state" style="shape=ellipse;aspect=fixed;fillColor=#000000;resizable=1;rotatable=1;noLabel=1;editable=1;movable=1;deletable=1;locked=0;connectable=1;" parent="-a6E0XnCvzOEeAQh_3vd-1" vertex="1">
          <mxGeometry x="617.5" y="40" width="25" height="25" as="geometry" />
        </mxCell>
        <mxCell id="-a6E0XnCvzOEeAQh_3vd-4" value="State_InitGuiMode" style="shape=swimlane;rotatable=0;align=center;verticalAlign=top;fontFamily=Lucida Console;startSize=30;fontSize=14;fontStyle=1;fontColor=#FAFAFA;fillColor=#545454;swimlaneFillColor=default;rounded=1;arcSize=15;absoluteArcSize=1;" parent="-a6E0XnCvzOEeAQh_3vd-1" vertex="1">
          <mxGeometry x="505" y="110" width="250" height="110" as="geometry" />
        </mxCell>
        <mxCell id="-a6E0XnCvzOEeAQh_3vd-5" value="enter / StopWaterPump();&#xa;enter / StopUVLed();&#xa;enter / LedsOff(LEDS_all);&#xa;" style="fontFamily=Lucida Console;align=left;verticalAlign=top;fillColor=none;gradientColor=none;strokeColor=none;rounded=0;spacingLeft=4;resizable=0;movable=0;deletable=0;rotatable=0;autosize=1;" parent="-a6E0XnCvzOEeAQh_3vd-4" vertex="1" connectable="0">
          <mxGeometry y="30" width="210" height="60" as="geometry" />
        </mxCell>
        <mxCell id="-a6E0XnCvzOEeAQh_3vd-6" value="State_GuiModeWaitCommands" style="shape=swimlane;rotatable=0;align=center;verticalAlign=top;fontFamily=Lucida Console;startSize=30;fontSize=14;fontStyle=1;fontColor=#FAFAFA;fillColor=#545454;swimlaneFillColor=default;rounded=1;arcSize=15;absoluteArcSize=1;" parent="-a6E0XnCvzOEeAQh_3vd-1" vertex="1">
          <mxGeometry x="505" y="260" width="250" height="90" as="geometry" />
        </mxCell>
        <mxCell id="-a6E0XnCvzOEeAQh_3vd-7" value="" style="fontFamily=Lucida Console;align=left;verticalAlign=top;fillColor=none;gradientColor=none;strokeColor=none;rounded=0;spacingLeft=4;resizable=0;movable=0;deletable=0;rotatable=0;autosize=1;" parent="-a6E0XnCvzOEeAQh_3vd-6" vertex="1" connectable="0">
          <mxGeometry y="30" width="50" height="40" as="geometry" />
        </mxCell>
        <mxCell id="-a6E0XnCvzOEeAQh_3vd-8" style="rounded=0;" parent="-a6E0XnCvzOEeAQh_3vd-1" source="-a6E0XnCvzOEeAQh_3vd-3" target="-a6E0XnCvzOEeAQh_3vd-4" edge="1">
          <mxGeometry relative="1" as="geometry" />
        </mxCell>
        <mxCell id="-a6E0XnCvzOEeAQh_3vd-9" style="rounded=0;" parent="-a6E0XnCvzOEeAQh_3vd-1" source="-a6E0XnCvzOEeAQh_3vd-4" target="-a6E0XnCvzOEeAQh_3vd-6" edge="1">
          <mxGeometry relative="1" as="geometry" />
        </mxCell>
        <mxCell id="-a6E0XnCvzOEeAQh_3vd-21" value="" style="endArrow=classic;html=1;rounded=1;exitX=0;exitY=0.5;exitDx=0;exitDy=0;entryX=0;entryY=0.5;entryDx=0;entryDy=0;strokeWidth=2;curved=0;" parent="-a6E0XnCvzOEeAQh_3vd-1" source="-a6E0XnCvzOEeAQh_3vd-6" target="-a6E0XnCvzOEeAQh_3vd-17" edge="1">
          <mxGeometry width="50" height="50" relative="1" as="geometry">
            <mxPoint x="320" y="320" as="sourcePoint" />
            <mxPoint x="370" y="270" as="targetPoint" />
            <Array as="points">
              <mxPoint x="50" y="305" />
              <mxPoint x="50" y="490" />
            </Array>
          </mxGeometry>
        </mxCell>
        <mxCell id="-a6E0XnCvzOEeAQh_3vd-23" value="Event_SolendoidPumpPowerOn" style="edgeLabel;html=1;align=center;verticalAlign=middle;resizable=0;points=[];" parent="-a6E0XnCvzOEeAQh_3vd-21" vertex="1" connectable="0">
          <mxGeometry x="0.1047" y="3" relative="1" as="geometry">
            <mxPoint x="107" y="150" as="offset" />
          </mxGeometry>
        </mxCell>
        <mxCell id="-a6E0XnCvzOEeAQh_3vd-22" value="" style="endArrow=classic;html=1;rounded=1;exitX=0;exitY=0.5;exitDx=0;exitDy=0;entryX=0;entryY=0.5;entryDx=0;entryDy=0;strokeWidth=2;curved=0;" parent="-a6E0XnCvzOEeAQh_3vd-1" source="-a6E0XnCvzOEeAQh_3vd-6" target="-a6E0XnCvzOEeAQh_3vd-19" edge="1">
          <mxGeometry width="50" height="50" relative="1" as="geometry">
            <mxPoint x="280" y="540" as="sourcePoint" />
            <mxPoint x="330" y="490" as="targetPoint" />
            <Array as="points">
              <mxPoint x="50" y="305" />
              <mxPoint x="50" y="559" />
            </Array>
          </mxGeometry>
        </mxCell>
        <mxCell id="-a6E0XnCvzOEeAQh_3vd-24" value="Event_SolendoidPumpPowerOff" style="edgeLabel;html=1;align=center;verticalAlign=middle;resizable=0;points=[];" parent="-a6E0XnCvzOEeAQh_3vd-22" vertex="1" connectable="0">
          <mxGeometry x="0.1961" relative="1" as="geometry">
            <mxPoint x="110" y="143" as="offset" />
          </mxGeometry>
        </mxCell>
        <mxCell id="xrPZHYSDsRcvSJWtpVY2-1" value="State_CarbOn" style="shape=swimlane;rotatable=0;align=center;verticalAlign=top;fontFamily=Lucida Console;startSize=30;fontSize=14;fontStyle=1;fontColor=#FAFAFA;fillColor=#545454;swimlaneFillColor=default;rounded=1;arcSize=15;absoluteArcSize=1;" parent="-a6E0XnCvzOEeAQh_3vd-1" vertex="1">
          <mxGeometry x="255" y="619.24" width="250" height="60" as="geometry" />
        </mxCell>
        <mxCell id="xrPZHYSDsRcvSJWtpVY2-2" value="enter / SolenoidPump(1);" style="fontFamily=Lucida Console;align=left;verticalAlign=top;fillColor=none;gradientColor=none;strokeColor=none;rounded=0;spacingLeft=4;resizable=0;movable=0;deletable=0;rotatable=0;autosize=1;" parent="xrPZHYSDsRcvSJWtpVY2-1" vertex="1" connectable="0">
          <mxGeometry y="30" width="200" height="30" as="geometry" />
        </mxCell>
        <mxCell id="xrPZHYSDsRcvSJWtpVY2-3" value="State_CarbOff" style="shape=swimlane;rotatable=0;align=center;verticalAlign=top;fontFamily=Lucida Console;startSize=30;fontSize=14;fontStyle=1;fontColor=#FAFAFA;fillColor=#545454;swimlaneFillColor=default;rounded=1;arcSize=15;absoluteArcSize=1;" parent="-a6E0XnCvzOEeAQh_3vd-1" vertex="1">
          <mxGeometry x="255" y="689.24" width="250" height="60" as="geometry" />
        </mxCell>
        <mxCell id="xrPZHYSDsRcvSJWtpVY2-4" value="enter / SolenoidPump(0);" style="fontFamily=Lucida Console;align=left;verticalAlign=top;fillColor=none;gradientColor=none;strokeColor=none;rounded=0;spacingLeft=4;resizable=0;movable=0;deletable=0;rotatable=0;autosize=1;" parent="xrPZHYSDsRcvSJWtpVY2-3" vertex="1" connectable="0">
          <mxGeometry y="30" width="200" height="30" as="geometry" />
        </mxCell>
        <mxCell id="xrPZHYSDsRcvSJWtpVY2-6" value="State_WaterPumpOnNoSensor" style="shape=swimlane;rotatable=0;align=center;verticalAlign=top;fontFamily=Lucida Console;startSize=30;fontSize=14;fontStyle=1;fontColor=#FAFAFA;fillColor=#545454;swimlaneFillColor=default;rounded=1;arcSize=15;absoluteArcSize=1;" parent="-a6E0XnCvzOEeAQh_3vd-1" vertex="1">
          <mxGeometry x="255" y="775.24" width="270" height="70" as="geometry" />
        </mxCell>
        <mxCell id="xrPZHYSDsRcvSJWtpVY2-7" value="enter / pumpStopsOnSensor = false;&#xa;enter / StartWaterPump();" style="fontFamily=Lucida Console;align=left;verticalAlign=top;fillColor=none;gradientColor=none;strokeColor=none;rounded=0;spacingLeft=4;resizable=0;movable=0;deletable=0;rotatable=0;autosize=1;" parent="xrPZHYSDsRcvSJWtpVY2-6" vertex="1" connectable="0">
          <mxGeometry y="30" width="270" height="40" as="geometry" />
        </mxCell>
        <mxCell id="xrPZHYSDsRcvSJWtpVY2-10" value="State_WaterPumpOff" style="shape=swimlane;rotatable=0;align=center;verticalAlign=top;fontFamily=Lucida Console;startSize=30;fontSize=14;fontStyle=1;fontColor=#FAFAFA;fillColor=#545454;swimlaneFillColor=default;rounded=1;arcSize=15;absoluteArcSize=1;" parent="-a6E0XnCvzOEeAQh_3vd-1" vertex="1">
          <mxGeometry x="255" y="927.24" width="250" height="70" as="geometry" />
        </mxCell>
        <mxCell id="xrPZHYSDsRcvSJWtpVY2-11" value="enter / StopWaterPump();&#xa;enter / SendDonePumpOK();&#xa;" style="fontFamily=Lucida Console;align=left;verticalAlign=top;fillColor=none;gradientColor=none;strokeColor=none;rounded=0;spacingLeft=4;resizable=0;movable=0;deletable=0;rotatable=0;autosize=1;" parent="xrPZHYSDsRcvSJWtpVY2-10" vertex="1" connectable="0">
          <mxGeometry y="30" width="210" height="40" as="geometry" />
        </mxCell>
        <mxCell id="xrPZHYSDsRcvSJWtpVY2-8" value="State_WaterPumpOn" style="shape=swimlane;rotatable=0;align=center;verticalAlign=top;fontFamily=Lucida Console;startSize=30;fontSize=14;fontStyle=1;fontColor=#FAFAFA;fillColor=#545454;swimlaneFillColor=default;rounded=1;arcSize=15;absoluteArcSize=1;" parent="-a6E0XnCvzOEeAQh_3vd-1" vertex="1">
          <mxGeometry x="255" y="849.24" width="260" height="70" as="geometry" />
        </mxCell>
        <mxCell id="xrPZHYSDsRcvSJWtpVY2-9" value="enter / pumpStopsOnSensor = true;&#xa;enter / StartWaterPump();" style="fontFamily=Lucida Console;align=left;verticalAlign=top;fillColor=none;gradientColor=none;strokeColor=none;rounded=0;spacingLeft=4;resizable=0;movable=0;deletable=0;rotatable=0;autosize=1;" parent="xrPZHYSDsRcvSJWtpVY2-8" vertex="1" connectable="0">
          <mxGeometry y="30" width="260" height="40" as="geometry" />
        </mxCell>
        <mxCell id="-a6E0XnCvzOEeAQh_3vd-17" value="State_SolenoidPumpPowerOn" style="shape=swimlane;rotatable=0;align=center;verticalAlign=top;fontFamily=Lucida Console;startSize=30;fontSize=14;fontStyle=1;fontColor=#FAFAFA;fillColor=#545454;swimlaneFillColor=default;rounded=1;arcSize=15;absoluteArcSize=1;" parent="-a6E0XnCvzOEeAQh_3vd-1" vertex="1">
          <mxGeometry x="255" y="459.24" width="250" height="60" as="geometry" />
        </mxCell>
        <mxCell id="-a6E0XnCvzOEeAQh_3vd-18" value="enter / SolenoidPumpUVPower(1);" style="fontFamily=Lucida Console;align=left;verticalAlign=top;fillColor=none;gradientColor=none;strokeColor=none;rounded=0;spacingLeft=4;resizable=0;movable=0;deletable=0;rotatable=0;autosize=1;" parent="-a6E0XnCvzOEeAQh_3vd-17" vertex="1" connectable="0">
          <mxGeometry y="30" width="250" height="30" as="geometry" />
        </mxCell>
        <mxCell id="-a6E0XnCvzOEeAQh_3vd-19" value="State_SolenoidPumpPowerOff" style="shape=swimlane;rotatable=0;align=center;verticalAlign=top;fontFamily=Lucida Console;startSize=30;fontSize=14;fontStyle=1;fontColor=#FAFAFA;fillColor=#545454;swimlaneFillColor=default;rounded=1;arcSize=15;absoluteArcSize=1;" parent="-a6E0XnCvzOEeAQh_3vd-1" vertex="1">
          <mxGeometry x="255" y="529.24" width="250" height="60" as="geometry" />
        </mxCell>
        <mxCell id="-a6E0XnCvzOEeAQh_3vd-20" value="enter / SolenoidPumpUVPower(0);" style="fontFamily=Lucida Console;align=left;verticalAlign=top;fillColor=none;gradientColor=none;strokeColor=none;rounded=0;spacingLeft=4;resizable=0;movable=0;deletable=0;rotatable=0;autosize=1;" parent="-a6E0XnCvzOEeAQh_3vd-19" vertex="1" connectable="0">
          <mxGeometry y="30" width="250" height="30" as="geometry" />
        </mxCell>
        <mxCell id="SqZfNurT66y6oRBRSTvd-3" value="State_UVLedOn" style="shape=swimlane;rotatable=0;align=center;verticalAlign=top;fontFamily=Lucida Console;startSize=30;fontSize=14;fontStyle=1;fontColor=#FAFAFA;fillColor=#545454;swimlaneFillColor=default;rounded=1;arcSize=15;absoluteArcSize=1;" parent="-a6E0XnCvzOEeAQh_3vd-1" vertex="1">
          <mxGeometry x="755" y="460" width="250" height="60" as="geometry" />
        </mxCell>
        <mxCell id="SqZfNurT66y6oRBRSTvd-4" value="enter / StartUVLEd();" style="fontFamily=Lucida Console;align=left;verticalAlign=top;fillColor=none;gradientColor=none;strokeColor=none;rounded=0;spacingLeft=4;resizable=0;movable=0;deletable=0;rotatable=0;autosize=1;" parent="SqZfNurT66y6oRBRSTvd-3" vertex="1" connectable="0">
          <mxGeometry y="30" width="180" height="30" as="geometry" />
        </mxCell>
        <mxCell id="SqZfNurT66y6oRBRSTvd-5" value="State_UVLedOff" style="shape=swimlane;rotatable=0;align=center;verticalAlign=top;fontFamily=Lucida Console;startSize=30;fontSize=14;fontStyle=1;fontColor=#FAFAFA;fillColor=#545454;swimlaneFillColor=default;rounded=1;arcSize=15;absoluteArcSize=1;" parent="-a6E0XnCvzOEeAQh_3vd-1" vertex="1">
          <mxGeometry x="755" y="530" width="250" height="60" as="geometry" />
        </mxCell>
        <mxCell id="SqZfNurT66y6oRBRSTvd-6" value="enter / StopUVLed();" style="fontFamily=Lucida Console;align=left;verticalAlign=top;fillColor=none;gradientColor=none;strokeColor=none;rounded=0;spacingLeft=4;resizable=0;movable=0;deletable=0;rotatable=0;autosize=1;" parent="SqZfNurT66y6oRBRSTvd-5" vertex="1" connectable="0">
          <mxGeometry y="30" width="170" height="30" as="geometry" />
        </mxCell>
        <mxCell id="xrPZHYSDsRcvSJWtpVY2-78" value="" style="endArrow=classic;html=1;rounded=1;exitX=0;exitY=0.5;exitDx=0;exitDy=0;entryX=0;entryY=0.5;entryDx=0;entryDy=0;strokeWidth=2;curved=0;" parent="-a6E0XnCvzOEeAQh_3vd-1" source="-a6E0XnCvzOEeAQh_3vd-6" target="xrPZHYSDsRcvSJWtpVY2-1" edge="1">
          <mxGeometry width="50" height="50" relative="1" as="geometry">
            <mxPoint x="510" y="390" as="sourcePoint" />
            <mxPoint x="640" y="440" as="targetPoint" />
            <Array as="points">
              <mxPoint x="50" y="305" />
              <mxPoint x="50" y="650" />
            </Array>
          </mxGeometry>
        </mxCell>
        <mxCell id="xrPZHYSDsRcvSJWtpVY2-107" value="Event_CarbOn" style="edgeLabel;html=1;align=center;verticalAlign=middle;resizable=0;points=[];" parent="xrPZHYSDsRcvSJWtpVY2-78" vertex="1" connectable="0">
          <mxGeometry x="0.8121" y="2" relative="1" as="geometry">
            <mxPoint y="-8" as="offset" />
          </mxGeometry>
        </mxCell>
        <mxCell id="xrPZHYSDsRcvSJWtpVY2-79" value="" style="endArrow=classic;html=1;rounded=1;exitX=0;exitY=0.5;exitDx=0;exitDy=0;entryX=0;entryY=0.5;entryDx=0;entryDy=0;strokeWidth=2;curved=0;" parent="-a6E0XnCvzOEeAQh_3vd-1" source="-a6E0XnCvzOEeAQh_3vd-6" target="xrPZHYSDsRcvSJWtpVY2-3" edge="1">
          <mxGeometry width="50" height="50" relative="1" as="geometry">
            <mxPoint x="400" y="410" as="sourcePoint" />
            <mxPoint x="450" y="360" as="targetPoint" />
            <Array as="points">
              <mxPoint x="50" y="305" />
              <mxPoint x="50" y="720" />
            </Array>
          </mxGeometry>
        </mxCell>
        <mxCell id="xrPZHYSDsRcvSJWtpVY2-108" value="Event_CarbOff" style="edgeLabel;html=1;align=center;verticalAlign=middle;resizable=0;points=[];" parent="xrPZHYSDsRcvSJWtpVY2-79" vertex="1" connectable="0">
          <mxGeometry x="0.8057" y="1" relative="1" as="geometry">
            <mxPoint x="10" y="-9" as="offset" />
          </mxGeometry>
        </mxCell>
        <mxCell id="xrPZHYSDsRcvSJWtpVY2-80" value="" style="endArrow=classic;html=1;rounded=1;exitX=0;exitY=0.5;exitDx=0;exitDy=0;entryX=0;entryY=0.5;entryDx=0;entryDy=0;strokeWidth=2;curved=0;" parent="-a6E0XnCvzOEeAQh_3vd-1" source="-a6E0XnCvzOEeAQh_3vd-6" target="xrPZHYSDsRcvSJWtpVY2-6" edge="1">
          <mxGeometry width="50" height="50" relative="1" as="geometry">
            <mxPoint x="-170" y="450" as="sourcePoint" />
            <mxPoint x="-120" y="400" as="targetPoint" />
            <Array as="points">
              <mxPoint x="50" y="305" />
              <mxPoint x="50" y="810" />
            </Array>
          </mxGeometry>
        </mxCell>
        <mxCell id="xrPZHYSDsRcvSJWtpVY2-109" value="Event_WaterPumoOnNoSensor" style="edgeLabel;html=1;align=center;verticalAlign=middle;resizable=0;points=[];" parent="xrPZHYSDsRcvSJWtpVY2-80" vertex="1" connectable="0">
          <mxGeometry x="0.8607" y="-1" relative="1" as="geometry">
            <mxPoint x="-24" y="-11" as="offset" />
          </mxGeometry>
        </mxCell>
        <mxCell id="xrPZHYSDsRcvSJWtpVY2-81" value="" style="endArrow=classic;html=1;rounded=1;exitX=0;exitY=0.5;exitDx=0;exitDy=0;entryX=0;entryY=0.5;entryDx=0;entryDy=0;strokeWidth=2;curved=0;" parent="-a6E0XnCvzOEeAQh_3vd-1" source="-a6E0XnCvzOEeAQh_3vd-6" target="xrPZHYSDsRcvSJWtpVY2-8" edge="1">
          <mxGeometry width="50" height="50" relative="1" as="geometry">
            <mxPoint x="-190" y="250" as="sourcePoint" />
            <mxPoint x="-140" y="200" as="targetPoint" />
            <Array as="points">
              <mxPoint x="50" y="305" />
              <mxPoint x="50" y="884" />
            </Array>
          </mxGeometry>
        </mxCell>
        <mxCell id="xrPZHYSDsRcvSJWtpVY2-110" value="Event_WarePumpOn" style="edgeLabel;html=1;align=center;verticalAlign=middle;resizable=0;points=[];" parent="xrPZHYSDsRcvSJWtpVY2-81" vertex="1" connectable="0">
          <mxGeometry x="0.8822" y="4" relative="1" as="geometry">
            <mxPoint x="-32" y="-10" as="offset" />
          </mxGeometry>
        </mxCell>
        <mxCell id="xrPZHYSDsRcvSJWtpVY2-82" value="" style="endArrow=classic;html=1;rounded=1;exitX=0;exitY=0.5;exitDx=0;exitDy=0;entryX=0;entryY=0.5;entryDx=0;entryDy=0;strokeWidth=2;curved=0;" parent="-a6E0XnCvzOEeAQh_3vd-1" source="-a6E0XnCvzOEeAQh_3vd-6" target="xrPZHYSDsRcvSJWtpVY2-10" edge="1">
          <mxGeometry width="50" height="50" relative="1" as="geometry">
            <mxPoint x="-100" y="190" as="sourcePoint" />
            <mxPoint x="-50" y="140" as="targetPoint" />
            <Array as="points">
              <mxPoint x="50" y="305" />
              <mxPoint x="50" y="960" />
            </Array>
          </mxGeometry>
        </mxCell>
        <mxCell id="xrPZHYSDsRcvSJWtpVY2-111" value="Event_WaterPumpOff" style="edgeLabel;html=1;align=center;verticalAlign=middle;resizable=0;points=[];" parent="xrPZHYSDsRcvSJWtpVY2-82" vertex="1" connectable="0">
          <mxGeometry x="0.8757" y="2" relative="1" as="geometry">
            <mxPoint x="-24" y="-8" as="offset" />
          </mxGeometry>
        </mxCell>
        <mxCell id="xrPZHYSDsRcvSJWtpVY2-83" value="" style="endArrow=classic;html=1;rounded=1;exitX=1;exitY=0.5;exitDx=0;exitDy=0;entryX=0.25;entryY=1;entryDx=0;entryDy=0;strokeWidth=2;curved=0;" parent="-a6E0XnCvzOEeAQh_3vd-1" source="-a6E0XnCvzOEeAQh_3vd-17" target="-a6E0XnCvzOEeAQh_3vd-6" edge="1">
          <mxGeometry width="50" height="50" relative="1" as="geometry">
            <mxPoint x="-180" y="150" as="sourcePoint" />
            <mxPoint x="-130" y="100" as="targetPoint" />
            <Array as="points">
              <mxPoint x="568" y="490" />
            </Array>
          </mxGeometry>
        </mxCell>
        <mxCell id="xrPZHYSDsRcvSJWtpVY2-84" value="" style="endArrow=classic;html=1;rounded=1;exitX=1;exitY=0.5;exitDx=0;exitDy=0;entryX=0.25;entryY=1;entryDx=0;entryDy=0;strokeWidth=2;curved=0;" parent="-a6E0XnCvzOEeAQh_3vd-1" source="-a6E0XnCvzOEeAQh_3vd-19" target="-a6E0XnCvzOEeAQh_3vd-6" edge="1">
          <mxGeometry width="50" height="50" relative="1" as="geometry">
            <mxPoint x="540" y="570" as="sourcePoint" />
            <mxPoint x="590" y="520" as="targetPoint" />
            <Array as="points">
              <mxPoint x="568" y="559" />
            </Array>
          </mxGeometry>
        </mxCell>
        <mxCell id="xrPZHYSDsRcvSJWtpVY2-85" value="" style="endArrow=classic;html=1;rounded=1;exitX=1;exitY=0.5;exitDx=0;exitDy=0;entryX=0.25;entryY=1;entryDx=0;entryDy=0;strokeWidth=2;curved=0;" parent="-a6E0XnCvzOEeAQh_3vd-1" source="xrPZHYSDsRcvSJWtpVY2-1" target="-a6E0XnCvzOEeAQh_3vd-6" edge="1">
          <mxGeometry width="50" height="50" relative="1" as="geometry">
            <mxPoint x="-280" y="160" as="sourcePoint" />
            <mxPoint x="-230" y="110" as="targetPoint" />
            <Array as="points">
              <mxPoint x="568" y="650" />
            </Array>
          </mxGeometry>
        </mxCell>
        <mxCell id="xrPZHYSDsRcvSJWtpVY2-86" value="" style="endArrow=classic;html=1;rounded=1;exitX=1;exitY=0.5;exitDx=0;exitDy=0;entryX=0.25;entryY=1;entryDx=0;entryDy=0;strokeWidth=2;curved=0;" parent="-a6E0XnCvzOEeAQh_3vd-1" source="xrPZHYSDsRcvSJWtpVY2-3" target="-a6E0XnCvzOEeAQh_3vd-6" edge="1">
          <mxGeometry width="50" height="50" relative="1" as="geometry">
            <mxPoint x="-200" y="190" as="sourcePoint" />
            <mxPoint x="570" y="360" as="targetPoint" />
            <Array as="points">
              <mxPoint x="570" y="719" />
            </Array>
          </mxGeometry>
        </mxCell>
        <mxCell id="xrPZHYSDsRcvSJWtpVY2-87" value="" style="endArrow=classic;html=1;rounded=1;exitX=1;exitY=0.5;exitDx=0;exitDy=0;entryX=0.25;entryY=1;entryDx=0;entryDy=0;strokeWidth=2;curved=0;" parent="-a6E0XnCvzOEeAQh_3vd-1" source="xrPZHYSDsRcvSJWtpVY2-6" target="-a6E0XnCvzOEeAQh_3vd-6" edge="1">
          <mxGeometry width="50" height="50" relative="1" as="geometry">
            <mxPoint x="-210" y="850" as="sourcePoint" />
            <mxPoint x="-160" y="800" as="targetPoint" />
            <Array as="points">
              <mxPoint x="570" y="810" />
            </Array>
          </mxGeometry>
        </mxCell>
        <mxCell id="xrPZHYSDsRcvSJWtpVY2-88" value="" style="endArrow=classic;html=1;rounded=1;exitX=1;exitY=0.5;exitDx=0;exitDy=0;entryX=0.25;entryY=1;entryDx=0;entryDy=0;strokeWidth=2;curved=0;" parent="-a6E0XnCvzOEeAQh_3vd-1" source="xrPZHYSDsRcvSJWtpVY2-8" target="-a6E0XnCvzOEeAQh_3vd-6" edge="1">
          <mxGeometry width="50" height="50" relative="1" as="geometry">
            <mxPoint x="-140" y="210" as="sourcePoint" />
            <mxPoint x="-90" y="160" as="targetPoint" />
            <Array as="points">
              <mxPoint x="570" y="884" />
            </Array>
          </mxGeometry>
        </mxCell>
        <mxCell id="xrPZHYSDsRcvSJWtpVY2-89" value="" style="endArrow=classic;html=1;rounded=1;exitX=1;exitY=0.5;exitDx=0;exitDy=0;entryX=0.25;entryY=1;entryDx=0;entryDy=0;strokeWidth=2;curved=0;" parent="-a6E0XnCvzOEeAQh_3vd-1" source="xrPZHYSDsRcvSJWtpVY2-10" target="-a6E0XnCvzOEeAQh_3vd-6" edge="1">
          <mxGeometry width="50" height="50" relative="1" as="geometry">
            <mxPoint x="-190" y="220" as="sourcePoint" />
            <mxPoint x="-140" y="170" as="targetPoint" />
            <Array as="points">
              <mxPoint x="570" y="962" />
            </Array>
          </mxGeometry>
        </mxCell>
        <mxCell id="xrPZHYSDsRcvSJWtpVY2-96" value="" style="endArrow=classic;html=1;rounded=1;exitX=0;exitY=0.5;exitDx=0;exitDy=0;entryX=0.75;entryY=1;entryDx=0;entryDy=0;curved=0;strokeWidth=2;" parent="-a6E0XnCvzOEeAQh_3vd-1" source="SqZfNurT66y6oRBRSTvd-5" target="-a6E0XnCvzOEeAQh_3vd-6" edge="1">
          <mxGeometry width="50" height="50" relative="1" as="geometry">
            <mxPoint x="-230" y="210" as="sourcePoint" />
            <mxPoint x="-180" y="160" as="targetPoint" />
            <Array as="points">
              <mxPoint x="693" y="560" />
            </Array>
          </mxGeometry>
        </mxCell>
        <mxCell id="xrPZHYSDsRcvSJWtpVY2-97" value="" style="endArrow=classic;html=1;rounded=1;exitX=0;exitY=0.5;exitDx=0;exitDy=0;entryX=0.75;entryY=1;entryDx=0;entryDy=0;curved=0;strokeWidth=2;" parent="-a6E0XnCvzOEeAQh_3vd-1" source="SqZfNurT66y6oRBRSTvd-3" target="-a6E0XnCvzOEeAQh_3vd-6" edge="1">
          <mxGeometry width="50" height="50" relative="1" as="geometry">
            <mxPoint x="-200" y="240" as="sourcePoint" />
            <mxPoint x="-150" y="190" as="targetPoint" />
            <Array as="points">
              <mxPoint x="693" y="490" />
            </Array>
          </mxGeometry>
        </mxCell>
        <mxCell id="xrPZHYSDsRcvSJWtpVY2-99" value="" style="endArrow=classic;html=1;rounded=1;exitX=1;exitY=0.5;exitDx=0;exitDy=0;entryX=1;entryY=0.5;entryDx=0;entryDy=0;strokeWidth=2;curved=0;" parent="-a6E0XnCvzOEeAQh_3vd-1" source="-a6E0XnCvzOEeAQh_3vd-6" target="SqZfNurT66y6oRBRSTvd-3" edge="1">
          <mxGeometry width="50" height="50" relative="1" as="geometry">
            <mxPoint x="-180" y="220" as="sourcePoint" />
            <mxPoint x="-130" y="170" as="targetPoint" />
            <Array as="points">
              <mxPoint x="1230" y="305" />
              <mxPoint x="1230" y="490" />
            </Array>
          </mxGeometry>
        </mxCell>
        <mxCell id="xrPZHYSDsRcvSJWtpVY2-112" value="Event_UVLedOn" style="edgeLabel;html=1;align=center;verticalAlign=middle;resizable=0;points=[];" parent="xrPZHYSDsRcvSJWtpVY2-99" vertex="1" connectable="0">
          <mxGeometry x="0.8255" y="1" relative="1" as="geometry">
            <mxPoint x="18" y="-11" as="offset" />
          </mxGeometry>
        </mxCell>
        <mxCell id="xrPZHYSDsRcvSJWtpVY2-100" value="" style="endArrow=classic;html=1;rounded=1;exitX=1;exitY=0.5;exitDx=0;exitDy=0;entryX=1;entryY=0.5;entryDx=0;entryDy=0;strokeWidth=2;curved=0;" parent="-a6E0XnCvzOEeAQh_3vd-1" source="-a6E0XnCvzOEeAQh_3vd-6" target="SqZfNurT66y6oRBRSTvd-5" edge="1">
          <mxGeometry width="50" height="50" relative="1" as="geometry">
            <mxPoint x="-240" y="270" as="sourcePoint" />
            <mxPoint x="-190" y="220" as="targetPoint" />
            <Array as="points">
              <mxPoint x="1230" y="305" />
              <mxPoint x="1230" y="560" />
            </Array>
          </mxGeometry>
        </mxCell>
        <mxCell id="xrPZHYSDsRcvSJWtpVY2-113" value="Event_UVLedOff" style="edgeLabel;html=1;align=center;verticalAlign=middle;resizable=0;points=[];" parent="xrPZHYSDsRcvSJWtpVY2-100" vertex="1" connectable="0">
          <mxGeometry x="0.7894" y="-4" relative="1" as="geometry">
            <mxPoint y="-6" as="offset" />
          </mxGeometry>
        </mxCell>
        <mxCell id="vdshkX9dFvjxnOcdPGY9-1" value="State_Stop" style="shape=swimlane;rotatable=0;align=center;verticalAlign=top;fontFamily=Lucida Console;startSize=30;fontSize=14;fontStyle=1;fontColor=#FAFAFA;fillColor=#545454;swimlaneFillColor=default;rounded=1;arcSize=15;absoluteArcSize=1;" parent="-a6E0XnCvzOEeAQh_3vd-1" vertex="1">
          <mxGeometry x="755" y="960" width="250" height="90" as="geometry" />
        </mxCell>
        <mxCell id="vdshkX9dFvjxnOcdPGY9-2" value="enter / SolenoidPump(0);&#xa;enter / SolenoidPumpUVPower(0);&#xa;enter / StopWaterPump();" style="fontFamily=Lucida Console;align=left;verticalAlign=top;fillColor=none;gradientColor=none;strokeColor=none;rounded=0;spacingLeft=4;resizable=0;movable=0;deletable=0;rotatable=0;autosize=1;" parent="vdshkX9dFvjxnOcdPGY9-1" vertex="1" connectable="0">
          <mxGeometry y="30" width="250" height="60" as="geometry" />
        </mxCell>
        <mxCell id="vdshkX9dFvjxnOcdPGY9-4" value="" style="endArrow=classic;html=1;rounded=1;exitX=0;exitY=0.5;exitDx=0;exitDy=0;entryX=0.75;entryY=1;entryDx=0;entryDy=0;strokeWidth=2;curved=0;" parent="-a6E0XnCvzOEeAQh_3vd-1" source="vdshkX9dFvjxnOcdPGY9-1" target="-a6E0XnCvzOEeAQh_3vd-6" edge="1">
          <mxGeometry width="50" height="50" relative="1" as="geometry">
            <mxPoint x="620" y="1140" as="sourcePoint" />
            <mxPoint x="670" y="1090" as="targetPoint" />
            <Array as="points">
              <mxPoint x="693" y="1005" />
            </Array>
          </mxGeometry>
        </mxCell>
        <mxCell id="_Mw_bA1TMjWmvwzHlmwE-1" value="" style="endArrow=classic;html=1;rounded=0;exitX=0.5;exitY=1;exitDx=0;exitDy=0;entryX=0.5;entryY=0;entryDx=0;entryDy=0;" parent="-a6E0XnCvzOEeAQh_3vd-1" source="-a6E0XnCvzOEeAQh_3vd-6" target="_Mw_bA1TMjWmvwzHlmwE-5" edge="1">
          <mxGeometry width="50" height="50" relative="1" as="geometry">
            <mxPoint x="380" y="1150" as="sourcePoint" />
            <mxPoint x="640" y="1160" as="targetPoint" />
          </mxGeometry>
        </mxCell>
        <mxCell id="A10dxX1wKtbZRr1kXVgX-8" value="Event_BottleFullSensor" style="edgeLabel;html=1;align=center;verticalAlign=middle;resizable=0;points=[];" parent="_Mw_bA1TMjWmvwzHlmwE-1" vertex="1" connectable="0">
          <mxGeometry x="0.9104" y="-1" relative="1" as="geometry">
            <mxPoint x="-59" y="8" as="offset" />
          </mxGeometry>
        </mxCell>
        <mxCell id="_Mw_bA1TMjWmvwzHlmwE-5" value="$choice" style="fontFamily=Lucida Console;align=center;verticalAlign=middle;shape=rhombus;rotatable=0;labelPosition=center;verticalLabelPosition=top;strokeWidth=1;fillColor=#FFFFFF;gradientColor=#d4d4d4cc;noLabel=1;" parent="-a6E0XnCvzOEeAQh_3vd-1" vertex="1">
          <mxGeometry x="620.5" y="1170" width="40" height="40" as="geometry" />
        </mxCell>
        <mxCell id="_Mw_bA1TMjWmvwzHlmwE-6" value="" style="endArrow=classic;html=1;rounded=1;exitX=0;exitY=0.5;exitDx=0;exitDy=0;entryX=0.5;entryY=0;entryDx=0;entryDy=0;strokeWidth=2;curved=0;" parent="-a6E0XnCvzOEeAQh_3vd-1" source="_Mw_bA1TMjWmvwzHlmwE-5" target="A10dxX1wKtbZRr1kXVgX-1" edge="1">
          <mxGeometry width="50" height="50" relative="1" as="geometry">
            <mxPoint x="226" y="1172" as="sourcePoint" />
            <mxPoint x="440" y="1234" as="targetPoint" />
            <Array as="points">
              <mxPoint x="445" y="1189" />
            </Array>
          </mxGeometry>
        </mxCell>
        <mxCell id="_Mw_bA1TMjWmvwzHlmwE-7" value="[p&lt;span style=&quot;font-family: &amp;quot;Lucida Console&amp;quot;; font-size: 12px; text-align: left; background-color: rgb(236, 236, 236);&quot;&gt;umpStopsOnSensor&amp;nbsp;&lt;/span&gt;]" style="edgeLabel;html=1;align=center;verticalAlign=middle;resizable=0;points=[];" parent="_Mw_bA1TMjWmvwzHlmwE-6" vertex="1" connectable="0">
          <mxGeometry x="-0.4683" y="2" relative="1" as="geometry">
            <mxPoint x="-54" y="-13" as="offset" />
          </mxGeometry>
        </mxCell>
        <mxCell id="A10dxX1wKtbZRr1kXVgX-1" value="State_StopWaterPump" style="shape=swimlane;rotatable=0;align=center;verticalAlign=top;fontFamily=Lucida Console;startSize=30;fontSize=14;fontStyle=1;fontColor=#FAFAFA;fillColor=#545454;swimlaneFillColor=default;rounded=1;arcSize=15;absoluteArcSize=1;" parent="-a6E0XnCvzOEeAQh_3vd-1" vertex="1">
          <mxGeometry x="310" y="1220" width="270" height="90" as="geometry" />
        </mxCell>
        <mxCell id="A10dxX1wKtbZRr1kXVgX-2" value="enter / StopWaterPump();&#xa;enter / SendDonePumpOK();&#xa;enter / pumpStopsOnSensor = false;" style="fontFamily=Lucida Console;align=left;verticalAlign=top;fillColor=none;gradientColor=none;strokeColor=none;rounded=0;spacingLeft=4;resizable=0;movable=0;deletable=0;rotatable=0;autosize=1;" parent="A10dxX1wKtbZRr1kXVgX-1" vertex="1" connectable="0">
          <mxGeometry y="30" width="270" height="60" as="geometry" />
        </mxCell>
        <mxCell id="A10dxX1wKtbZRr1kXVgX-3" value="" style="endArrow=classic;html=1;rounded=1;exitX=0.279;exitY=0.04;exitDx=0;exitDy=0;exitPerimeter=0;entryX=0.5;entryY=1;entryDx=0;entryDy=0;curved=0;" parent="-a6E0XnCvzOEeAQh_3vd-1" source="A10dxX1wKtbZRr1kXVgX-1" target="-a6E0XnCvzOEeAQh_3vd-6" edge="1">
          <mxGeometry width="50" height="50" relative="1" as="geometry">
            <mxPoint x="660" y="1300" as="sourcePoint" />
            <mxPoint x="710" y="1250" as="targetPoint" />
            <Array as="points">
              <mxPoint x="383" y="1110" />
              <mxPoint x="620" y="1110" />
              <mxPoint x="610" y="400" />
              <mxPoint x="630" y="400" />
            </Array>
          </mxGeometry>
        </mxCell>
        <mxCell id="DZ_VMYLFVRqZ_SeqHkxB-1" value="" style="endArrow=classic;html=1;rounded=1;entryX=0.5;entryY=1;entryDx=0;entryDy=0;exitX=1;exitY=0.5;exitDx=0;exitDy=0;curved=0;" parent="-a6E0XnCvzOEeAQh_3vd-1" source="_Mw_bA1TMjWmvwzHlmwE-5" target="-a6E0XnCvzOEeAQh_3vd-6" edge="1">
          <mxGeometry width="50" height="50" relative="1" as="geometry">
            <mxPoint x="660" y="1190" as="sourcePoint" />
            <mxPoint x="720" y="1130" as="targetPoint" />
            <Array as="points">
              <mxPoint x="730" y="1190" />
              <mxPoint x="730" y="1160" />
              <mxPoint x="661" y="1160" />
              <mxPoint x="650" y="400" />
              <mxPoint x="630" y="400" />
            </Array>
          </mxGeometry>
        </mxCell>
        <mxCell id="DZ_VMYLFVRqZ_SeqHkxB-2" value="else" style="edgeLabel;html=1;align=center;verticalAlign=middle;resizable=0;points=[];" parent="DZ_VMYLFVRqZ_SeqHkxB-1" vertex="1" connectable="0">
          <mxGeometry x="-0.9218" y="-1" relative="1" as="geometry">
            <mxPoint as="offset" />
          </mxGeometry>
        </mxCell>
        <mxCell id="YrcoKcHfzYTxUYBoO5Yn-4" value="State_SendDoneOnStop" style="shape=swimlane;rotatable=0;align=center;verticalAlign=top;fontFamily=Lucida Console;startSize=30;fontSize=14;fontStyle=1;fontColor=#FAFAFA;fillColor=#545454;swimlaneFillColor=default;rounded=1;arcSize=15;absoluteArcSize=1;" vertex="1" parent="-a6E0XnCvzOEeAQh_3vd-1">
          <mxGeometry x="745" y="859.24" width="270" height="70" as="geometry" />
        </mxCell>
        <mxCell id="YrcoKcHfzYTxUYBoO5Yn-5" value="enter / pumpStopsOnSensor = false;&#xa;enter / SendDonePumpOK();" style="fontFamily=Lucida Console;align=left;verticalAlign=top;fillColor=none;gradientColor=none;strokeColor=none;rounded=0;spacingLeft=4;resizable=0;movable=0;deletable=0;rotatable=0;autosize=1;" vertex="1" connectable="0" parent="YrcoKcHfzYTxUYBoO5Yn-4">
          <mxGeometry y="30" width="270" height="40" as="geometry" />
        </mxCell>
        <mxCell id="YrcoKcHfzYTxUYBoO5Yn-9" value="" style="endArrow=classic;html=1;rounded=0;exitX=0.5;exitY=1;exitDx=0;exitDy=0;entryX=0.5;entryY=0;entryDx=0;entryDy=0;strokeWidth=2;" edge="1" parent="-a6E0XnCvzOEeAQh_3vd-1" source="YrcoKcHfzYTxUYBoO5Yn-4" target="vdshkX9dFvjxnOcdPGY9-1">
          <mxGeometry width="50" height="50" relative="1" as="geometry">
            <mxPoint x="1009" y="1149" as="sourcePoint" />
            <mxPoint x="1010" y="1198" as="targetPoint" />
          </mxGeometry>
        </mxCell>
        <mxCell id="YrcoKcHfzYTxUYBoO5Yn-1" value="$choice" style="fontFamily=Lucida Console;align=center;verticalAlign=middle;shape=rhombus;rotatable=0;labelPosition=center;verticalLabelPosition=top;strokeWidth=1;fillColor=#FFFFFF;gradientColor=#d4d4d4cc;noLabel=1;" vertex="1" parent="-a6E0XnCvzOEeAQh_3vd-1">
          <mxGeometry x="1089" y="809.24" width="40" height="40" as="geometry" />
        </mxCell>
        <mxCell id="YrcoKcHfzYTxUYBoO5Yn-2" value="" style="endArrow=classic;html=1;rounded=1;exitX=0;exitY=0.5;exitDx=0;exitDy=0;entryX=0.477;entryY=0.012;entryDx=0;entryDy=0;strokeWidth=2;curved=0;entryPerimeter=0;" edge="1" parent="-a6E0XnCvzOEeAQh_3vd-1" source="YrcoKcHfzYTxUYBoO5Yn-1" target="YrcoKcHfzYTxUYBoO5Yn-4">
          <mxGeometry width="50" height="50" relative="1" as="geometry">
            <mxPoint x="695" y="811" as="sourcePoint" />
            <mxPoint x="914" y="859" as="targetPoint" />
            <Array as="points">
              <mxPoint x="874" y="829" />
            </Array>
          </mxGeometry>
        </mxCell>
        <mxCell id="YrcoKcHfzYTxUYBoO5Yn-3" value="[p&lt;span style=&quot;font-family: &amp;quot;Lucida Console&amp;quot;; font-size: 12px; text-align: left; background-color: rgb(236, 236, 236);&quot;&gt;umpStopsOnSensor&amp;nbsp;&lt;/span&gt;]" style="edgeLabel;html=1;align=center;verticalAlign=middle;resizable=0;points=[];" vertex="1" connectable="0" parent="YrcoKcHfzYTxUYBoO5Yn-2">
          <mxGeometry x="-0.4683" y="2" relative="1" as="geometry">
            <mxPoint x="-54" y="-13" as="offset" />
          </mxGeometry>
        </mxCell>
        <mxCell id="vdshkX9dFvjxnOcdPGY9-3" value="" style="endArrow=classic;html=1;rounded=1;exitX=1;exitY=0.5;exitDx=0;exitDy=0;strokeWidth=2;curved=0;entryX=1;entryY=0.5;entryDx=0;entryDy=0;" parent="-a6E0XnCvzOEeAQh_3vd-1" source="-a6E0XnCvzOEeAQh_3vd-6" target="YrcoKcHfzYTxUYBoO5Yn-1" edge="1">
          <mxGeometry width="50" height="50" relative="1" as="geometry">
            <mxPoint x="810" y="230" as="sourcePoint" />
            <mxPoint x="1139" y="809" as="targetPoint" />
            <Array as="points">
              <mxPoint x="1230" y="305" />
              <mxPoint x="1230" y="730" />
              <mxPoint x="1229" y="829" />
            </Array>
          </mxGeometry>
        </mxCell>
        <mxCell id="vdshkX9dFvjxnOcdPGY9-5" value="Event_STOP" style="edgeLabel;html=1;align=center;verticalAlign=middle;resizable=0;points=[];" parent="vdshkX9dFvjxnOcdPGY9-3" vertex="1" connectable="0">
          <mxGeometry x="0.8979" y="-4" relative="1" as="geometry">
            <mxPoint x="37" y="-11" as="offset" />
          </mxGeometry>
        </mxCell>
        <mxCell id="YrcoKcHfzYTxUYBoO5Yn-7" value="" style="endArrow=classic;html=1;rounded=1;entryX=1;entryY=0.5;entryDx=0;entryDy=0;strokeWidth=2;curved=0;exitX=0.5;exitY=1;exitDx=0;exitDy=0;" edge="1" parent="-a6E0XnCvzOEeAQh_3vd-1" source="YrcoKcHfzYTxUYBoO5Yn-1" target="vdshkX9dFvjxnOcdPGY9-1">
          <mxGeometry width="50" height="50" relative="1" as="geometry">
            <mxPoint x="1129" y="859" as="sourcePoint" />
            <mxPoint x="1170" y="1058" as="targetPoint" />
            <Array as="points">
              <mxPoint x="1109" y="1005" />
            </Array>
          </mxGeometry>
        </mxCell>
        <mxCell id="YrcoKcHfzYTxUYBoO5Yn-8" value="else" style="edgeLabel;html=1;align=center;verticalAlign=middle;resizable=0;points=[];" vertex="1" connectable="0" parent="YrcoKcHfzYTxUYBoO5Yn-7">
          <mxGeometry x="-0.7322" relative="1" as="geometry">
            <mxPoint as="offset" />
          </mxGeometry>
        </mxCell>
        <mxCell id="-a6E0XnCvzOEeAQh_3vd-10" value="" style="endArrow=classic;html=1;rounded=0;exitX=1;exitY=0.25;exitDx=0;exitDy=0;entryX=0;entryY=0.25;entryDx=0;entryDy=0;strokeWidth=2;" parent="1" source="qZF7NaJGXNpq08xq_DYa-5" target="-a6E0XnCvzOEeAQh_3vd-1" edge="1">
          <mxGeometry width="50" height="50" relative="1" as="geometry">
            <mxPoint x="10" y="-1850" as="sourcePoint" />
            <mxPoint x="60" y="-1900" as="targetPoint" />
          </mxGeometry>
        </mxCell>
        <mxCell id="-a6E0XnCvzOEeAQh_3vd-11" value="Event_Enter_GUI_Controlled_Mode" style="edgeLabel;html=1;align=center;verticalAlign=middle;resizable=0;points=[];" parent="-a6E0XnCvzOEeAQh_3vd-10" vertex="1" connectable="0">
          <mxGeometry x="-0.1639" y="-1" relative="1" as="geometry">
            <mxPoint x="22" y="-20" as="offset" />
          </mxGeometry>
        </mxCell>
        <mxCell id="-a6E0XnCvzOEeAQh_3vd-12" value="" style="endArrow=classic;html=1;rounded=1;exitX=0;exitY=0.5;exitDx=0;exitDy=0;entryX=1;entryY=0.5;entryDx=0;entryDy=0;strokeColor=default;strokeWidth=2;curved=0;" parent="1" source="-a6E0XnCvzOEeAQh_3vd-1" target="qZF7NaJGXNpq08xq_DYa-5" edge="1">
          <mxGeometry width="50" height="50" relative="1" as="geometry">
            <mxPoint x="70" y="-1650" as="sourcePoint" />
            <mxPoint x="120" y="-1700" as="targetPoint" />
            <Array as="points" />
          </mxGeometry>
        </mxCell>
        <mxCell id="-a6E0XnCvzOEeAQh_3vd-13" value="Event_Exit_GUI_Controlled_Mode" style="edgeLabel;html=1;align=center;verticalAlign=middle;resizable=0;points=[];" parent="-a6E0XnCvzOEeAQh_3vd-12" vertex="1" connectable="0">
          <mxGeometry x="-0.5263" relative="1" as="geometry">
            <mxPoint x="-102" y="-17" as="offset" />
          </mxGeometry>
        </mxCell>
        <mxCell id="xrPZHYSDsRcvSJWtpVY2-65" value="$choice" style="fontFamily=Lucida Console;align=center;verticalAlign=middle;shape=rhombus;rotatable=0;labelPosition=center;verticalLabelPosition=top;strokeWidth=1;fillColor=#FFFFFF;gradientColor=#d4d4d4cc;noLabel=1;" parent="1" vertex="1">
          <mxGeometry x="-20" y="-760" width="40" height="40" as="geometry" />
        </mxCell>
        <mxCell id="xrPZHYSDsRcvSJWtpVY2-66" value="" style="endArrow=classic;html=1;rounded=1;exitX=1;exitY=0.5;exitDx=0;exitDy=0;entryX=0;entryY=0.5;entryDx=0;entryDy=0;curved=0;strokeWidth=2;" parent="1" source="qZF7NaJGXNpq08xq_DYa-3" target="xrPZHYSDsRcvSJWtpVY2-65" edge="1">
          <mxGeometry width="50" height="50" relative="1" as="geometry">
            <mxPoint x="-100" y="-560" as="sourcePoint" />
            <mxPoint x="-50" y="-610" as="targetPoint" />
          </mxGeometry>
        </mxCell>
        <mxCell id="xrPZHYSDsRcvSJWtpVY2-67" value="Event_NotTilted" style="edgeLabel;html=1;align=center;verticalAlign=middle;resizable=0;points=[];" parent="xrPZHYSDsRcvSJWtpVY2-66" vertex="1" connectable="0">
          <mxGeometry x="0.3238" y="2" relative="1" as="geometry">
            <mxPoint x="-30" y="-8" as="offset" />
          </mxGeometry>
        </mxCell>
        <mxCell id="xrPZHYSDsRcvSJWtpVY2-69" value="" style="endArrow=classic;html=1;rounded=1;exitX=1;exitY=0.5;exitDx=0;exitDy=0;curved=0;strokeWidth=2;entryX=0.2;entryY=1;entryDx=0;entryDy=0;entryPerimeter=0;" parent="1" source="xrPZHYSDsRcvSJWtpVY2-65" target="-a6E0XnCvzOEeAQh_3vd-1" edge="1">
          <mxGeometry width="50" height="50" relative="1" as="geometry">
            <mxPoint x="220" y="-660" as="sourcePoint" />
            <mxPoint x="500" y="-840" as="targetPoint" />
            <Array as="points">
              <mxPoint x="562" y="-740" />
            </Array>
          </mxGeometry>
        </mxCell>
        <mxCell id="xrPZHYSDsRcvSJWtpVY2-70" value="[IsGuiControlMode()]" style="edgeLabel;html=1;align=center;verticalAlign=middle;resizable=0;points=[];" parent="xrPZHYSDsRcvSJWtpVY2-69" vertex="1" connectable="0">
          <mxGeometry x="-0.3868" y="1" relative="1" as="geometry">
            <mxPoint x="-121" y="-9" as="offset" />
          </mxGeometry>
        </mxCell>
        <mxCell id="xrPZHYSDsRcvSJWtpVY2-73" value="" style="endArrow=classic;html=1;rounded=1;exitX=0.6;exitY=1;exitDx=0;exitDy=0;entryX=1;entryY=0.5;entryDx=0;entryDy=0;strokeWidth=2;fillColor=#e51400;strokeColor=#FF0000;curved=0;exitPerimeter=0;" parent="1" source="-a6E0XnCvzOEeAQh_3vd-1" target="qZF7NaJGXNpq08xq_DYa-79" edge="1">
          <mxGeometry width="50" height="50" relative="1" as="geometry">
            <mxPoint x="880" y="-540" as="sourcePoint" />
            <mxPoint x="930" y="-590" as="targetPoint" />
            <Array as="points">
              <mxPoint x="1066" y="-580" />
            </Array>
          </mxGeometry>
        </mxCell>
        <mxCell id="xrPZHYSDsRcvSJWtpVY2-74" value="Event_HWWatchdog" style="edgeLabel;html=1;align=center;verticalAlign=middle;resizable=0;points=[];" parent="xrPZHYSDsRcvSJWtpVY2-73" vertex="1" connectable="0">
          <mxGeometry x="-0.9644" y="6" relative="1" as="geometry">
            <mxPoint x="59" y="11" as="offset" />
          </mxGeometry>
        </mxCell>
        <mxCell id="xrPZHYSDsRcvSJWtpVY2-75" value="" style="endArrow=classic;html=1;rounded=1;exitX=0.8;exitY=1;exitDx=0;exitDy=0;exitPerimeter=0;entryX=1;entryY=0.75;entryDx=0;entryDy=0;strokeColor=#FF3333;endSize=6;strokeWidth=2;curved=0;" parent="1" source="-a6E0XnCvzOEeAQh_3vd-1" target="qZF7NaJGXNpq08xq_DYa-73" edge="1">
          <mxGeometry width="50" height="50" relative="1" as="geometry">
            <mxPoint x="1390" y="-540" as="sourcePoint" />
            <mxPoint x="1080" y="-420" as="targetPoint" />
            <Array as="points">
              <mxPoint x="1320" y="-380" />
            </Array>
          </mxGeometry>
        </mxCell>
        <mxCell id="xrPZHYSDsRcvSJWtpVY2-76" value="Event_SafetyFail" style="edgeLabel;html=1;align=center;verticalAlign=middle;resizable=0;points=[];" parent="xrPZHYSDsRcvSJWtpVY2-75" vertex="1" connectable="0">
          <mxGeometry x="-0.9063" y="4" relative="1" as="geometry">
            <mxPoint x="42" y="-84" as="offset" />
          </mxGeometry>
        </mxCell>
      </root>
    </mxGraphModel>
  </diagram>
  <diagram id="e6KzhQqeHZ0kGev2914D" name="config">
    <mxGraphModel dx="2038" dy="1173" grid="1" gridSize="10" guides="1" tooltips="1" connect="1" arrows="1" fold="1" page="1" pageScale="1" pageWidth="1600" pageHeight="900" math="0" shadow="0">
      <root>
        <mxCell id="0" />
        <mxCell id="1" parent="0" />
        <mxCell id="AQYHgrLb52N4u3SG62Hm-1" value="$CONFIG : toml" style="shape=swimlane;rotatable=0;align=center;verticalAlign=top;fontFamily=Lucida Console;startSize=30;fontSize=14;fontStyle=1;swimlaneFillColor=default;rounded=1;arcSize=15;absoluteArcSize=1;fillColor=#76608a;strokeColor=#432D57;fontColor=#ffffff;" parent="1" vertex="1">
          <mxGeometry x="40" y="125" width="760" height="675" as="geometry">
            <mxRectangle x="40" y="40" width="170" height="70" as="alternateBounds" />
          </mxGeometry>
        </mxCell>
        <mxCell id="AQYHgrLb52N4u3SG62Hm-2" value="[RenderConfig]&#xa;FileTop = &quot;&quot;&quot;&#xa;    // DO NOT EDIT THIS FILE: Automatically generated by StateSmith&#xa;    &quot;&quot;&quot;&#xa;AutoExpandedVars = &quot;&quot;&quot;&#xa;    uint16_t count; // this var can be referenced in diagram&#xa;    bool pumpStopsOnSensor;&#xa;    uint16_t carbCycle;&#xa;    &quot;&quot;&quot;&#xa;&#xa;[RenderConfig.C]&#xa;# CFileExtension = &quot;.inc&quot; # if you want to include sm in another file&#xa;HFileIncludes = &quot;&quot;&quot;&#xa;    #include &lt;stdint.h&gt; // for count var&#xa;    #include &quot;SMinterface.h&quot;&#xa;    &quot;&quot;&quot;&#xa;CFileIncludes = &quot;&quot;&quot;&#xa;    // #include &quot;your_header_here.h&quot;&#xa;    &quot;&quot;&quot;&#xa;&#xa;IncludeGuardLabel = &quot;{FILENAME}_H&quot;&#xa;# More C settings are available. See docs.&#xa;&#xa;[SmRunnerSettings]&#xa;transpilerId = &quot;C99&quot;&#xa;&#xa;[SmRunnerSettings.algoBalanced1]&#xa;outputEventIdToStringFunction = false&#xa;outputStateIdToStringFunction = false&#xa;" style="fontFamily=Lucida Console;align=left;verticalAlign=top;fillColor=none;gradientColor=none;strokeColor=none;rounded=0;spacingLeft=4;resizable=0;movable=0;deletable=0;rotatable=0;autosize=1;" parent="AQYHgrLb52N4u3SG62Hm-1" vertex="1" connectable="0">
          <mxGeometry y="30" width="520" height="430" as="geometry" />
        </mxCell>
        <mxCell id="Rtzr6oL3nyDmr5cCv5HC-1" value="&lt;span style=&quot;color: rgb(0, 0, 0); font-size: 12px;&quot;&gt;Feel free to delete the `$CONFIG : toml` node if you don&#39;t want it.&lt;/span&gt;&lt;br style=&quot;color: rgb(0, 0, 0); font-size: 12px;&quot;&gt;&lt;span style=&quot;color: rgb(0, 0, 0); font-size: 12px;&quot;&gt;Details here:&amp;nbsp;&lt;/span&gt;&lt;a style=&quot;font-size: 12px;&quot; href=&quot;https://github.com/StateSmith/StateSmith/issues/335&quot;&gt;https://github.com/StateSmith/StateSmith/issues/335&lt;/a&gt;" style="shape=note;strokeWidth=2;fontSize=14;size=20;whiteSpace=wrap;html=1;fillColor=#fff2cc;strokeColor=#d6b656;fontColor=#2B2B00;align=left;spacingLeft=6;" parent="1" vertex="1">
          <mxGeometry x="40" y="40" width="490" height="50" as="geometry" />
        </mxCell>
      </root>
    </mxGraphModel>
  </diagram>
  <diagram id="lSXSN223U8W1Hh3X7HAb" name="$notes shapes &amp; tips">
    <mxGraphModel dx="2038" dy="1973" grid="1" gridSize="10" guides="1" tooltips="1" connect="1" arrows="1" fold="1" page="0" pageScale="1" pageWidth="1600" pageHeight="900" math="0" shadow="0">
      <root>
        <mxCell id="0" />
        <mxCell id="1" parent="0" />
        <mxCell id="KJdLhRzIpItSepWCNUQ3-1" value="$initial_state" style="shape=ellipse;aspect=fixed;fillColor=#000000;resizable=1;rotatable=1;noLabel=1;editable=1;movable=1;deletable=1;locked=0;connectable=1;" parent="1" vertex="1">
          <mxGeometry x="40" y="760" width="25" height="25" as="geometry" />
        </mxCell>
        <mxCell id="KJdLhRzIpItSepWCNUQ3-2" value="exit : 1" style="fontFamily=Lucida Console;align=center;verticalAlign=middle;shape=ellipse;aspect=fixed;resizable=0;rotatable=0;labelPosition=center;verticalLabelPosition=top;strokeColor=#b11f1f;strokeWidth=4;fillColor=#FFFFFF;gradientColor=#d4d4d4cc;" parent="1" vertex="1">
          <mxGeometry x="297.5" y="785" width="30" height="30" as="geometry" />
        </mxCell>
        <mxCell id="KJdLhRzIpItSepWCNUQ3-3" value="entry : 1" style="fontFamily=Lucida Console;align=center;verticalAlign=middle;shape=ellipse;aspect=fixed;resizable=0;rotatable=0;labelPosition=center;verticalLabelPosition=top;strokeColor=#27ae27;strokeWidth=4;fillColor=#FFFFFF;gradientColor=#d4d4d4cc;" parent="1" vertex="1">
          <mxGeometry x="222.5" y="785" width="30" height="30" as="geometry" />
        </mxCell>
        <mxCell id="KJdLhRzIpItSepWCNUQ3-4" value="$choice" style="fontFamily=Lucida Console;align=center;verticalAlign=middle;shape=rhombus;rotatable=0;labelPosition=center;verticalLabelPosition=top;strokeWidth=1;fillColor=#FFFFFF;gradientColor=#d4d4d4cc;noLabel=1;points=[[0,0.5,0,0,0],[0.25,0.25,0,0,0],[0.25,0.78,0,0,0],[0.5,0,0,0,0],[0.5,1,0,0,0],[0.75,0.78,0,0,0],[0.8,0.25,0,0,0],[1,0.5,0,0,0]];" parent="1" vertex="1">
          <mxGeometry x="440" y="775" width="40" height="40" as="geometry" />
        </mxCell>
        <mxCell id="KJdLhRzIpItSepWCNUQ3-6" value="&lt;font color=&quot;#bd890f&quot;&gt;$&lt;/font&gt;H" style="fontFamily=Helvetica;align=center;verticalAlign=middle;shape=ellipse;aspect=fixed;resizable=1;rotatable=1;editable=1;labelPosition=center;verticalLabelPosition=middle;strokeColor=#d79b00;strokeWidth=1;fillColor=#ffcd28;gradientColor=#ffa500;gradientDirection=north;html=1;fontColor=#000000;fontStyle=1;movable=1;deletable=1;locked=0;connectable=1;" parent="1" vertex="1">
          <mxGeometry x="885" y="760" width="30" height="30" as="geometry" />
        </mxCell>
        <mxCell id="KJdLhRzIpItSepWCNUQ3-7" value="&lt;font color=&quot;#bd890f&quot;&gt;$&lt;/font&gt;HC" style="fontFamily=Helvetica;align=center;verticalAlign=middle;shape=ellipse;aspect=fixed;resizable=1;rotatable=1;editable=1;labelPosition=center;verticalLabelPosition=middle;strokeColor=#d79b00;strokeWidth=1;fillColor=#ffcd28;gradientColor=#ffa500;gradientDirection=north;html=1;fontColor=#000000;fontStyle=1;movable=1;deletable=1;locked=0;connectable=1;" parent="1" vertex="1">
          <mxGeometry x="1070" y="760" width="30" height="30" as="geometry" />
        </mxCell>
        <mxCell id="KJdLhRzIpItSepWCNUQ3-8" value="pseudo states" style="text;align=left;verticalAlign=middle;resizable=0;points=[];autosize=1;strokeColor=none;fillColor=none;fontSize=27;fontStyle=1" parent="1" vertex="1">
          <mxGeometry x="10" y="630" width="190" height="50" as="geometry" />
        </mxCell>
        <mxCell id="KJdLhRzIpItSepWCNUQ3-9" value="above shape has a hidden `$choice` label" style="align=left;verticalAlign=top;resizable=1;whiteSpace=wrap;strokeColor=none;fillColor=none;fontSize=12;fontFamily=Helvetica;fontStyle=2;fontColor=#858585;connectable=0;allowArrows=0;" parent="1" vertex="1">
          <mxGeometry x="400" y="825" width="150" height="45" as="geometry" />
        </mxCell>
        <mxCell id="KJdLhRzIpItSepWCNUQ3-10" value="above shape has&lt;br&gt;a hidden label" style="text;html=1;align=left;verticalAlign=middle;resizable=0;points=[];autosize=1;strokeColor=none;fillColor=none;fontSize=12;fontFamily=Helvetica;fontStyle=2;fontColor=#858585;" parent="1" vertex="1">
          <mxGeometry x="10" y="790" width="110" height="40" as="geometry" />
        </mxCell>
        <mxCell id="KJdLhRzIpItSepWCNUQ3-11" value="initial state" style="text;align=left;verticalAlign=middle;resizable=0;points=[];autosize=1;strokeColor=none;fillColor=none;fontSize=18;fontStyle=1" parent="1" vertex="1">
          <mxGeometry x="10" y="705" width="110" height="40" as="geometry" />
        </mxCell>
        <mxCell id="KJdLhRzIpItSepWCNUQ3-12" value="entry exit points" style="text;align=left;verticalAlign=middle;resizable=0;points=[];autosize=1;strokeColor=none;fillColor=none;fontSize=18;fontStyle=1" parent="1" vertex="1">
          <mxGeometry x="200" y="705" width="150" height="40" as="geometry" />
        </mxCell>
        <mxCell id="KJdLhRzIpItSepWCNUQ3-13" value="choice points" style="text;align=left;verticalAlign=middle;resizable=0;points=[];autosize=1;strokeColor=none;fillColor=none;fontSize=18;fontStyle=1" parent="1" vertex="1">
          <mxGeometry x="400" y="705" width="130" height="40" as="geometry" />
        </mxCell>
        <mxCell id="KJdLhRzIpItSepWCNUQ3-14" value="you can give a choice point a label if you want. sometimes helpful while debugging if you have a lot of them in a state." style="align=left;verticalAlign=top;resizable=1;whiteSpace=wrap;strokeColor=none;fillColor=none;fontSize=12;fontFamily=Helvetica;fontStyle=2;fontColor=#858585;connectable=0;allowArrows=0;" parent="1" vertex="1">
          <mxGeometry x="610" y="815" width="170" height="95" as="geometry" />
        </mxCell>
        <mxCell id="KJdLhRzIpItSepWCNUQ3-15" value="history" style="text;align=left;verticalAlign=middle;resizable=0;points=[];autosize=1;strokeColor=none;fillColor=none;fontSize=18;fontStyle=1" parent="1" vertex="1">
          <mxGeometry x="860" y="705" width="80" height="40" as="geometry" />
        </mxCell>
        <mxCell id="KJdLhRzIpItSepWCNUQ3-16" value="history continue" style="text;align=left;verticalAlign=middle;resizable=0;points=[];autosize=1;strokeColor=none;fillColor=none;fontSize=18;fontStyle=1" parent="1" vertex="1">
          <mxGeometry x="1010" y="705" width="150" height="40" as="geometry" />
        </mxCell>
        <mxCell id="KJdLhRzIpItSepWCNUQ3-17" value="&lt;b&gt;$NOTES&lt;/b&gt;&lt;br&gt;Original style notes" style="shape=rectangle;rounded=1;arcSize=15;absoluteArcSize=1;align=left;verticalAlign=top;whiteSpace=wrap;html=1;spacingLeft=4;strokeWidth=1;strokeColor=default;fillColor=#fff2cc;fontColor=#000000;gradientColor=#ffd966;" parent="1" vertex="1">
          <mxGeometry x="490" y="1275" width="250" height="70" as="geometry" />
        </mxCell>
        <mxCell id="KJdLhRzIpItSepWCNUQ3-18" value="notes" style="text;align=left;verticalAlign=middle;resizable=0;points=[];autosize=1;strokeColor=none;fillColor=none;fontSize=27;fontStyle=1;fontFamily=Helvetica;fontColor=default;" parent="1" vertex="1">
          <mxGeometry x="22.5" y="1195" width="70" height="40" as="geometry" />
        </mxCell>
        <mxCell id="KJdLhRzIpItSepWCNUQ3-19" value="$NOTES" style="shape=swimlane;rotatable=0;align=center;verticalAlign=top;fontFamily=Helvetica;startSize=30;fontSize=14;fontStyle=1;fontColor=#000000;fillColor=#f0a30a;swimlaneFillColor=default;rounded=1;arcSize=15;absoluteArcSize=1;strokeColor=#BD7000;" parent="1" vertex="1">
          <mxGeometry x="840" y="1255" width="530" height="230" as="geometry">
            <mxRectangle x="840" y="1255" width="100" height="30" as="alternateBounds" />
          </mxGeometry>
        </mxCell>
        <mxCell id="KJdLhRzIpItSepWCNUQ3-20" value="You can put text in here, but you can also put state machine vertices &#xa;in here as a quick way to &quot;comment them out&quot;.&#xa;&#xa;This notes group can be collapsed to hide its contents." style="fontFamily=Lucida Console;align=left;verticalAlign=top;fillColor=none;gradientColor=none;strokeColor=none;rounded=0;spacingLeft=4;resizable=0;movable=0;deletable=0;rotatable=0;autosize=1;" parent="KJdLhRzIpItSepWCNUQ3-19" vertex="1" connectable="0">
          <mxGeometry y="30" width="530" height="70" as="geometry" />
        </mxCell>
        <mxCell id="KJdLhRzIpItSepWCNUQ3-30" style="edgeStyle=orthogonalEdgeStyle;rounded=0;orthogonalLoop=1;jettySize=auto;html=1;exitX=1;exitY=0.25;exitDx=0;exitDy=0;entryX=0;entryY=0.25;entryDx=0;entryDy=0;" parent="KJdLhRzIpItSepWCNUQ3-19" source="KJdLhRzIpItSepWCNUQ3-24" target="KJdLhRzIpItSepWCNUQ3-28" edge="1">
          <mxGeometry relative="1" as="geometry" />
        </mxCell>
        <mxCell id="KJdLhRzIpItSepWCNUQ3-24" value="STATE_1" style="shape=swimlane;rotatable=0;align=center;verticalAlign=top;fontFamily=Lucida Console;startSize=30;fontSize=14;fontStyle=1;fontColor=#FAFAFA;fillColor=#545454;swimlaneFillColor=default;rounded=1;arcSize=15;absoluteArcSize=1;comic=0;STATESMITH_NOTES_VERTEX" parent="KJdLhRzIpItSepWCNUQ3-19" vertex="1">
          <mxGeometry x="30" y="110" width="120" height="90" as="geometry" />
        </mxCell>
        <mxCell id="KJdLhRzIpItSepWCNUQ3-25" value="" style="fontFamily=Lucida Console;align=left;verticalAlign=top;fillColor=none;gradientColor=none;strokeColor=none;rounded=0;spacingLeft=4;resizable=0;movable=0;deletable=0;rotatable=0;autosize=1;comic=0;" parent="KJdLhRzIpItSepWCNUQ3-24" vertex="1" connectable="0">
          <mxGeometry y="30" width="50" height="40" as="geometry" />
        </mxCell>
        <mxCell id="KJdLhRzIpItSepWCNUQ3-31" style="edgeStyle=orthogonalEdgeStyle;rounded=0;orthogonalLoop=1;jettySize=auto;html=1;exitX=0;exitY=0.75;exitDx=0;exitDy=0;entryX=1;entryY=0.75;entryDx=0;entryDy=0;" parent="KJdLhRzIpItSepWCNUQ3-19" source="KJdLhRzIpItSepWCNUQ3-28" target="KJdLhRzIpItSepWCNUQ3-24" edge="1">
          <mxGeometry relative="1" as="geometry" />
        </mxCell>
        <mxCell id="KJdLhRzIpItSepWCNUQ3-28" value="STATE_1" style="shape=swimlane;rotatable=0;align=center;verticalAlign=top;fontFamily=Lucida Console;startSize=30;fontSize=14;fontStyle=1;fontColor=#FAFAFA;fillColor=#545454;swimlaneFillColor=default;rounded=1;arcSize=15;absoluteArcSize=1;comic=0;STATESMITH_NOTES_VERTEX" parent="KJdLhRzIpItSepWCNUQ3-19" vertex="1">
          <mxGeometry x="300" y="110" width="120" height="90" as="geometry" />
        </mxCell>
        <mxCell id="KJdLhRzIpItSepWCNUQ3-29" value="" style="fontFamily=Lucida Console;align=left;verticalAlign=top;fillColor=none;gradientColor=none;strokeColor=none;rounded=0;spacingLeft=4;resizable=0;movable=0;deletable=0;rotatable=0;autosize=1;comic=0;" parent="KJdLhRzIpItSepWCNUQ3-28" vertex="1" connectable="0">
          <mxGeometry y="30" width="50" height="40" as="geometry" />
        </mxCell>
        <mxCell id="KJdLhRzIpItSepWCNUQ3-21" value="a big sticky note" style="strokeWidth=1;shadow=0;dashed=0;align=left;html=1;shape=mxgraph.mockup.text.stickyNote2;fontColor=#666666;mainText=;fontSize=17;whiteSpace=wrap;fillColor=#ffffcc;strokeColor=#F62E00;spacingLeft=9;" parent="1" vertex="1">
          <mxGeometry x="285" y="1265" width="165" height="120" as="geometry" />
        </mxCell>
        <mxCell id="KJdLhRzIpItSepWCNUQ3-22" value="some notes and stuff..." style="shape=note;strokeWidth=2;fontSize=14;size=20;whiteSpace=wrap;html=1;fillColor=#fff2cc;strokeColor=#d6b656;fontColor=#303000;align=left;spacingLeft=5;" parent="1" vertex="1">
          <mxGeometry x="22.5" y="1275" width="217.5" height="40" as="geometry" />
        </mxCell>
        <mxCell id="KJdLhRzIpItSepWCNUQ3-26" value="another note style" style="shape=note2;boundedLbl=1;whiteSpace=wrap;html=1;size=25;verticalAlign=top;align=center;" parent="1" vertex="1">
          <mxGeometry x="22.5" y="1345" width="120" height="60" as="geometry" />
        </mxCell>
        <mxCell id="KJdLhRzIpItSepWCNUQ3-27" value="you can style however you want" style="shape=note;strokeWidth=2;fontSize=14;size=20;whiteSpace=wrap;html=1;fillColor=#a20025;strokeColor=#6F0000;fontColor=#ffffff;align=left;spacingLeft=5;" parent="1" vertex="1">
          <mxGeometry x="22.5" y="1445" width="257.5" height="40" as="geometry" />
        </mxCell>
        <mxCell id="KJdLhRzIpItSepWCNUQ3-32" value="" style="endArrow=none;html=1;rounded=0;" parent="1" edge="1">
          <mxGeometry width="50" height="50" relative="1" as="geometry">
            <mxPoint y="1245" as="sourcePoint" />
            <mxPoint x="1440" y="1245" as="targetPoint" />
          </mxGeometry>
        </mxCell>
        <mxCell id="KJdLhRzIpItSepWCNUQ3-33" value="" style="endArrow=none;html=1;rounded=0;" parent="1" edge="1">
          <mxGeometry width="50" height="50" relative="1" as="geometry">
            <mxPoint y="680" as="sourcePoint" />
            <mxPoint x="1440" y="680" as="targetPoint" />
          </mxGeometry>
        </mxCell>
        <mxCell id="KJdLhRzIpItSepWCNUQ3-34" value="This page name is important. It starts with $notes so that it will be totally&amp;nbsp;&lt;div&gt;ignored by code generation&lt;/div&gt;" style="shape=note;strokeWidth=2;fontSize=14;size=20;whiteSpace=wrap;html=1;fillColor=#d80073;strokeColor=#A50040;fontColor=#ffffff;align=left;spacingLeft=5;" parent="1" vertex="1">
          <mxGeometry x="5" y="-550" width="500" height="40" as="geometry" />
        </mxCell>
        <mxCell id="KJdLhRzIpItSepWCNUQ3-35" value="$CONFIG : toml" style="shape=swimlane;rotatable=0;align=center;verticalAlign=top;fontFamily=Lucida Console;startSize=30;fontSize=14;fontStyle=1;swimlaneFillColor=default;html=1;rounded=1;arcSize=15;absoluteArcSize=1;fillColor=#76608a;strokeColor=#432D57;fontColor=#ffffff;" parent="1" vertex="1" collapsed="1">
          <mxGeometry x="22.5" y="1065" width="170" height="70" as="geometry">
            <mxRectangle width="840" height="650" as="alternateBounds" />
          </mxGeometry>
        </mxCell>
        <mxCell id="KJdLhRzIpItSepWCNUQ3-36" value="[RenderConfig]&#xa;FileTop = &quot;&quot;&quot;&#xa;    // Whatever you put in this `FileTop` section will end up &#xa;    // being printed at the top of every generated code file.&#xa;    &quot;&quot;&quot;&#xa;AutoExpandedVars = &quot;&quot;&quot;&#xa;    uint16_t count; // this var can be referenced in diagram&#xa;    &quot;&quot;&quot;&#xa;&#xa;[RenderConfig.C]&#xa;# CFileExtension = &quot;.inc&quot; # if you want to include sm in another file&#xa;HFileIncludes = &quot;&quot;&quot;&#xa;    #include &lt;stdint.h&gt; // for count var&#xa;    &quot;&quot;&quot;&#xa;CFileIncludes = &quot;&quot;&quot;&#xa;    // #include &quot;your_header_here.h&quot;&#xa;    &quot;&quot;&quot;&#xa;# IncludeGuardLabel = &quot;{FILENAME}_H&quot;&#xa;&#xa;# More C settings are available. See docs.&#xa;&#xa;[SmRunnerSettings]&#xa;transpilerId = &quot;C99&quot;" style="fontFamily=Lucida Console;align=left;verticalAlign=top;fillColor=none;gradientColor=none;strokeColor=none;rounded=0;spacingLeft=4;resizable=0;movable=0;deletable=0;rotatable=0;autosize=1;" parent="KJdLhRzIpItSepWCNUQ3-35" vertex="1" connectable="0">
          <mxGeometry y="30" width="130" height="30" as="geometry" />
        </mxCell>
        <mxCell id="4-2zxK3wcSJ80wd-ZBZ5-2" value="&lt;span style=&quot;color: rgb(0, 0, 0); font-size: 12px;&quot;&gt;Feel free to delete the `$CONFIG : toml` node. It isn&#39;t required.&lt;/span&gt;&lt;br style=&quot;color: rgb(0, 0, 0); font-size: 12px;&quot;&gt;&lt;br style=&quot;color: rgb(0, 0, 0); font-size: 12px;&quot;&gt;&lt;span style=&quot;color: rgb(0, 0, 0); font-size: 12px;&quot;&gt;Details here:&amp;nbsp;&lt;/span&gt;&lt;a style=&quot;font-size: 12px;&quot; href=&quot;https://github.com/StateSmith/StateSmith/issues/335&quot;&gt;https://github.com/StateSmith/StateSmith/issues/335&lt;/a&gt;" style="shape=note;strokeWidth=2;fontSize=14;size=20;whiteSpace=wrap;html=1;fillColor=#fff2cc;strokeColor=#d6b656;fontColor=#303000;align=left;spacingLeft=5;" parent="KJdLhRzIpItSepWCNUQ3-35" vertex="1">
          <mxGeometry x="10" y="-60" width="380" height="60" as="geometry" />
        </mxCell>
        <mxCell id="KJdLhRzIpItSepWCNUQ3-38" value="config" style="text;align=left;verticalAlign=middle;resizable=0;points=[];autosize=1;strokeColor=none;fillColor=none;fontSize=27;fontStyle=1;fontFamily=Helvetica;fontColor=default;" parent="1" vertex="1">
          <mxGeometry x="25" y="990" width="100" height="50" as="geometry" />
        </mxCell>
        <mxCell id="KJdLhRzIpItSepWCNUQ3-39" value="" style="endArrow=none;html=1;rounded=0;" parent="1" edge="1">
          <mxGeometry width="50" height="50" relative="1" as="geometry">
            <mxPoint x="2.5" y="1045" as="sourcePoint" />
            <mxPoint x="1442.5" y="1045" as="targetPoint" />
          </mxGeometry>
        </mxCell>
        <mxCell id="KJdLhRzIpItSepWCNUQ3-40" value="$STATEMACHINE : MySm" style="shape=swimlane;rotatable=0;align=center;verticalAlign=top;fontFamily=Lucida Console;startSize=30;fontSize=14;fontStyle=1;fontColor=#FAFAFA;fillColor=#545454;swimlaneFillColor=default;rounded=1;arcSize=15;absoluteArcSize=1;" parent="1" vertex="1">
          <mxGeometry x="690" y="-20" width="360" height="220" as="geometry" />
        </mxCell>
        <mxCell id="KJdLhRzIpItSepWCNUQ3-41" value=" " style="fontFamily=Lucida Console;align=left;verticalAlign=top;fillColor=none;gradientColor=none;strokeColor=none;rounded=0;spacingLeft=4;resizable=0;movable=0;deletable=0;rotatable=0;autosize=1;" parent="KJdLhRzIpItSepWCNUQ3-40" vertex="1" connectable="0">
          <mxGeometry y="30" width="30" height="20" as="geometry" />
        </mxCell>
        <mxCell id="KJdLhRzIpItSepWCNUQ3-42" value="$initial_state" style="shape=ellipse;aspect=fixed;fillColor=#000000;resizable=1;rotatable=1;noLabel=1;editable=1;movable=1;deletable=1;locked=0;connectable=1;" parent="KJdLhRzIpItSepWCNUQ3-40" vertex="1">
          <mxGeometry x="67.5" y="50" width="25" height="25" as="geometry" />
        </mxCell>
        <mxCell id="KJdLhRzIpItSepWCNUQ3-43" value="STATE_1" style="shape=swimlane;rotatable=0;align=center;verticalAlign=top;fontFamily=Lucida Console;startSize=30;fontSize=14;fontStyle=1;fontColor=#FAFAFA;fillColor=#545454;swimlaneFillColor=default;rounded=1;arcSize=15;absoluteArcSize=1;" parent="KJdLhRzIpItSepWCNUQ3-40" vertex="1">
          <mxGeometry x="20" y="110" width="120" height="90" as="geometry" />
        </mxCell>
        <mxCell id="KJdLhRzIpItSepWCNUQ3-44" value="enter / {  }&#xa;do / {  }&#xa;exit / {  }" style="fontFamily=Lucida Console;align=left;verticalAlign=top;fillColor=none;gradientColor=none;strokeColor=none;rounded=0;spacingLeft=4;resizable=0;movable=0;deletable=0;rotatable=0;autosize=1;" parent="KJdLhRzIpItSepWCNUQ3-43" vertex="1" connectable="0">
          <mxGeometry y="30" width="100" height="50" as="geometry" />
        </mxCell>
        <mxCell id="KJdLhRzIpItSepWCNUQ3-45" value="STATE_2" style="shape=swimlane;rotatable=0;align=center;verticalAlign=top;fontFamily=Lucida Console;startSize=30;fontSize=14;fontStyle=1;fontColor=#FAFAFA;fillColor=#545454;swimlaneFillColor=default;rounded=1;arcSize=15;absoluteArcSize=1;" parent="KJdLhRzIpItSepWCNUQ3-40" vertex="1">
          <mxGeometry x="220" y="110" width="120" height="90" as="geometry" />
        </mxCell>
        <mxCell id="KJdLhRzIpItSepWCNUQ3-46" value="enter / {  }&#xa;do / {  }&#xa;exit / {  }" style="fontFamily=Lucida Console;align=left;verticalAlign=top;fillColor=none;gradientColor=none;strokeColor=none;rounded=0;spacingLeft=4;resizable=0;movable=0;deletable=0;rotatable=0;autosize=1;" parent="KJdLhRzIpItSepWCNUQ3-45" vertex="1" connectable="0">
          <mxGeometry y="30" width="100" height="50" as="geometry" />
        </mxCell>
        <mxCell id="KJdLhRzIpItSepWCNUQ3-47" style="rounded=0;" parent="KJdLhRzIpItSepWCNUQ3-40" source="KJdLhRzIpItSepWCNUQ3-42" target="KJdLhRzIpItSepWCNUQ3-43" edge="1">
          <mxGeometry relative="1" as="geometry" />
        </mxCell>
        <mxCell id="KJdLhRzIpItSepWCNUQ3-48" style="rounded=0;" parent="KJdLhRzIpItSepWCNUQ3-40" source="KJdLhRzIpItSepWCNUQ3-43" target="KJdLhRzIpItSepWCNUQ3-45" edge="1">
          <mxGeometry relative="1" as="geometry" />
        </mxCell>
        <mxCell id="KJdLhRzIpItSepWCNUQ3-49" value="Old style state machine that has all children nested.&lt;div&gt;Useful if you want to declare multiple state machines in a single diagram (only supported by .csx files currently).&lt;/div&gt;" style="shape=note;strokeWidth=2;fontSize=14;size=20;whiteSpace=wrap;html=1;fillColor=#fff2cc;strokeColor=#d6b656;fontColor=#303000;align=left;spacingLeft=5;" parent="1" vertex="1">
          <mxGeometry x="692.5" y="-90" width="387.5" height="60" as="geometry" />
        </mxCell>
        <mxCell id="KJdLhRzIpItSepWCNUQ3-51" value="&lt;div&gt;New &quot;not nested&quot; state machine declaration. You can only have a single one of these in a draw.io file&lt;/div&gt;https://github.com/StateSmith/StateSmith/issues/359" style="shape=note;strokeWidth=2;fontSize=14;size=15;whiteSpace=wrap;html=1;fillColor=#fff2cc;strokeColor=#d6b656;fontColor=#303000;align=left;spacingLeft=5;verticalAlign=middle;fontFamily=Helvetica;" parent="1" vertex="1">
          <mxGeometry x="5" y="-90" width="475" height="56.25" as="geometry" />
        </mxCell>
        <mxCell id="THOiIpDGZ02Zs2kVVUPI-2" value="state machine declarations" style="text;align=left;verticalAlign=middle;resizable=0;points=[];autosize=1;strokeColor=none;fillColor=none;fontSize=27;fontStyle=1" parent="1" vertex="1">
          <mxGeometry x="10" y="-160" width="340" height="50" as="geometry" />
        </mxCell>
        <mxCell id="THOiIpDGZ02Zs2kVVUPI-3" value="" style="endArrow=none;html=1;rounded=0;" parent="1" edge="1">
          <mxGeometry width="50" height="50" relative="1" as="geometry">
            <mxPoint y="-110" as="sourcePoint" />
            <mxPoint x="1440" y="-110" as="targetPoint" />
          </mxGeometry>
        </mxCell>
        <mxCell id="THOiIpDGZ02Zs2kVVUPI-4" value="states" style="text;align=left;verticalAlign=middle;resizable=0;points=[];autosize=1;strokeColor=none;fillColor=none;fontSize=27;fontStyle=1" parent="1" vertex="1">
          <mxGeometry x="10" y="250" width="100" height="50" as="geometry" />
        </mxCell>
        <mxCell id="THOiIpDGZ02Zs2kVVUPI-5" value="" style="endArrow=none;html=1;rounded=0;" parent="1" edge="1">
          <mxGeometry width="50" height="50" relative="1" as="geometry">
            <mxPoint y="300" as="sourcePoint" />
            <mxPoint x="1440" y="300" as="targetPoint" />
          </mxGeometry>
        </mxCell>
        <mxCell id="THOiIpDGZ02Zs2kVVUPI-7" value="STATE_1" style="shape=swimlane;rotatable=0;align=center;verticalAlign=top;fontFamily=Lucida Console;startSize=30;fontSize=14;fontStyle=1;fontColor=#FAFAFA;fillColor=#545454;swimlaneFillColor=default;rounded=1;arcSize=15;absoluteArcSize=1;" parent="1" vertex="1">
          <mxGeometry x="240" y="420" width="120" height="90" as="geometry" />
        </mxCell>
        <mxCell id="THOiIpDGZ02Zs2kVVUPI-8" value="enter / {  }&#xa;do / {  }&#xa;exit / {  }" style="fontFamily=Lucida Console;align=left;verticalAlign=top;fillColor=none;gradientColor=none;strokeColor=none;rounded=0;spacingLeft=4;resizable=0;movable=0;deletable=0;rotatable=0;autosize=1;" parent="THOiIpDGZ02Zs2kVVUPI-7" vertex="1" connectable="0">
          <mxGeometry y="30" width="100" height="50" as="geometry" />
        </mxCell>
        <mxCell id="THOiIpDGZ02Zs2kVVUPI-9" value="STATE_1&lt;div&gt;enter / { }&lt;/div&gt;&lt;div&gt;&lt;span style=&quot;background-color: initial;&quot;&gt;do / { }&lt;/span&gt;&lt;br&gt;&lt;/div&gt;&lt;div&gt;&lt;div&gt;&lt;span style=&quot;background-color: initial;&quot;&gt;exit / { }&lt;/span&gt;&lt;br&gt;&lt;/div&gt;&lt;/div&gt;&lt;div&gt;&lt;span style=&quot;background-color: initial;&quot;&gt;&lt;br&gt;&lt;/span&gt;&lt;/div&gt;" style="rounded=1;whiteSpace=wrap;html=1;verticalAlign=top;align=left;spacingLeft=2;arcSize=9;fontFamily=Lucida Console;" parent="1" vertex="1">
          <mxGeometry x="5" y="420" width="145" height="70" as="geometry" />
        </mxCell>
        <mxCell id="THOiIpDGZ02Zs2kVVUPI-10" value="Plain text based state.&lt;div&gt;&lt;/div&gt;&lt;div&gt;Equivalent to other STATE_1&lt;/div&gt;&lt;div&gt;except that this shape can&#39;t have sub states.&lt;/div&gt;" style="shape=note;strokeWidth=2;fontSize=14;size=12;whiteSpace=wrap;html=1;fillColor=#fff2cc;strokeColor=#d6b656;fontColor=#303000;align=left;spacingLeft=5;verticalAlign=middle;fontFamily=Helvetica;" parent="1" vertex="1">
          <mxGeometry x="5" y="330" width="205" height="70" as="geometry" />
        </mxCell>
        <mxCell id="THOiIpDGZ02Zs2kVVUPI-12" value="State &quot;group&quot; shape that can easily have sub states added to it." style="shape=note;strokeWidth=2;fontSize=14;size=12;whiteSpace=wrap;html=1;fillColor=#fff2cc;strokeColor=#d6b656;fontColor=#303000;align=left;spacingLeft=5;verticalAlign=middle;fontFamily=Helvetica;" parent="1" vertex="1">
          <mxGeometry x="240" y="330" width="245" height="70" as="geometry" />
        </mxCell>
        <mxCell id="THOiIpDGZ02Zs2kVVUPI-13" value="These shapes have more connection points.&amp;nbsp;&lt;div&gt;You can add/edit connection points on any shape. See &lt;a href=&quot;https://github.com/StateSmith/StateSmith-drawio-plugin/wiki/How-to-Use#add-shape-connection-points&quot;&gt;here&lt;/a&gt;.&lt;/div&gt;" style="shape=note;strokeWidth=2;fontSize=14;size=12;whiteSpace=wrap;html=1;fillColor=#fff2cc;strokeColor=#d6b656;fontColor=#303000;align=left;spacingLeft=5;verticalAlign=middle;fontFamily=Helvetica;" parent="1" vertex="1">
          <mxGeometry x="510" y="330" width="550" height="60" as="geometry" />
        </mxCell>
        <mxCell id="THOiIpDGZ02Zs2kVVUPI-14" value="STATE_1" style="shape=swimlane;rotatable=0;align=center;verticalAlign=top;fontFamily=Lucida Console;startSize=30;fontSize=14;fontStyle=1;fontColor=#ffffff;fillColor=#1ba1e2;swimlaneFillColor=default;rounded=1;arcSize=15;absoluteArcSize=1;points=[[0,0,0,0,0],[0,0.06,0,0,0],[0,0.13,0,0,0],[0,0.19,0,0,0],[0,0.25,0,0,0],[0,0.31,0,0,0],[0,0.38,0,0,0],[0,0.44,0,0,0],[0,0.5,0,0,0],[0,0.56,0,0,0],[0,0.63,0,0,0],[0,0.69,0,0,0],[0,0.75,0,0,0],[0,0.81,0,0,0],[0,0.88,0,0,0],[0,0.94,0,0,0],[0,1,0,0,0],[0.06,0,0,0,0],[0.06,1,0,0,0],[0.13,0,0,0,0],[0.13,1,0,0,0],[0.19,0,0,0,0],[0.19,1,0,0,0],[0.25,0,0,0,0],[0.25,1,0,0,0],[0.31,0,0,0,0],[0.31,1,0,0,0],[0.38,0,0,0,0],[0.38,1,0,0,0],[0.44,0,0,0,0],[0.44,1,0,0,0],[0.5,0,0,0,0],[0.5,1,0,0,0],[0.56,0,0,0,0],[0.56,1,0,0,0],[0.63,0,0,0,0],[0.63,1,0,0,0],[0.69,0,0,0,0],[0.69,1,0,0,0],[0.75,0,0,0,0],[0.75,1,0,0,0],[0.81,0,0,0,0],[0.81,1,0,0,0],[0.88,0,0,0,0],[0.88,1,0,0,0],[0.94,0,0,0,0],[0.94,1,0,0,0],[1,0,0,0,0],[1,0.06,0,0,0],[1,0.13,0,0,0],[1,0.19,0,0,0],[1,0.25,0,0,0],[1,0.31,0,0,0],[1,0.38,0,0,0],[1,0.44,0,0,0],[1,0.5,0,0,0],[1,0.56,0,0,0],[1,0.63,0,0,0],[1,0.69,0,0,0],[1,0.75,0,0,0],[1,0.81,0,0,0],[1,0.88,0,0,0],[1,0.94,0,0,0],[1,1,0,0,0]];strokeColor=#006EAF;" parent="1" vertex="1">
          <mxGeometry x="810" y="420" width="250" height="90" as="geometry" />
        </mxCell>
        <mxCell id="THOiIpDGZ02Zs2kVVUPI-15" value="enter / {  }&#xa;do / {  }&#xa;exit / {  }" style="fontFamily=Lucida Console;align=left;verticalAlign=top;fillColor=none;gradientColor=none;strokeColor=none;rounded=0;spacingLeft=4;resizable=0;movable=0;deletable=0;rotatable=0;autosize=1;" parent="THOiIpDGZ02Zs2kVVUPI-14" vertex="1" connectable="0">
          <mxGeometry y="30" width="100" height="50" as="geometry" />
        </mxCell>
        <mxCell id="THOiIpDGZ02Zs2kVVUPI-16" value="$choice : my_label" style="fontFamily=Lucida Console;align=center;verticalAlign=middle;shape=rhombus;rotatable=0;labelPosition=center;verticalLabelPosition=top;strokeWidth=1;fillColor=#FFFFFF;gradientColor=#d4d4d4cc;noLabel=0;points=[[0,0.5,0,0,0],[0.25,0.25,0,0,0],[0.25,0.78,0,0,0],[0.5,0,0,0,0],[0.5,1,0,0,0],[0.75,0.78,0,0,0],[0.8,0.25,0,0,0],[1,0.5,0,0,0]];" parent="1" vertex="1">
          <mxGeometry x="660" y="775" width="40" height="40" as="geometry" />
        </mxCell>
        <mxCell id="KCnc1RyC07B4IOUb-hCN-11" value="Tips" style="text;align=left;verticalAlign=middle;resizable=0;points=[];autosize=1;strokeColor=none;fillColor=none;fontSize=27;fontStyle=1;fontFamily=Helvetica;fontColor=default;" parent="1" vertex="1">
          <mxGeometry x="10" y="-480" width="70" height="50" as="geometry" />
        </mxCell>
        <mxCell id="KCnc1RyC07B4IOUb-hCN-12" value="" style="endArrow=none;html=1;rounded=0;" parent="1" edge="1">
          <mxGeometry width="50" height="50" relative="1" as="geometry">
            <mxPoint x="5" y="-425" as="sourcePoint" />
            <mxPoint x="1445" y="-425" as="targetPoint" />
          </mxGeometry>
        </mxCell>
        <mxCell id="KCnc1RyC07B4IOUb-hCN-13" value="&lt;div&gt;&lt;span style=&quot;&quot;&gt;&lt;b&gt;Main wiki page for draw.io&lt;/b&gt;&lt;/span&gt;&lt;/div&gt;&lt;span style=&quot;&quot;&gt;&lt;a href=&quot;https://github.com/StateSmith/StateSmith/wiki/draw.io&quot;&gt;https://github.com/StateSmith/StateSmith/wiki/draw.io&lt;/a&gt;&lt;/span&gt;&lt;div&gt;&lt;br&gt;&lt;/div&gt;&lt;div&gt;&lt;b&gt;draw.io usage tips&lt;/b&gt;&lt;/div&gt;&lt;div&gt;&lt;a href=&quot;https://github.com/StateSmith/StateSmith/wiki/draw.io:-tips&quot;&gt;https://github.com/StateSmith/StateSmith/wiki/draw.io:-tips&lt;br&gt;&lt;/a&gt;&lt;/div&gt;&lt;div&gt;&lt;br&gt;&lt;/div&gt;&lt;div&gt;&lt;b&gt;Troubleshooting&lt;/b&gt;&lt;/div&gt;&lt;div&gt;&lt;a href=&quot;https://github.com/StateSmith/StateSmith/wiki/Troubleshooting&quot;&gt;https://github.com/StateSmith/StateSmith/wiki/Troubleshooting&lt;/a&gt;&lt;br&gt;&lt;/div&gt;" style="text;html=1;align=left;verticalAlign=top;whiteSpace=wrap;rounded=0;" parent="1" vertex="1">
          <mxGeometry x="11.25" y="-402" width="442.5" height="192" as="geometry" />
        </mxCell>
        <mxCell id="JidS1JY-WBmU68CCgZlU-3" value="STATE_1" style="shape=swimlane;rotatable=0;align=center;verticalAlign=top;fontFamily=Lucida Console;startSize=30;fontSize=14;fontStyle=1;fontColor=#ffffff;fillColor=#1ba1e2;swimlaneFillColor=default;rounded=1;arcSize=15;absoluteArcSize=1;points=[[0,0,0,0,0],[0,0.1,0,0,0],[0,0.2,0,0,0],[0,0.3,0,0,0],[0,0.4,0,0,0],[0,0.5,0,0,0],[0,0.6,0,0,0],[0,0.7,0,0,0],[0,0.8,0,0,0],[0,0.9,0,0,0],[0,1,0,0,0],[0.1,0,0,0,0],[0.1,1,0,0,0],[0.2,0,0,0,0],[0.2,1,0,0,0],[0.3,0,0,0,0],[0.3,1,0,0,0],[0.4,0,0,0,0],[0.4,1,0,0,0],[0.5,0,0,0,0],[0.5,1,0,0,0],[0.6,0,0,0,0],[0.6,1,0,0,0],[0.7,0,0,0,0],[0.7,1,0,0,0],[0.8,0,0,0,0],[0.8,1,0,0,0],[0.9,0,0,0,0],[0.9,1,0,0,0],[1,0,0,0,0],[1,0.1,0,0,0],[1,0.2,0,0,0],[1,0.3,0,0,0],[1,0.4,0,0,0],[1,0.5,0,0,0],[1,0.6,0,0,0],[1,0.7,0,0,0],[1,0.8,0,0,0],[1,0.9,0,0,0],[1,1,0,0,0]];strokeColor=#006EAF;" parent="1" vertex="1">
          <mxGeometry x="670" y="420" width="120" height="90" as="geometry" />
        </mxCell>
        <mxCell id="JidS1JY-WBmU68CCgZlU-4" value="enter / {  }&#xa;do / {  }&#xa;exit / {  }" style="fontFamily=Lucida Console;align=left;verticalAlign=top;fillColor=none;gradientColor=none;strokeColor=none;rounded=0;spacingLeft=4;resizable=0;movable=0;deletable=0;rotatable=0;autosize=1;" parent="JidS1JY-WBmU68CCgZlU-3" vertex="1" connectable="0">
          <mxGeometry y="30" width="100" height="50" as="geometry" />
        </mxCell>
        <mxCell id="JidS1JY-WBmU68CCgZlU-5" value="STATE_1" style="shape=swimlane;rotatable=0;align=center;verticalAlign=top;fontFamily=Lucida Console;startSize=30;fontSize=14;fontStyle=1;fontColor=#ffffff;fillColor=#1ba1e2;swimlaneFillColor=default;rounded=1;arcSize=15;absoluteArcSize=1;points=[[0,0,0,0,0],[0,0.13,0,0,0],[0,0.25,0,0,0],[0,0.38,0,0,0],[0,0.5,0,0,0],[0,0.63,0,0,0],[0,0.75,0,0,0],[0,0.88,0,0,0],[0,1,0,0,0],[0.13,0,0,0,0],[0.13,1,0,0,0],[0.25,0,0,0,0],[0.25,1,0,0,0],[0.38,0,0,0,0],[0.38,1,0,0,0],[0.5,0,0,0,0],[0.5,1,0,0,0],[0.63,0,0,0,0],[0.63,1,0,0,0],[0.75,0,0,0,0],[0.75,1,0,0,0],[0.88,0,0,0,0],[0.88,1,0,0,0],[1,0,0,0,0],[1,0.13,0,0,0],[1,0.25,0,0,0],[1,0.38,0,0,0],[1,0.5,0,0,0],[1,0.63,0,0,0],[1,0.75,0,0,0],[1,0.88,0,0,0],[1,1,0,0,0]];strokeColor=#006EAF;" parent="1" vertex="1">
          <mxGeometry x="510" y="420" width="120" height="90" as="geometry" />
        </mxCell>
        <mxCell id="JidS1JY-WBmU68CCgZlU-6" value="enter / {  }&#xa;do / {  }&#xa;exit / {  }" style="fontFamily=Lucida Console;align=left;verticalAlign=top;fillColor=none;gradientColor=none;strokeColor=none;rounded=0;spacingLeft=4;resizable=0;movable=0;deletable=0;rotatable=0;autosize=1;" parent="JidS1JY-WBmU68CCgZlU-5" vertex="1" connectable="0">
          <mxGeometry y="30" width="100" height="50" as="geometry" />
        </mxCell>
        <mxCell id="OrgVsQ4qPEvQc6joGMdC-1" value="&lt;div&gt;&lt;span style=&quot;&quot;&gt;&lt;b&gt;&lt;font style=&quot;font-size: 16px;&quot;&gt;Helpful shortcuts&lt;/font&gt;&lt;/b&gt;&lt;/span&gt;&lt;/div&gt;&lt;div&gt;&lt;ul&gt;&lt;li&gt;&lt;font style=&quot;font-size: 12px;&quot;&gt;go up a pages:&amp;nbsp;&lt;font style=&quot;font-size: 12px;&quot; face=&quot;Lucida Console&quot;&gt;&lt;font style=&quot;font-size: 12px;&quot; color=&quot;#0066cc&quot;&gt;CTRL+SHIFT+PG_UP&lt;/font&gt;&amp;nbsp;&lt;/font&gt;&lt;/font&gt;&lt;/li&gt;&lt;li&gt;&lt;font style=&quot;font-size: 12px;&quot; face=&quot;Lucida Console&quot;&gt;&lt;span style=&quot;font-family: Helvetica;&quot;&gt;go down a page:&lt;/span&gt;&amp;nbsp;&lt;font style=&quot;font-size: 12px;&quot; color=&quot;#0066cc&quot;&gt;CTRL+SHIFT+PG_DOWN&lt;/font&gt;&lt;/font&gt;&lt;/li&gt;&lt;li style=&quot;box-sizing: border-box;&quot;&gt;&lt;font style=&quot;font-size: 12px;&quot;&gt;enter a group:&lt;code style=&quot;box-sizing: border-box; padding: 0.2em 0.4em; margin: 0px; white-space-collapse: break-spaces; background-color: var(--bgColor-neutral-muted, var(--color-neutral-muted)); border-radius: 6px;&quot;&gt;&lt;font style=&quot;font-size: 12px;&quot; color=&quot;#0066cc&quot; face=&quot;Lucida Console&quot;&gt;CTRL+SHIFT+END&lt;/font&gt;&lt;/code&gt;&lt;/font&gt;&lt;/li&gt;&lt;li style=&quot;box-sizing: border-box; margin-top: 0.25em;&quot;&gt;&lt;font style=&quot;font-size: 12px;&quot;&gt;exit a group:&lt;code style=&quot;box-sizing: border-box; padding: 0.2em 0.4em; margin: 0px; white-space-collapse: break-spaces; background-color: var(--bgColor-neutral-muted, var(--color-neutral-muted)); border-radius: 6px;&quot;&gt;&lt;font style=&quot;font-size: 12px;&quot; color=&quot;#0066cc&quot; face=&quot;Lucida Console&quot;&gt;CTRL+SHIFT+HOME&lt;/font&gt;&lt;/code&gt;&lt;/font&gt;&lt;/li&gt;&lt;li style=&quot;box-sizing: border-box; margin-top: 0.25em;&quot;&gt;&lt;font style=&quot;font-size: 12px;&quot;&gt;exit to root:&amp;nbsp;&lt;code style=&quot;box-sizing: border-box; padding: 0.2em 0.4em; margin: 0px; white-space-collapse: break-spaces; background-color: var(--bgColor-neutral-muted, var(--color-neutral-muted)); border-radius: 6px;&quot;&gt;&lt;font style=&quot;font-size: 12px;&quot; color=&quot;#0066cc&quot; face=&quot;Lucida Console&quot;&gt;SHIFT+HOME&lt;/font&gt;&lt;/code&gt;&lt;/font&gt;&lt;/li&gt;&lt;/ul&gt;&lt;/div&gt;&lt;div&gt;&lt;br&gt;&lt;/div&gt;" style="text;html=1;align=left;verticalAlign=top;whiteSpace=wrap;rounded=0;" parent="1" vertex="1">
          <mxGeometry x="470" y="-402" width="530" height="192" as="geometry" />
        </mxCell>
        <mxCell id="inE1e8qNggDrZwxTO7KQ-1" value="&lt;span style=&quot;color: rgb(250, 250, 250); font-family: &amp;quot;Lucida Console&amp;quot;; font-size: 14px; font-weight: 700; text-wrap: nowrap;&quot;&gt;$STATEMACHINE : {fileName}&lt;/span&gt;" style="rounded=1;whiteSpace=wrap;html=1;fillColor=#1ba1e2;fontColor=#ffffff;strokeColor=#006EAF;connectable=0;allowArrows=0;" parent="1" vertex="1">
          <mxGeometry x="5" y="120" width="395" height="35" as="geometry" />
        </mxCell>
        <mxCell id="SZ6MZoNXvt2rsGTTfR6_-1" value="Below uses the file name for the state machine name.&lt;div&gt;https://github.com/StateSmith/StateSmith/issues/330&lt;div&gt;&lt;/div&gt;&lt;/div&gt;" style="shape=note;strokeWidth=2;fontSize=14;size=20;whiteSpace=wrap;html=1;fillColor=#fff2cc;strokeColor=#d6b656;fontColor=#303000;align=left;spacingLeft=5;verticalAlign=middle;fontFamily=Helvetica;" parent="1" vertex="1">
          <mxGeometry x="5" y="50" width="395" height="56.25" as="geometry" />
        </mxCell>
        <mxCell id="yyhhArBecVeN2Ec1ix6R-1" value="&lt;span style=&quot;color: rgb(250, 250, 250); font-family: &amp;quot;Lucida Console&amp;quot;; font-size: 14px; font-weight: 700; text-wrap: nowrap;&quot;&gt;$STATEMACHINE : SMSodaStreamPure&lt;/span&gt;" style="rounded=1;whiteSpace=wrap;html=1;fillColor=#1ba1e2;fontColor=#ffffff;strokeColor=#006EAF;connectable=0;allowArrows=0;" parent="1" vertex="1">
          <mxGeometry x="2.5" y="-20" width="477.5" height="35" as="geometry" />
        </mxCell>
        <mxCell id="gilnU75VA4Pi0Fp9G4X0-1" value="STATE_1" style="shape=swimlane;rotatable=0;align=center;verticalAlign=top;fontFamily=Lucida Console;startSize=30;fontSize=14;fontStyle=1;fontColor=#ffffff;fillColor=#1ba1e2;swimlaneFillColor=default;rounded=1;arcSize=15;absoluteArcSize=1;points=[[0,0,0,0,0],[0,0.06,0,0,0],[0,0.13,0,0,0],[0,0.19,0,0,0],[0,0.25,0,0,0],[0,0.31,0,0,0],[0,0.38,0,0,0],[0,0.44,0,0,0],[0,0.5,0,0,0],[0,0.56,0,0,0],[0,0.63,0,0,0],[0,0.69,0,0,0],[0,0.75,0,0,0],[0,0.81,0,0,0],[0,0.88,0,0,0],[0,0.94,0,0,0],[0,1,0,0,0],[0.06,0,0,0,0],[0.06,1,0,0,0],[0.13,0,0,0,0],[0.13,1,0,0,0],[0.19,0,0,0,0],[0.19,1,0,0,0],[0.25,0,0,0,0],[0.25,1,0,0,0],[0.31,0,0,0,0],[0.31,1,0,0,0],[0.38,0,0,0,0],[0.38,1,0,0,0],[0.44,0,0,0,0],[0.44,1,0,0,0],[0.5,0,0,0,0],[0.5,1,0,0,0],[0.56,0,0,0,0],[0.56,1,0,0,0],[0.63,0,0,0,0],[0.63,1,0,0,0],[0.69,0,0,0,0],[0.69,1,0,0,0],[0.75,0,0,0,0],[0.75,1,0,0,0],[0.81,0,0,0,0],[0.81,1,0,0,0],[0.88,0,0,0,0],[0.88,1,0,0,0],[0.94,0,0,0,0],[0.94,1,0,0,0],[1,0,0,0,0],[1,0.06,0,0,0],[1,0.13,0,0,0],[1,0.19,0,0,0],[1,0.25,0,0,0],[1,0.31,0,0,0],[1,0.38,0,0,0],[1,0.44,0,0,0],[1,0.5,0,0,0],[1,0.56,0,0,0],[1,0.63,0,0,0],[1,0.69,0,0,0],[1,0.75,0,0,0],[1,0.81,0,0,0],[1,0.88,0,0,0],[1,0.94,0,0,0],[1,1,0,0,0]];strokeColor=#006EAF;labelBackgroundColor=none;" parent="1" vertex="1">
          <mxGeometry x="1100" y="430" width="250" height="90" as="geometry">
            <mxRectangle x="640" y="180" width="150" height="70" as="alternateBounds" />
          </mxGeometry>
        </mxCell>
        <mxCell id="gilnU75VA4Pi0Fp9G4X0-2" value="&lt;font color=&quot;#00cc00&quot;&gt;enter&lt;/font&gt;&amp;nbsp;/&amp;nbsp;&lt;br&gt;&lt;font color=&quot;#007fff&quot;&gt;do&lt;/font&gt;&amp;nbsp;/&amp;nbsp;&lt;br&gt;&lt;font color=&quot;#cc0000&quot;&gt;exit&lt;/font&gt;&amp;nbsp;/&amp;nbsp;" style="fontFamily=Lucida Console;align=left;verticalAlign=top;fillColor=none;gradientColor=none;strokeColor=none;rounded=0;spacingLeft=4;resizable=0;movable=0;deletable=0;rotatable=0;autosize=1;html=1;fontSize=12;fontColor=default;labelBackgroundColor=default;" parent="gilnU75VA4Pi0Fp9G4X0-1" vertex="1" connectable="0">
          <mxGeometry y="30" width="80" height="60" as="geometry" />
        </mxCell>
        <mxCell id="gilnU75VA4Pi0Fp9G4X0-4" value="&lt;div&gt;STATE_1&lt;div&gt;enter /&amp;nbsp;&lt;/div&gt;&lt;div&gt;&lt;span style=&quot;background-color: initial;&quot;&gt;do /&amp;nbsp;&lt;/span&gt;&lt;br&gt;&lt;/div&gt;&lt;div&gt;&lt;span style=&quot;background-color: initial;&quot;&gt;exit /&amp;nbsp;&lt;/span&gt;&lt;br&gt;&lt;/div&gt;&lt;/div&gt;&lt;div&gt;&lt;span style=&quot;background-color: initial;&quot;&gt;&lt;br&gt;&lt;/span&gt;&lt;/div&gt;" style="rounded=1;whiteSpace=wrap;html=1;verticalAlign=top;align=left;spacingLeft=2;arcSize=9;fontFamily=Lucida Console;" parent="1" vertex="1">
          <mxGeometry x="5" y="510" width="145" height="70" as="geometry" />
        </mxCell>
        <mxCell id="gilnU75VA4Pi0Fp9G4X0-5" value="STATE_1" style="shape=swimlane;rotatable=0;align=center;verticalAlign=top;fontFamily=Lucida Console;startSize=30;fontSize=14;fontStyle=1;fontColor=#ffffff;fillColor=#1ba1e2;swimlaneFillColor=default;rounded=1;arcSize=15;absoluteArcSize=1;points=[[0,0,0,0,0],[0,0.06,0,0,0],[0,0.13,0,0,0],[0,0.19,0,0,0],[0,0.25,0,0,0],[0,0.31,0,0,0],[0,0.38,0,0,0],[0,0.44,0,0,0],[0,0.5,0,0,0],[0,0.56,0,0,0],[0,0.63,0,0,0],[0,0.69,0,0,0],[0,0.75,0,0,0],[0,0.81,0,0,0],[0,0.88,0,0,0],[0,0.94,0,0,0],[0,1,0,0,0],[0.06,0,0,0,0],[0.06,1,0,0,0],[0.13,0,0,0,0],[0.13,1,0,0,0],[0.19,0,0,0,0],[0.19,1,0,0,0],[0.25,0,0,0,0],[0.25,1,0,0,0],[0.31,0,0,0,0],[0.31,1,0,0,0],[0.38,0,0,0,0],[0.38,1,0,0,0],[0.44,0,0,0,0],[0.44,1,0,0,0],[0.5,0,0,0,0],[0.5,1,0,0,0],[0.56,0,0,0,0],[0.56,1,0,0,0],[0.63,0,0,0,0],[0.63,1,0,0,0],[0.69,0,0,0,0],[0.69,1,0,0,0],[0.75,0,0,0,0],[0.75,1,0,0,0],[0.81,0,0,0,0],[0.81,1,0,0,0],[0.88,0,0,0,0],[0.88,1,0,0,0],[0.94,0,0,0,0],[0.94,1,0,0,0],[1,0,0,0,0],[1,0.06,0,0,0],[1,0.13,0,0,0],[1,0.19,0,0,0],[1,0.25,0,0,0],[1,0.31,0,0,0],[1,0.38,0,0,0],[1,0.44,0,0,0],[1,0.5,0,0,0],[1,0.56,0,0,0],[1,0.63,0,0,0],[1,0.69,0,0,0],[1,0.75,0,0,0],[1,0.81,0,0,0],[1,0.88,0,0,0],[1,0.94,0,0,0],[1,1,0,0,0]];strokeColor=#006EAF;labelBackgroundColor=none;" parent="1" vertex="1">
          <mxGeometry x="1100" y="530" width="250" height="90" as="geometry">
            <mxRectangle x="640" y="180" width="150" height="70" as="alternateBounds" />
          </mxGeometry>
        </mxCell>
        <mxCell id="gilnU75VA4Pi0Fp9G4X0-6" value="&lt;font color=&quot;#00cc00&quot;&gt;enter&lt;/font&gt;&amp;nbsp;/ { }&lt;br&gt;&lt;font color=&quot;#007fff&quot;&gt;do&lt;/font&gt;&amp;nbsp;/ { }&lt;br&gt;&lt;font color=&quot;#cc0000&quot;&gt;exit&lt;/font&gt;&amp;nbsp;/ { }" style="fontFamily=Lucida Console;align=left;verticalAlign=top;fillColor=none;gradientColor=none;strokeColor=none;rounded=0;spacingLeft=4;resizable=0;movable=0;deletable=0;rotatable=0;autosize=1;html=1;fontSize=12;fontColor=default;labelBackgroundColor=default;" parent="gilnU75VA4Pi0Fp9G4X0-5" vertex="1" connectable="0">
          <mxGeometry y="30" width="110" height="60" as="geometry" />
        </mxCell>
        <mxCell id="gilnU75VA4Pi0Fp9G4X0-7" value="You can add color to your behaviors by enabling &quot;Formatted Text&quot;. This essentially makes the draw.io text render html.&amp;nbsp;&lt;b&gt;&lt;font color=&quot;#99004d&quot;&gt;&lt;span style=&quot;background-color: initial;&quot;&gt;StateSmith lib versions below 0.17.1&amp;nbsp;&lt;/span&gt;&lt;span style=&quot;background-color: initial;&quot;&gt;will occasionally parse &lt;a href=&quot;https://github.com/StateSmith/StateSmith/issues/414&quot;&gt;html line endings incorrectly&lt;/a&gt;.&lt;/span&gt;&lt;/font&gt;&lt;/b&gt;&lt;span style=&quot;background-color: initial;&quot;&gt; If you run into that, try replacing draw.io line ending, or disable &quot;Formatted Text&quot;, or toggle that checkbox.&lt;/span&gt;" style="shape=note;strokeWidth=2;fontSize=14;size=12;whiteSpace=wrap;html=1;fillColor=#fff2cc;strokeColor=#d6b656;fontColor=#303000;align=left;spacingLeft=5;verticalAlign=middle;fontFamily=Helvetica;" parent="1" vertex="1">
          <mxGeometry x="1100" y="315" width="540" height="90" as="geometry" />
        </mxCell>
        <mxCell id="gilnU75VA4Pi0Fp9G4X0-8" value="" style="shape=image;verticalLabelPosition=bottom;labelBackgroundColor=default;verticalAlign=top;aspect=fixed;imageAspect=0;image=data:image/png,iVBORw0KGgoAAAANSUhEUgAAAPAAAAFqCAYAAAAk39cDAAAAAXNSR0IArs4c6QAAAARnQU1BAACxjwv8YQUAAAAJcEhZcwAADsMAAA7DAcdvqGQAADdMSURBVHhe7Z0NfBXllf9/Aamtmpd/TIICiSS+EQgQXAlQXowItLtVgWhfsFAERGq7qzTQbbtuBbq17W6Fwqf710VERFjtWg1Qtd0ipfEFlVBLsIEgKsFEUJKYJYm6bZGw5zzzzL1zJ3Nv7svcmzs358vnYWaeec3c+c05zzMz56TN+vKcsxAEwZOkUREBx8Dg/AI9JkTL2M9OxPb/elxPCZHQTw+FKOGLTxB6CxGwIHgYEbAgeBgRsCB4GBGwIHgYEbAgeBgRsCB4GBGwIHgYEbAgeBgRsCB4GBGwIHiYBL4LPQ53rP4SLtNTTNtLa3DvtuN6KkzyK3D30onIbtuDNfdWIcK1XWfWl+dg38t79JQQDe69Cz0YFXdXYmI2j7+FJ5Y9gL2qPnVJjAVm0dnEa2Xw7LuxevVq3DFeVwhByMXUhXehcqlzWVSeq5fro+SPQ7ESL3MZruoD11NCBDz46mKo88pWc9kyLOOydg/a1FxgSJ7vrAu9REkF3wQWYOpAXeFBzOvsrSNvqenLRo9Tw1QmMS70+Duw+otsf9uwZ+29qGoyqgNdHk1bLWpRilKqe+uXy/DAq1yp3W++ATwK3Gp3oU23mseJqFzzKOk1F3pgORbNGY3MjgPY+nA1mnV1dLBlvwWlGR2ofXwTdp/U1QnCHRfavJb4GtuFgUvZ47O60Zb5v6xH8RcnAi9tRf3wubY6unbeu1FfrxrLtTZuyWp86Qq+Ntfg5HX62rU158xl1PX+UhsmTqJtWZZhj7Nyku9qtWkiMhLjQr/6RzqVTDYmLl1N7vLdqMhXFQ58hLpDhm323UHHX6Xc77ZDe7u3eW3iZbInVfZZdzyvfIHFrdYWlcWu624u4aX8rvii8vG4eSmLl+szUDqH6itG8IS3MN3ntnrsbdqLPx7hSmc3uvi6wOuFsdYNvtg2N3siKpcEWvPs6271Gx6af+vswWqUxWmIl6HrncVrIVC8DGviDjJR0ZGgXui9eIDc5ifUSWUMId8x/jiq7vXXs8VdRnep/dt2GYK/4ir1h40bbVjv+j90t6rj/s448Wx1lWv+y77jPtlh8c41lKhhQVag5GQ1nq7tUDUFZeXIK5lsCLZxFzZWd6p6r2O6z+ZN/t1mmxHwQUsdMq6Ve7eZfou17jiOb7vXuJa4mE29nMFkw/1kt+5S89eQhVXTeUPo/3G4UYmTraqxvjnfoPt849qPvr2e0MdIe9dbD5oO+7qKgJPix3oHHYer+I6m7qxc5wxbXe4IC3B9+hQjMEWpkt3gdVizdh12NnJ9PoaR1W2ufgZKwxmjMXcauz9N2Fl1kIYH8eTax4x55rqq3ksMxrjhLAz/deCzctoI+HEyBIF17AKra4mLzbszeeuA4Zgff88qUJM2HNfX6vE/1NOUHdMTNV3t6EmMgKkNbHVp9x4wrGQo9v7auPNlXzdNuc9v/S70IyOfBTbL+lR/gBAM7QaTezwjINpPC3bX+O+A7bUvok6Pe56A3mc7EVo3apJNUwaD2qx8HWmPLjKyMVg3EX0duAH4LbBZjL6eyEmYBb7si5a7mraS9jatWuZubZWpHVNPCs7O5j//LfwxyB9o3gx8FliVUG3sVMdvgc3ypFIqtXvL/Ccls/R6T/c4W/GJ5MgTAaIwPb3si539PEeajhsWk9u9lms1PEzP0W9hA9u73eerYl7zUZAYAR8/2c2NsPYUm9Y2kOPYqzuzcOSPuifRgVcfiPIumWocxGHlMvstsCoLqc1LtXnl1/vavVsNXxqlE+2dVV7sxPK7z23N76qhie/mPnxcBALZi1/52q1kKX/pdG0GZ+/6NdjjW+EtPGFem63UtqYBNyP9fUGxk8RRKf2PmPyPk5KPZHuMxM9zA1xnnl+Trdu95mOiEbh56TTwYu21j2FjdQuviEq1DEEiT2Q7OHWjUvqv4Xg92kxKAfufoxG2Z2zJhrxKGTupJODuj4mY+L3WmdBe6MihPzyJxSsIPRPfd7IlsHuMiAWOndR1oeNPkltgQRBCIQIWBA8jAhYEDyMCFgQPIwIWBA8jAhYEDyMCFgQPIxn6XUCeA8cGPwcWoiNtcH6BCFgQPIq40ILgYUTAguBhRMCC4GFEwILgYUTAguBhRMCC4GFEwILgYUTAguBhRMCC4GFEwILgYUTAguBhRMCC4GFEwILgYUTAguBhRMCC4GFEwILgYWL4oN+fIMuHLdGWIAjxJXYBuyxaI7teE3aurUqdBNSCECeSzIUegWEBJl0QhFDEyQLb3Wu/RTUsbAfaOzKQyQmnCSNHbV43l7xxl5ldXhAEJ/pnZGau1OMRkofh44uQee5FGDV+PCZQGf7po9h/7HxMXTgTV57Lon0EO179EIPHj8FV4wej89V6oHg8Ls08F80vrsPGX/G8Igy8KIvmvYBqtSxtUwn+EVRLY1oQQhK7C80WeO06rKGiMr0PHIFCtqyNb+g27EEcbuRhJvIGqgqiA220KMhut3Xw0DpPEIRwkcdIguBh3BfwyYNoYKtacCVKVIXumOpoQN1JVREC0yILghAOcbDALdj98C40Ih8zlt6FStUxRW3asB410bo1TTQ01r3ZuAMIghAEycwgCB5G2sCC4GFEwILgYUTAguBhRMCC4GFEwILgYUTAguBhRMCC4GFEwILgYUTAguBhRMCC4GGiepXy/AsuwKAh+cjIykK/fnIPEIRw6OrqQsepUzjxbhM++vBDXRsbEQuYxTusZCSajh3DBy3NOHPmjJ4jCEIo+vfvjwtz85A/dCgO1/3JFRFHbD7Z8rJ4m99/T8QrCBHAemHdsH5YR24QsYDZbWbLKwhCdLB+WEduELGAuc0rllcQoof141bfkfRACYKHEQELgocRAUfLqiq8vm2Fnoie+RteCL6daPcxdz321O7H67psX6XrE8TKbYnfZ19FBNzLbF48BaNmu3e1qxvC8lw8VzoGo3SpHbQe8/V8wV340dBll12mp7rD8+L5roQIOKVYgdljW1FVWgFrtP6Vi5dgsx4X3GfK5EkYe/XVesoP1/G8tLQ0XeM+ImBXmYeHXnwBD83Vk/bpANe2SomMLeaeDfOM+Wp5cz6tN0hXM+xO+9a17sPCqtEoajgQIN5ArNunYnHPDbd3BbY7zFNWvVt98G0FErhcqrnW3KO8+dEtGDlyJMaPH69roca5jufF86mNCDhhkDiWF6P+PtO1DbSSzMptlShr3a7nbwCGFeo5xIoKXU9lRyvKbuoumPmDctDZelRP2WEhVaL48Brfdqowy3LzAIpmjkatmrcdRwuv0zcJ06rrfSt3v+dtGfByi4H1el3aLmYaN65UwhDxoygeNgzXlpdj6rXXqnGui/cjVxFwolDW8Xe4baue7sY8DMlpQJWvPbwFt+1u0OOMxZLNJGHnDOrWrt18ohXpOUV6yk4RclCDBxdv0dN0w3iqhm4Sk3zbObrDvKmsQm1DOnIuV7Vo7SxExYvWdnTP2zKg5dLTUbbctMCz1JpDnLwHj8NCfXTLFtXmHTp0qBqPt3gZEXCCCG0dGb7Y9Wg3DIuXs1tbsvtq0KnnBPBmCzoLR7ts4ehGMpn2uR64PaSrHAy6KWkrbZQpIW5i3oYF+8jmzQmxvCYiYFfZgndb01F8jXYl505CsRbl5ufrgbGLnduuCrZ6hZhubQ9PNV1oFncnWt80puZfUwxHrW9dgudoG4HWkrazjafJkqIMt1vc3JU3lQGHXwqvg4u2PVG51nyDCHdbhvX2/02pz+nTpxMmXkYEHAuFs3ydM2anlHIlx1YadUty0WKaShYAt1197mT3tuDK2dvRYq5bS23Hw6YLvQrb9sG37u05rc4WmFg5ewxWHy7GMrUNvZ2nuBeaLal1+/tRge2YaHGDnbF0bJELDOVmh7ut7su9HnBzEWIl4s8Jx352Iva9vEdPCYIQDW7pSCywIHiYiAXMUQX47RNBEKKD9cM6coOIBcwhQTiqgCAI0cH6YR25QcQC5ng+HBIk76KLxRILQgSwXlg3rB/WkRtIUDtBSBBJEdROEITkQcynIHgYEbAgeBgRsCB4GBGwIHiYqDqxbrzhepSWluLcT31K18SPv/z1r6itrcWvnn5G1/iR44gOrx2vEJyIBcw//oBzBuC/d+7ERx99pGvjx/nnn4/Pz5iB05+cDrgI5DgCjyNcvHa8QmgidqH5zp2oH5/h/fD+eL9W5DgCjyNcvHa8QmgitsD3/ssPcPf379FTicO+XzmO6PabTMfr9ReCnF7MuKSoSL0qGewtRf5WmFOrvHM0VHCH8BEBR0iyHke4JMvxpkKWSxapNdtgTl4e3Yj6o+mdY/jk9Gm9VCDnDBiA/EuGkvjPuCJi6YUWeoVUyHLJx23NNshiDiVehufxMm59ECQCFnqFVMpyaWYbZIscSrwmvIxbHwKJgIVuvNv4jh4LJNL6UKRSlkv+O4K14b/wt59XJV6IgIUATDHaRRlpvWCI96677lIlXiKOq4D5R3Uqda8f0Ev0Lcy/306w+kRjPwZzOtJ6wS9ek3iJOGEWeEjBJaqcOnUKWdRe6C0R80XmVAT/bxTreDLAqWICMkUEpKaJb4oXU6jr1q0LKIzbIk64C82v1TEs4t6AL7K1a9eqcb6ZJNuFJ8QOi7fCkpVGhcadCX+A+R0NKIpjipdnf/PfIYubJFzA5hs5ppB7g6VLl6phyajRaiikCkb6GY5RXWXNSoNVmGXNRbXiAI6iEKXdrLCx/vYN/iR0phUPtOh6uSRI1JYwAZuuqml5r7+Rbom9wNZHjdwBx44dU0MhldBpYHrKtzx3EHLhz3Rhp2iszq98HwfpN7JprJy9BvXDdGaNVbNVYrdZkWaZiQO90gZmnvnVDjVMNOXl5Wo4aco1aij0Nch6LikD9m0ImqOpc982w1qrVDVmqhy6OayvR/GSF7CHbM9zQTJacMD2cIpb9FobuDdebn/phefVsLq6Wg0TjWn1b79tkRoy5rh4BImAXV8jhWuolDItJ4LMY0G3ppP4tcAd4GwL4RS36LU2sGmJEwmnfWTmfq13svOYVv+ee+7xNSl4nBGPIN5wjied07gHFzt3kL+tOyRHjzKrqqh9XeN3pZOAXmkDs3gT3YFkPrYye6B7C25GWK0tj0sveLxhyzsLufvWhJHMDUg38xyr7JKdqH+e19E92bOXaFc6OZK0xVXAZrvXXhIpXuuNg+EeaJ7uTdjamudCLG8C0Gle061ZEkM8Cz7ammtkd1xehpYdnM/YuAEYmRkJcqUf5AyQQXIl87PeUMVNEu5CJxrrjcNaEo15I+mpCO7AaVZ91lblNtbPgC0laC/y6xW2ZYzebevymxdPCeqKm896zdcozcJ4/jlwX8XpJuJUhNSAhWq+fcXwuNviZUTAguCju6WNBVPE8RIvIwIWuhHME4i0PhSplKaW/45g6UJZuPESLyMCFnqFVEpTy38H/z38XTCHzOkJXsatb6FFwEKvkAppavm4relCOTIHx7sKJWIzJpZb0UgkqF2EJOtxhEsyHa9EpYydiAV8z/f/GavX/CxhcYUZDg6+rPJb+MG//FDXyHHYjyNcvHa8Qmj6Z2RmRvRZZGZmBq68/Ao0NjXhdBgBvGLFjOx/4sQJvHHkiK6V47AfR7h47XiF0ERsgZlkya0jxxEdXjteIThRCVgQhORAeqEFwcOIgAXBw4iABcHDiIAFwcOIgAXBw8hjpDCRx0jRIb9fIG78flYiFjD/sZ+U/h1+8amx6MS5VMOrp8VtmI6/4Ct/3Ydzan8d8EfzcQw4Z0DCss2bLySc/uR0Uh5HuMjv5+3fz07ELjTfqX7R/yp0nqFVz3wS98L74f3xfq3wdKJOOsP74f0l63GEC68nv5+fZDmOaIlYwOxmdJ7tD3Sd8ZezlvE4TPP+7O4NTyfqpJvw/pL1OMKF15Pfz0+yHEe0RNeJ5bvDnraMx3lacA+n8xvvaZeQ2GGBRCfgLvpBAu60CZgW3MON3yPSaSEuRGmB9Y+SyKHgHuGcb7eHQlyI0gLzD5PgIriH0/mlcvabhVSKoh46bdNXhLgQpQU22zYJHAruEeQ8p62tj6kE264aphjJ0hZ33QKfXVocVXHaVkCJEPMER1rcxmkf4ZS44nR+411ihLNZWs8Lj/dWhstkIvo2sLqzmsU/nfbTWioH9NAsPU8H255vOkLMQOmRFrdx2kc4Ja6E+P2CTe+f+okqweb3OB0jnE+a32Ay4fHeyjGdTEQnYLN30WF49tulVEbroVm6TwdbP+gwSqxWLVRJFE77dipxJZzzbRnun35WvXjAZf/0yNdXQxcwRSzi9RNbG/gT8w5rtnXIAv9oL9J+TIWHZjGnLcNg6wdMW+dHiZN1cyqJwmnfTiWuhPj9AqZp/v7P9Q94a0iJeAZdNnp+wPK+4rB9l2Dhinj9xNYGNu+wlnL2n8bh7Peo8NAs5rR9aJlv344q1u1HiJNVC6e4jdM+wilxxen8OhWaP+aZj5F278t6RSDthy9jzLMf++Z3W8daYvj9hPCI0gLTXVU93+s+TPvBC1GVYNvzDSPEyaqFU9zGaR/hlLgS6jwHG5qEu7x9GAFON7RISl8iNgvsUM7eMyWs4rRuyBIlTj+wU0kUTvt2KnHF6fz2VEyc5oVTIsDphhZJ6UtEb4GDlLTvPxdWcVo3ZIkSpx/YqSQKp307lbjidH57KiZO88IpKUKyPc5y3wL/y/SoitO2AkqEWK1ZJMVtnPYRTokrTue3p2LiNC+c4hIslt4UjNkTbtLbPeJRCtjhDqtL2nefQdr3qPAwWHGYH7Adp+1HiJNVC6e4jdM+wilxJcTvp0qo8x9svrW48Ps5wcI1H2clg4iT4XFWbBbY7GW0DM/+5Hqc/TEVHgYrND/Y+mpoFmt9lDhZN6eSKJz27VTiitP5tQ6d5psEm28dOs2PEVO8Jskg4t4WL+N+G3jZU0hbTqWHodO6IUuUOFk3p5IonPbtVOKK0/ntqZg4zQunxAiLxXpeeDwZBNTbuN4GjlsR3MPp/PZQ0r71BNIqn3CcF1bxIE6eUSQlEURvgc12TqKGgnuEc77dHnoQq0cUTUkEYoH7Ik7nN95FiAuut4HjVgT3cDq/8S5CXBAL3BdxOr/xLi6RSPfUC0QsYI4sn96ffhDr3dVs58RpmvfH+7XC0xwkO5Hw/pL1OMKF15Pfz0+yHEe09M/IzFypx8MiMzMDwwfn4s3Os/hrVxdwliPwU4nTMP0c4Cv5QPObr+ONI0eozoCP48rLr0BjUxNOn3bvc7Vg8EnniPonTpxIyuMIF/n9vP372ZHcSGHiheMIFzlvgXjt97MSlYAFQUgOouvEEgQhKRABC4KHEQELgocRAQuChxEBC4KHkV7oPsz5F1yAQUPykZGVhX795F6eCLq6utBx6hROvNuEjz78UNdGjwi4j8LiHVYyEk3HjuGDlmaccSF7gtAz/fv3x4W5ecgfOhSH6/4Us4jltttHYcvL4m1+/z0RbwLhc83nnM89/waxIgLuo7DbzJZX6B343PNvECsi4D4Kt3nF8vYefO7d6HcQAQuChxEBC8FZVYXXa/f7yp4N8/SMaFmB7bUv4KG5elKImRgEnIupC+9C5VKzLMDUgXpWhOSVL0BlxQg9FUhJxV1YVJ6rp4SEweKdmYOa+8ZgVCmXNagfVumCiAU3idECd6D28XVYs5bK4w0onFOBEj0nEpqrN2FN1UFjoqQiQMx1VeuwsbpFTwmJYR4emlqIzn0bcNtWXYUtuG19DTB2NnwfkFst9IvrMV9V0rov7sf2bZZ521bo+lkoQjrKlptW2FjWXG77Kq4j5q7HHrLUe9S8Kv/+kpivzZuHnJwL9ZQfrpv71a/qKfdxz4U+eRANHZnIi9IKC0nE3EkoTu9E/fNbdIVm6xJMLK0wBMUi81noNahBGZYpoRoU5bRgNVvuHQ1A4XUkWLoBTN6Oo+ikdaaoG8PKbZUoa91uWHharmim1b1OR8tu3rbeXxLzpS99EcuXVeKRTZuQm5Oja8lHpXGu+8dvL8dNFRW61l3i1Aa2udcWi6rcZVs91yk3ma3vtHygYJrPJWcX+mafWQ++XWO5EbjZYZ4QDa1412d9uzP/mmKkd9bjRbUMiXM3CTVnkLbCQOfhl7CZR1YcINE6sQKlhcDR17XZXbENNZ3pyLncmKQtoPVNPZrk7N69W0XYKMjPx6ZNDyury4XHuY6jfTz/wvN6aXdxT8Alk1GKBtSdZJHdgsKjjxmuNZWdmKbbsSMwpbQdO3W9z202qavCml1NQOMumr8Ju0/qekWo7RoUTLsSh9W8XWgsKIu6TS4wORjSU2dTOlld002eSWpMzwX9r2g5YbPeQSiaabrQZI3T6VceZLaxQ99AkonW1g8wf8FCNDW9qwS7ZfNmVXic6xbQPF4mHsQo4AyUztEWbxqw8+FqNCMP2TiApy3t1ro9B+iXGkFzmtHWkY8ZC8tpPFJCbdegcVcV6tTYQRxuzEC29H1Fx9aXUE/WsPgae4cV9yJb2qQN2v31lUjdXXanreuPwcTF4Qk/2Th58iQWLV6M48ePY/DgwaqweBfedhtaWlv1Uu7jXifWWlM8oWjB7odp2WeBG8TNTWIMlzh97GJLm1R3QjUcUCLd/Hw9OlXb1pi7chtZUV9HVjisQm1DOspu0u1m1XFl6cjyIO+//z5uXbhIiZldahYvj8eTOLSBycpiNG6wuLYlE0dTY+cgzdGcrMZG5eZeGUGvdRjbFdxjRQVG7WhF2XKLi8sdTrO1wrhDyzK/orABVZOXGO3eoBxFK1l2sxd65ew1qMmZZWx/eRmwbw1m+fvBPAkLlkVsCjnexPA1ErdJrweetbdVGe5MmoYCPaXatKq9G1jfuGsdniSzzZ1YN+AZ/bjIXIat+yY0T7wLw44YywXfrtGJ5V+u+7QQyNjPTsS+l/foKaE3cOM3kM8J+ygi4N7Hjd8gTo+RBEFIBCLgPgpHhuCPy4Xegc89/waxIgLuo3BYF44MIfQOfO75N4gVEXAfhWMycViXvIsuFkucQPhc8znnc8+/QaxIJ1YfRoLaJR4JaicIgg+57QqChxEL3IcRFzrxiAstuILEhe4dJC604AoSF7p3kLjQgitIXOjeReJCCzEhcaF7F4kLLQiCCFgITcQf6qsP8xMTSZKPzRfmliNkRhRQIDWIWsCBweYYI+BcQN3Acixa6hxqNqGxoDlYnhnsTpdwjzNm4rnteENinJ7TgKMoxuSe4mP1NhyAoMeAAqlH1AKuO9KEgissAhw4AoUZQGaORXi52chsfMMx1E7CY0GrQHlm+J9dwDTLTUJFCAknJFA48I3MEuTe1W0nFo48icPbsO0w/KFvGLuV9Vm/Fdi+vAzpKESFOV+HyjGienRf5yGyor55lmWtAeTnb3hBL8PFiObBdRUcR2+sDjZvs8DKc9DrJCJMj/fiQre0oT0r1xdQLq+YzmZjU0CQuZIr8tF4xBZ5Mik4iCdJxO2lk71pGRPCPEweBhUbevPi3+Fo4egw3OJVmHVfDTrRgCoV4M4QNIfK4YB1VQ0kbKubm16GnNc5mN0a1HTSvOW5eI6D2+3geFw6gDwJc9nYVtqeEfSuSsfR2rx4Co0DnbRteyA8JW7ogHt0PLkz4+vSezMuNAdypzttibY0edlAw54XLXUk7qwOtGlDqlzucnYnDcsXbixoYzxIvGera1xRHmj5eoQjV+ZjGO+H3VwzUqYen0r7rTRdX+UG6/0EuMNGs8E8hptLjNC3pRk6Wicfq3XbTIA7bzlevVyJL252JH9LHODg7jDjPnMAukKURmrJ5g6iM9SA57TAVj5F4k63uuMNqFWGfQvebWUxbjOE9mYL3QQ07Bpbol02tPrmBIFvPOn+eNPWYPRxwqNxoVvQfCoDhcXsho7AsIJ2NJ806lQ4V3ap6Qeqs8TLKigCniYXNsA9DhkL2sAx3jNf8NMy/VExj2STcIzlYyZjNLKP8HbJ9eX9fME4brUf8r5n6JtISUVgnOon6zjq5mOo7dDROu1xr9XNCv642PZ0NLTfcXhGzdtaC5ROtNysEowK3G6J+8zuatGoCCPOXZ5L7rSFrSfoqrHQ2UJXSE8Epl9ZNjZgiw4UIaenRVzGs3GhuR2cmU22ZWCur63raxtz+/cUCdpYVNFYw3GjI8cx3rNqX9f4BV/3IglHj4eN30MIoOMAXjAbrbwfEtZc02qyt6CaDnzTasLeCNrqeTmZlr+FoPbxXtMLYGi/Ztzr5voGWJsoiWUFZpNQju4w3FajbCc32h9G1sr8QX63MQCrJWWURY6M+RsWoww1RpoWKqv39WSBOfKlHk0g3owLXfeGCg07ldu/bVqaum08Nc7tXxZDu7nPaCDLOk55DXo6FAEdYFQ4gD3ftDraUjOk7arRZMdM99bECAnrD/ZuutSGy+qIsriFmK47pFbeVGZJxxINxo0lNIY77vMWVMdYYlKaejAuNGdayEQhucYN9doS6bZxoaX9Gw/YQsHaCcWpXcJ1odktnjMa7VZrGAy+ITmlaVF/Z2Cc6p5obm2n5oDFZVY3kSYc7vEgEsvKUXRD1gHc/WzBi4c7jc4lalc+SJbQSIuyGDhscYS1aI1eaKNTC2MrtRseTuzoQFQHms+VH41aTpamczBxe9jXC23BHm+6ZYeRTC0ReCgutAF3Rs0tasBWlVbFgDueZmQd6FZnjdMcbixo+3rWabVvU7WNB1CbRReeU5xqs6PMh7Ef33JmO1dZVsu4nm1fv732MdtxG1jjXKvjYsu9JzdgewHHbD0O+36djsNFJKxs7yNxoQNgMXFnlzefuSYaEXDvI3GhLeSVl6EgyEsjgpCqeNgC29KsdAS67EJo/mb8BNTuq5EvknoJ/rC/dGwZXnv1FV0THRKRo49y+bBitJ86pT4uFxIPh5bNzMrCm4frdU10pIwLLUSGxIXuHSQutOAaEtQu8UhQO0EQfMhtVxA8jAhYEDyMCFgQPIwIWBA8jAhYEDyMCFgQPIwIWBA8jAhYEDxM2qwvz5EXOQTBoygBy3ehguA9+HticaEFwcOIgAXBw4iABcHDiIAFwcOIgAXBw0gvtJAyeCFAgZsf9HMvtAhYSAlYvMNKRqLp2DF80NKctMH6OKTOhbl5KqTO4bo/xSRieYwkpAxseVm8HKQvmSNt8rHxMfKx8jHHighYSAnYbWbL6xX4WPmYYyUmF7r/6EU4Neq76Dj9KV0TnIwBf0XW6z/BmQMbdY0guIc9y8HxpkY95j6D833RyGMi1swMMbvQ4YqX4eV4eUFIFKdOnXK9REN6evwSFsck4J7EO6A/8PslwN8OM6bDFbsgeJkLLrhAj5GVvPpq/PhH9+KG66/XNe4S1zbwgzcB5ZcCm78MnDdAVwaFU6XoJNpmWViekATXnDEw4v1yxkJadlEE6UWFvsE110zB1+bNw2cnTEB5+TVYsXIVZs68Ebm57l8rcRPwNyYAt14NnOkCbtwEfHxaz+gJznFkTaStq6OF05FWLrXk5LXB8zndJ6cGNRN47zyqZwpCFOzdW4NJkyZi3ty52PDQQ7jj60tw//0PoKXF/YTZrgk46zN6hJg0FPj5LGP8W08Dr8avP6EHRmBYqP4GsqIzaD7n+zXzDzN11ZIkTYiOCy+8EN/5x29j/YMbcPDQIfz43h/h2V//Gn/cv18v4S6uCHjhWOCt7wCjLgYuzgCq5tOG04DH6Jh/7so7Inb32m9RDQu7AIsW+ucbbq01e2E+ZlD9zTYzXHIFP4frQEN9sDtj8P12Q7vUvlIxQs/ofoz24xBSAxbvt5cvw+ZHH8Vrr72G3+7cibP0b8L4CUhLI0HEgZgFfA5t4c5JdPDnAc9/HXjpG0Du+cCB94DbntQLRULGaMzVIjCEmIupC1mITdipXNxdaFSCtIopA+015jwgs3QyzTuIJ/U09LpWK9sz4exXw9n0OYM/Z+TnZXc1AQXTAkTMx4ijj6n5kR2H4AVycnKwfFklHnlkM+rqDuLSoiLcMucr+N4/3Y133nkHmZmZekl3iVnAn1Abd/qDwKGThhtdlE027c/AzEeA/w233WvF0gbeWE2WceAIFNK1D1/y7oM4rFSZibyBqoLoQJsyos1o6+ChdV6UhLVfg7ziQqqlRY8cNCrq3jBuHFm5ls6wUJZe8DJseSu/9S08tPFhHH7jDVxyySW49db5+Bldw+3t7cqFjvYRVE+44kK3fASU/we50R8AXWeBm7YA7/yPnpnENCu1Z6CwWHqShejIyMjA0rvuxPr16/H2228b4p0/H/etXoOODmVN4oorAmZYxJPvB25/Ctj1pq50g5MH0cDnoeBK7brqjqmOBtSR1Q+NaZGdaa5+BrU0P7P0loB2aUl5OfIi2G9zfQPaaVhwhXaZS65Ube/2owelMyzFGTRoEN5pbFRlyJAhWLhgAVnetcryJoKYBMyvR1p5vxPYWKMnHLAvHx4t2P2w2f7ktrFul4b1iInWreEkys6dWMa212En+bsF04x2N5cZRea8MPd7shobzXYvL6vbw6oJIKQ8l+QXYPasWVhAbvPqNYmxvCbyLrSQEji9Cx2PdmdWVlbAu9DnnXceCgqM6ePvvovOCD4PdONdaPkeWEgJnAQcL5LpYwYRsJAS/M34CajdV5PU3wJb4Q/7S8eW4bVXX9E1kcMCdq0TSxB6Ew5Tw5EuvAIfKx9zrIiAhZSAY0xxmJq8iy5W1i1Z4WPjY+Rj5WOOFXGhhZRBgtoJguAZpA0sCB5HLLCQMogLLQgeReJCC4KHkbjQguBhJC50FMi70EKywO6k9TqWuNBhIHGhhWTmopx810s0SFxoQfAQEhfaV0IEkesJjlPF2wiIS5XcmMHvpgYNB9T9HPUYIM+D58HrSFxojon1+AG088f0CQrunvQoIU5DgTVuNp2jNj1bSB4kLjRzskWFqRGYXEz9wmhk2iOCnKzGbolwmVQkOi70OXoYExwX+t++AExdb8TGciUutD2uFFugOXwRm3C41yodMZJDwN6CUo4iyXB414D9+udzEPeN1XmWmNEmHah9fBN2Q++nowPtGRk0JIv38EGUWLdvLsuxsTge9LR8vV26wwZM0zlR69G2Omhben3OAmGElrXGrg5BtwiZ3eH0MJxhwsR3PN2wnSunv4X+9kz629V5rNKRNoUescaF5tCyHFpn+PBiFRe6tvYAzp49q5d0j5gtcNziQnNcKRLP0+ZFyHGnTNeR40+Rez3OFzfaEEnt43q+7aLLK7/eIt4Wuk5ZNObyZuxoGxnt2MvbIouXV2Hd/mOoJTGWzgnVVu1Ow7O0rmoWAAVlRrMgrOMIBxIei5f/Pv77t9aSAEtvcczbVBLG35KJBsNNF/GGjcSFNvG18eiCVmK2dGSZHTIsbiIzm2Tgs041hhWxk1WGG1i9vpuBPbqkGe/Zhs/a2ZdvQd1RDlqWgeyw+yTa0czrms2CjGwScJjHEQb2DBNmlEx1fgII72+RaJqRIXGhHQkMpK56aMm1BVsZbckiQonGo5jC94W4FZKFDIkLHQxtLZT1ykWeeuusCXvZiuZm+9vCvou7zNmlPVVjhHzlHm31KEXHis4oRIla3txPMPSNxLd8LkqK2OQ34TCb6Ja2AGuXlxOuqxTJcRzEk+bfYO2VJ49kKim67gjP8weo75YpwkcPf4sQMRIX2o4vN5LZPuSOqsD4zpVlmRYLbOZA4rYcr0fF/syzrkrFfjbyFeVh97Nswc3ly5DZw42yrspsK/LyZhtSd6BR23yvuW3a9w0qpnQ40N8UyXHQ36A8D0vuKPZIqMWi5pntXq4328NOOZhC/i1CVEhc6F6G3fMZBdZebcFrOL0LHe2rj6F4v7VJ4kInFfrRiTwy8TZOAo4XEhe6l7E/MxXxep++GhdaLLCQElw+rBjtp06pj+W9AIeWzczKwpuH63VN5LCAXeuFFoTeROJCC4LHkaB2giB4BnGhBcHjiIAFwcOIgAXBw4iABcHDiIAFwcPE1AtdVFiIz82YHtbL2/zZ1W93PoejDQ26RhCEWIj5MdIdS27H1KlTMWHCBF0TnFdeeQW7d+/GA+sf1DWCIMRCzI+R2PKGI16Gl0vkZ1aC0BfoP6xk5MoTTdG90jVqZAmmT5+up3pm165d+FNdsA/2OMDbLfj8+PGY4CuD0flqvTvhXfiro1tmYPinj2L/sY91ZfTwBxFLZl3jP9bhn8Hb+4/hIz3fCf5sce7nhuMzDbVoCLWgIIQBfxWVfJ1YZkysJI4LrYRYmqGiS6ogelR2HtUzBSGBJG8vdLLGhSZLPqPAiHBpjXhRV22J1ywICSKJXOg8DB9fhMy/nMTr7IqWTMbnizLRXr8bL2mX1+62+txhjla5eCauHT4cw6+5hoaGO1uoXFbt4tK2mL+8/yftQnM42sWYfY3NBTZdbdrWtbStCYM+xCs62iNTMmkGLs3swOHf7wniBtubAv5mQF7xeFr3L3i/TrvQel/m3+Pfl3ls9PcMp7+HhuJ2C3aS04UOFheaLvYeYx9bYjk3WyylcnEDAjToWNLQ7joHjKP93mDZVnSxkXm7HMuLw/Owa82xujiOl0OOJ77pmJFAzGNQMbus8bzo763h7ejA64JgI3nbwLa40GHFPrZkLrAvb0Ru1JixpK03C8K6rahiI3fLoBAYGtdKt8iRdW8Ygd2zci1tfokWKYQmedvAIS5+1zCtn1nCsLbNRixYXwhXQehNkljA1rjQpgUNJ/axgV1ohkXWOMWSLikPK1VKc/UzIO9due/W1J4l5eXIO3kQDbxbXwB2eyYEP6YHUXCFdpntuaAEIQxi6sSaNPGzGDBgAPLzLeIIAr+JdeLECfzhtdd0jR3diXXuRRilOnVoXMWFfhx7ufOmuR5vf3o4ykqvVh0+oy46V7Vv/7PmY+CCobhq5EX4dPtRX4fTR8eO4zPDR2LoJSPV8jlpHfj0uefqTqxjOPTqhxg8vhhXjtQdSEXnGZ1L5xerDi9/Z5edj9Gwfy86B43HVWP0ulQuPY873w6hbj9vdwyuUvX8N1B7+IHfUIva1ol18hj2fzgYE8aM0fun2xF5BPf/5hgteT4Kx4zERed24G23noMLKQd3Ysm70ILgUSSkjiBoLj57FjfgLHLPAr/vl4aXkabnJC8SUkfo8wwi4f4DlV+d7cJiGs4iEa/r6kK8+k3dRgQs9EkupLKEBLuDhPs1KnYKaJ4XEAELfYoLqCwgcT7TdQa3OQiXqU5Lwz4qXkAELPQJzqUylwT7NAn3GzQ8x6gO4E/U7l2Z1g/fpuIVRMBCSsN29Esk2G0k3LvI8rIFtvMmLbWCRLuwXz886xHLayICFlIW7pB6ioT7bRKu03tz/PbDvSTaW6j82mPCNREBCynH35FgHyfh3t3VBadXjPhVn5+SYG/q1x/bPfC4KBQiYCFlKCXh/pyEu4pc5st0nRXORLSOhDubhPsEucze6GcOjQhY8Dzcrv17Eu0GKuONqgA+oXI/CfYGEu5WGv7FqE4JRMCCp/lbsqO/IKs7n6yvEw+RYK8n4W4iyxtbLsDkRAQseJJhJNh/pTbuD4K8NcUu8kwq60m4H+i6VEQELHgKfn7LL2BsoTLVoRXLz3L/gYTLnVQnqKQ68jWS4BmuJcF+nSxukZ628zMS7mN9QLQmkplB8ARDyV2eT+K9Pkg792kS7SYSb3RftXuX5MvMwFEaOUaVWcyY0Lo+IIBdFHA858qlC8KKvCEkB18l0f6S3GUn8b5FhV97/EEfFK9J8rSBWaTWKI1UJFh634VDEv2chLuUihMPkGi/2q+/+vCgL5M0As7LMeI2W2NcSbD0vgk/EtrUdQbjHazucyTYr/brh4dp6CztvkXSBHb/6IIiFRcqs8gSsN0kT8epOu8SI9g6x5Dy5SKyB1K3BkEPnHepukf4A6sHDRTP3oAlj5KR02g8Bn+4F4ea9TZtAd+F2BlD5QdkcWc6CJd7lP+VrO6DVD7w+OuPbpFcgd3rqlSwdoYjPnKb1xr1kck8VaNca7VcxmhMUfMP4kntchv5lDJQOtGI9FhSwUHWOTAez+cg6xZIpEEDxbe0WWJOm9ExaTqH5g3MDRkNU4iO20m4D5LVHeMg3l+QeOeRcH/bx91lJ5LqOXBz9Saj7auVVjAtMKNBe1ugQ60EpWCreBcq54xW4jKCo9tDuppxpg1CBoo3w8PydpRgm9BI62YWjUBebraKltkmxtcVykiwm0m4HM7GzjES7DIS7moqPT+o7JsklYBN6qpMEfcc1J3d4MqlZGlV55fNykZNC+qOspUvxJSJhchsfAMvcJzpjGxMYeE7xHkWIoNfyPgmWd3/T2W4URXAoyRatroviNUNSfJ0YpVXWB7vBAZ1D0VeNucyITd5D7m02r01aIYR270QJWq7fleY6SlQfHOrCv2OzCxys8nyGxY6HwW0DQm+HhuTyNpuJat7q4PVPcJvUvXrj5+TcP+s64TgJJEFzkTpHPMZsNl2rfLlOgpG3R7d7uV1v1Coa5kW7H7WMm9pGTKtfphuc5vtbbM97EsZqnIVZSAzQ7vZvnSnfrdbiIwLSLD8WOhnVC7VdVY2stXt1w+v6mmhZ+RNLCGALCqnjFFXKcdZ3BnkA3t+f/kBsrheCSSXLMT8KqW8C506XEICW0kC407D3SSo75AldINssrqLaMhxqZz4DxItW14hciQzg+CDg5tb4yNXkqhejNEiTqdtfou26fQC7B+01X1drG7USGYGwUe5zUK+H4OuOELG92h7PwoiXu6guoMsvIg3dkTAgmqXWjrowe/AcajVaODXHzeRcCtoaOcVKl8jy86PiAR3kDMpYITtw/hXoxTvQhItf4DAn//ZuY9Ee2e//qgXq+sqImABQ2yCi9S15UdCa7u6cIfNDWe4HT2HhPtfIty4IAIWcK3NYEbylvcNJP7/7DqDiTYrzvw7WV3uDOPvdoX4IALu4+RQucImvrowrCV3VH2XLO49VPobVT7epvINEu5msbpxRz1G0uNCH2Rk2we445Df5h7K+n/495KResqZK0+dwpePvoWLPrZ88ql5/uJB2DF0KP7c3yl9mOA2aYPzC0TAfZjbyQVebGm78ve2G0JYzpm07D87dFKdpvJDWterOYa8irjQfZyRNvf5sB46wWk5ncTLHVVfFfH2CiLgPswAKvawNYccRMivQ/6ExMuJse2YHVUNIt5eQQTchymxCfIwidCexYAt9P0k3utsy3K+oX/sJx1VvY0IuA8zRA9NDuihyedIvA93df/07xCVBWR1fx/lCx+Ce4iA+zCZtvZvi0WQi8jq/pDEa+c3tMw3SbxsrYXeRwTch+FYJlY6qfAz3e+Tu/x1h/bugyTae8ht/lDEmzSIgPsw/PG+FZbl2q4zuJGsrx0W7gayvEJyEfVz4P6jF+HUqO+i4/SndE1wMgb8FVmv/wRnDmzUNUIy8FNykTlShsl7ZFkvtllejgz5Q5L2AbG6SUnUt9Rwxcvwcry8kFxk2TRpF+9LJNq/J6t7kIb8XlW4RUgcUVvg4195R485M4AaUztvA/7teeA3+u2Awb+4xBjpBsd15kB2FjoOYOvDqZFahTM7zCjgIH2bsNsSZZND4nIwve50XzYeVJG77BSjKlb4xUzOoiCfDsafuDVqHrwJKL8U2Pxl4Dx+YyAcWLRmloVeFq+RydAaWF4Hj68wsj64gRnI3sgoQfj+/mjFG9kxOkXLcAPe+xdtPdxCfIiLgL8xAbj1auBMF3DjJuBjflHWUwTGkFaUXBnoISQjER5jmx7Ggy55RpwQXHGhsz5DbeL/NcYnDQWev4PuDPT73bkD+LklXl6PLrSj22x3r5uwc60RL9p0Tds7OH4zZyZdh8NXBNYpGpvQWJCvt+F3T7u5sJzdoQrd3PnG+iYUFFudTfMYcjF14S3wbcJ3/A5NglBu8cByLOK0MAF/v9O2D6JE1/Hf+mSduQxtu6YdpWWBx7iGjjEUT53tQoGl3ct9z27cazlM7E/JfT4qLnTcidkCLxwLvPUdYNTFwMV0YVXNN8T72P5A8YZFxmjMVYHdzWTefIGyEFgwZoKyfMwIcG1pp0eNBGW+oOxU115jLk8UZKKNE5ztMrIxmMnPfC4sFZXKpaAMUwdysjQzRYux3yd/W6XXJVQKF4t4od1enk/HfwMdd8ikamERbNvA7oeN7RWUlSOvZLIWM90YXu5+jD3xoUW8/Gok59ud5ELhgHUi3sQQk4DPobXvnARceB5Z3a8DL32DLr3zgQPvAbc9qReKBF8bcB02VreQZRqBQrZAjW/oDA1mgjJrziSnTAn25GM6RYvOOmjFyK3EVpunMpAdbsPQPDbzpsPJyYnM7NKQSdXCIui2OVsi3WC0oOfqhOj+G1dk8IcInLbzXRq/k8Ylcob3iEnAn5DPNf1B4BBdqOxGF2XTdftnYOYjwP8mfbvX6PCZWwplKc3UphGjrJ1x01Gl6oSe4QLdtu0Q7EZlYowOzoQwk4Q7m6ymZEXwJjG70C0fAeX/QW70B9SGIo/spi3AO/+jZ8aKmeaz4ErtMttThsaAmQitscZoD6skaSY6MZoVu/U2cyUpt1vVUKO8nMZDJ1ULi6Db5hG68bDlJW9lp86TzG67wsHDEFKbmAXMsIgn3w/c/hSw601d6Qotus3H7V5uG+v2sBuPmE5WY69qTE5TLvS4LKtiab813J409qsSjQcsz21ws61sJk9jV5eTq/WQVC0sgm3b3znWWFONuuoa1R7OLL3eELftGIXUJ+pe6M55b4b9JhbDr1Omb7lcTwmC4AZRW2B+t5lFGQ7mu9CCILiLBLUTBA/jShtYEITeQQQsCB5GBCwIHkYELAgeRgQsCB5GBCwIHkYELAgeRgQsCB5G0osKgoeRN7EEwbMA/wcd4vkS8y+Y9wAAAABJRU5ErkJggg==;" parent="1" vertex="1">
          <mxGeometry x="1380" y="420" width="165.75" height="250" as="geometry" />
        </mxCell>
        <mxCell id="gilnU75VA4Pi0Fp9G4X0-9" value="&lt;div&gt;$choice&lt;/div&gt;" style="rounded=1;whiteSpace=wrap;html=1;verticalAlign=middle;align=center;spacingLeft=2;arcSize=9;fontFamily=Lucida Console;" parent="1" vertex="1">
          <mxGeometry x="400" y="890" width="145" height="40" as="geometry" />
        </mxCell>
        <mxCell id="gilnU75VA4Pi0Fp9G4X0-10" value="you can use any shape for a $choice&#xa;as long as you have the correct label." style="align=left;verticalAlign=top;resizable=1;whiteSpace=wrap;strokeColor=none;fillColor=none;fontSize=12;fontFamily=Helvetica;fontStyle=2;fontColor=#858585;connectable=0;allowArrows=0;" parent="1" vertex="1">
          <mxGeometry x="400" y="940" width="220" height="50" as="geometry" />
        </mxCell>
        <mxCell id="aHEU3jiZQ6BDLXsqDvKI-1" value="&lt;div&gt;&lt;span style=&quot;&quot;&gt;&lt;b&gt;&lt;font style=&quot;font-size: 16px;&quot;&gt;&lt;u&gt;YCS&lt;/u&gt;&lt;/font&gt;&lt;/b&gt;&lt;/span&gt;&lt;/div&gt;&lt;div&gt;&lt;span style=&quot;font-size: 21px; background-color: transparent; color: light-dark(rgb(0, 0, 0), rgb(255, 255, 255));&quot;&gt;ss.cli run -hr&lt;/span&gt;&lt;/div&gt;" style="text;html=1;align=left;verticalAlign=top;whiteSpace=wrap;rounded=0;" parent="1" vertex="1">
          <mxGeometry x="600" y="-550" width="530" height="102" as="geometry" />
        </mxCell>
      </root>
    </mxGraphModel>
  </diagram>
</mxfile>
